<svg version="1.2" xmlns="http://www.w3.org/2000/svg" viewBox="0 0 500 500">
	<style>
		.s0 { fill: #ebebeb } 
		.s1 { fill: #2E3244 }
		.s2 { fill: #3384ff } 
		.s3 { opacity: .1;fill: #000000 } 
		.s4 { fill: #263238 } 
		.s5 { fill: #37474f } 
		.s6 { opacity: .2;fill: #000000 } 
		.s7 { fill: #ffffff } 
		.s8 { opacity: .4;fill: #ffffff } 
		.s9 { fill: #dbdbdb } 
		.s10 { fill: #455a64 } 
	</style>
	<g id="freepik--background-complete--inject-54">
		<path class="s0" d="m92.64 317.14l-14.84 0.28-7.51 0.12c-2.51 0-5 0-7.55 0h-0.44v-0.45-12.63-0.46h0.5l14.95 0.07c5 0 10 0.11 15 0.16h0.27v0.27c0 2.14-0.09 4.27-0.13 6.38zm0 0l-0.15-6.37c0-2.1-0.11-4.19-0.13-6.26l0.28 0.27c-5 0.06-10 0.16-15 0.17l-14.9 0.05 0.5-0.5-0.05 12.63-0.45-0.44q3.7-0.01 7.4 0.05l7.43 0.12z"/>
		<path class="s0" d="m76 333.07l-14.83 0.28-7.52 0.12c-2.51 0-5 0-7.55 0h-0.44v-0.45l-0.06-12.63v-0.5h0.5l14.9 0.11c5 0 10 0.12 14.95 0.17h0.27v0.27c0 2.14-0.08 4.27-0.13 6.38zm0 0l-0.14-6.37c0-2.1-0.11-4.19-0.13-6.26l0.27 0.27c-5 0.06-10 0.16-14.95 0.17l-14.95 0.06 0.5-0.5-0.05 12.63-0.45-0.44q3.7-0.01 7.4 0.05l7.44 0.12z"/>
		<path class="s0" d="m76 59.71l-14.87 0.29-7.52 0.11c-2.51 0-5 0-7.55 0.06h-0.44v-0.45l-0.06-12.63v-0.5h0.5l14.94 0.05c5 0 10 0.12 14.95 0.17h0.27v0.27c0 2.14-0.08 4.27-0.13 6.38zm0 0l-0.14-6.37c0-2.1-0.11-4.19-0.13-6.26l0.27 0.27c-5 0-10 0.16-14.95 0.17l-14.95 0.06 0.5-0.5-0.05 12.63-0.45-0.44q3.7 0 7.4 0l7.44 0.12z"/>
		<path class="s0" d="m453.94 59.71l-14.84 0.29-7.51 0.11c-2.51 0-5 0-7.55 0.06h-0.44v-0.45-12.63-0.5h0.5l14.95 0.06c5 0 10 0.12 14.95 0.17h0.27v0.27c0 2.14-0.09 4.27-0.13 6.38zm0 0l-0.14-6.37c-0.05-2.1-0.12-4.19-0.14-6.26l0.28 0.27c-5 0-10 0.16-14.95 0.17l-14.99 0.06 0.5-0.5-0.05 12.63-0.45-0.44q3.7 0 7.4 0l7.43 0.12z"/>
		<path class="s0" d="m437.26 75.64l-14.83 0.28-7.52 0.11c-2.51 0-5 0-7.55 0.06h-0.44v-0.45l-0.06-12.64v-0.5h0.5l14.95 0.06c5 0 10 0.12 14.95 0.17h0.28v0.27c0 2.14-0.08 4.27-0.13 6.38zm0 0l-0.14-6.37q-0.09-3.16-0.13-6.26l0.27 0.27c-5 0-10 0.16-14.95 0.17l-14.95 0.06 0.5-0.5-0.05 12.63-0.45-0.44q3.7 0 7.4 0l7.44 0.12z"/>
		<path class="s0" d="m360.69 223.44l-14.83 0.28-7.52 0.11c-2.51 0-5 0-7.54 0h-0.45v-0.45l-0.05-12.64v-0.5h0.51l14.94 0.07c5 0 10 0.11 14.95 0.16h0.3v0.27c0 2.14-0.08 4.27-0.13 6.38zm0 0l-0.14-6.38q-0.09-3.14-0.13-6.26l0.27 0.28c-5 0-10 0.16-14.95 0.16l-14.94 0.06 0.49-0.5-0.05 12.64-0.44-0.45q3.69-0.01 7.39 0.06l7.44 0.11z"/>
		<path class="s0" d="m344 239.37l-14.83 0.28-7.51 0.11c-2.51 0.05-5 0-7.55 0.05h-0.45v-0.45l-0.05-12.64v-0.5h0.5l14.95 0.07c5 0 10 0.11 14.94 0.16h0.28v0.27c0 2.14-0.09 4.27-0.13 6.38zm0 0l-0.14-6.38c0-2.1-0.11-4.18-0.13-6.26l0.27 0.28c-5 0.05-10 0.16-14.94 0.16l-14.95 0.06 0.5-0.5-0.06 12.64-0.44-0.45q3.69-0.02 7.4 0.06l7.43 0.11z"/>
		<path class="s0" d="m327.4 223.44l-14.83 0.28-7.51 0.11c-2.51 0-5 0-7.55 0h-0.45v-0.45l-0.06-12.58v-0.5h0.51l14.94 0.07c5 0 10 0.11 14.95 0.16h0.28v0.27c0 2.14-0.09 4.27-0.13 6.38zm0 0l-0.14-6.38c0-2.1-0.11-4.18-0.13-6.26l0.27 0.28c-5 0-10 0.16-14.95 0.16l-14.94 0.06 0.5-0.5-0.01 12.64-0.44-0.45q3.69-0.01 7.4 0.06l7.43 0.11z"/>
		<path class="s0" d="m453.94 333.07l-14.84 0.28-7.51 0.12c-2.51 0-5 0-7.55 0h-0.44v-0.45-12.63-0.5h0.5l14.9 0.11c5 0 10 0.12 14.95 0.17h0.27v0.27c0 2.14-0.09 4.27-0.13 6.38zm0 0l-0.14-6.37c-0.05-2.1-0.12-4.19-0.14-6.26l0.28 0.27c-5 0.06-10 0.16-14.95 0.17l-14.95 0.06 0.5-0.5-0.05 12.63-0.45-0.44q3.7-0.01 7.4 0.05l7.43 0.12z"/>
		<path class="s0" d="m199.93 97.28l-14.84 0.28-7.51 0.11c-2.51 0-5 0-7.55 0.06h-0.44v-0.45l-0.05-12.63v-0.5h0.5l14.95 0.06c5 0 10 0.11 15 0.17h0.27v0.27c0 2.14-0.09 4.27-0.13 6.37zm0 0l-0.15-6.37c0-2.11-0.11-4.19-0.13-6.26l0.28 0.27c-5 0-10 0.16-15 0.16l-14.93 0.07 0.5-0.5-0.05 12.63-0.45-0.44q3.7 0 7.4 0l7.43 0.11z"/>
		<path class="s0" d="m423.23 181l5.88-9.49-2.9-1.8q-0.31-0.2-0.56-0.47-0.25-0.27-0.41-0.61-0.17-0.33-0.23-0.69-0.07-0.36-0.04-0.73 0.02-0.21 0.03-0.42 0.02-0.21 0.02-0.41 0.01-0.21 0.01-0.42 0-0.21 0-0.42-0.01-0.37 0.08-0.72 0.09-0.36 0.27-0.68 0.18-0.32 0.44-0.58 0.27-0.25 0.59-0.43l3-1.61-5.28-9.85-3 1.62q-0.33 0.17-0.68 0.25-0.36 0.07-0.73 0.05-0.37-0.02-0.71-0.15-0.35-0.12-0.65-0.33-0.17-0.12-0.35-0.23-0.17-0.12-0.35-0.23-0.18-0.11-0.36-0.21-0.18-0.11-0.36-0.21-0.32-0.17-0.59-0.43-0.27-0.26-0.45-0.58-0.19-0.32-0.28-0.67-0.09-0.36-0.08-0.73l0.11-3.42-11.17-0.4-0.1 3.43q-0.02 0.37-0.13 0.72-0.12 0.35-0.32 0.65-0.21 0.31-0.49 0.55-0.28 0.24-0.62 0.39-0.36 0.17-0.73 0.37-0.36 0.19-0.71 0.4-0.31 0.19-0.67 0.29-0.35 0.1-0.72 0.1-0.37 0-0.72-0.1-0.36-0.1-0.67-0.29l-2.93-1.81-5.88 9.49 2.91 1.81q0.31 0.2 0.56 0.47 0.25 0.28 0.41 0.61 0.16 0.33 0.23 0.69 0.06 0.36 0.03 0.73-0.02 0.21-0.03 0.41-0.02 0.21-0.02 0.42-0.01 0.21-0.01 0.41 0 0.21 0.01 0.42 0.01 0.37-0.08 0.72-0.09 0.36-0.28 0.68-0.18 0.32-0.44 0.58-0.27 0.25-0.59 0.43l-3 1.61 5.28 9.85 3-1.62q0.33-0.17 0.68-0.25 0.36-0.07 0.73-0.05 0.37 0.02 0.71 0.15 0.35 0.12 0.65 0.33 0.17 0.12 0.35 0.23 0.17 0.12 0.35 0.23 0.18 0.11 0.36 0.21 0.18 0.11 0.36 0.21 0.32 0.17 0.59 0.43 0.26 0.25 0.45 0.57 0.18 0.32 0.28 0.68 0.09 0.35 0.08 0.72l-0.11 3.43 11.17 0.35 0.1-3.43q0.02-0.37 0.13-0.72 0.12-0.34 0.32-0.65 0.21-0.3 0.49-0.54 0.28-0.24 0.61-0.39l0.74-0.38q0.38-0.19 0.72-0.4 0.31-0.19 0.67-0.29 0.36-0.1 0.73-0.1 0.36 0 0.72 0.1 0.36 0.1 0.67 0.29zm-9.46-7.05c-3.26 1.74-7.25 1.35-10.1-1-2.86-2.34-4.02-6.18-2.95-9.71 1.07-3.54 4.16-6.08 7.84-6.45 3.68-0.36 7.21 1.52 8.96 4.78 0.56 1.06 0.91 2.22 1.03 3.41 0.11 1.19 0 2.39-0.35 3.54-0.35 1.15-0.92 2.21-1.68 3.14-0.76 0.93-1.69 1.69-2.75 2.26z"/>
		<path class="s0" d="m101.53 288.51l5.89-9.49-2.91-1.8q-0.31-0.2-0.56-0.47-0.25-0.28-0.41-0.61-0.16-0.33-0.23-0.69-0.06-0.36-0.03-0.73 0.01-0.21 0.02-0.42 0-0.21 0-0.41 0-0.21 0-0.42-0.01-0.21-0.02-0.42-0.01-0.37 0.08-0.73 0.09-0.35 0.27-0.67 0.19-0.32 0.45-0.58 0.27-0.25 0.59-0.43l3-1.61-5.28-9.85-3 1.62q-0.33 0.17-0.69 0.25-0.36 0.07-0.73 0.05-0.36-0.02-0.71-0.15-0.35-0.12-0.65-0.33-0.17-0.12-0.34-0.24-0.18-0.11-0.36-0.22-0.17-0.11-0.36-0.22-0.18-0.1-0.36-0.2-0.32-0.18-0.59-0.43-0.26-0.26-0.45-0.58-0.18-0.32-0.28-0.67-0.09-0.36-0.08-0.73l0.11-3.42-11.16-0.35-0.1 3.43q-0.02 0.37-0.13 0.72-0.12 0.35-0.32 0.66-0.21 0.31-0.49 0.55-0.28 0.24-0.62 0.39-0.37 0.17-0.74 0.37-0.37 0.19-0.71 0.4-0.31 0.19-0.66 0.29-0.36 0.1-0.72 0.1-0.37 0-0.73-0.1-0.35-0.1-0.66-0.29l-2.86-1.79-5.89 9.49 2.89 1.81q0.31 0.2 0.56 0.47 0.25 0.27 0.41 0.6 0.16 0.34 0.23 0.7 0.07 0.36 0.03 0.73c0 0.55-0.06 1.1 0 1.66q0.01 0.37-0.08 0.73-0.09 0.35-0.27 0.67-0.19 0.32-0.45 0.58-0.27 0.25-0.59 0.43l-3 1.61 5.28 9.85 3-1.62q0.33-0.17 0.69-0.25 0.36-0.07 0.73-0.05 0.36 0.02 0.71 0.15 0.35 0.12 0.65 0.33 0.17 0.12 0.34 0.23 0.18 0.12 0.35 0.23 0.18 0.11 0.36 0.21 0.18 0.1 0.36 0.2 0.32 0.18 0.59 0.43 0.26 0.26 0.45 0.58 0.18 0.32 0.28 0.67 0.09 0.36 0.08 0.73l-0.1 3.43 11.16 0.34 0.11-3.42q0.02-0.37 0.13-0.72 0.11-0.35 0.32-0.65 0.2-0.31 0.48-0.55 0.29-0.24 0.62-0.39 0.37-0.17 0.74-0.37 0.37-0.19 0.71-0.41 0.31-0.19 0.67-0.3 0.36-0.1 0.73-0.1 0.36 0 0.72 0.1 0.36 0.11 0.67 0.3zm-9.45-7.05c-3.26 1.75-7.26 1.36-10.12-0.98-2.87-2.35-4.04-6.18-2.97-9.73 1.07-3.54 4.17-6.09 7.86-6.46 3.68-0.36 7.22 1.53 8.97 4.79 0.57 1.06 0.92 2.22 1.04 3.41 0.12 1.2 0 2.41-0.34 3.56-0.35 1.14-0.92 2.21-1.68 3.14-0.76 0.93-1.7 1.7-2.76 2.27z"/>
		<path class="s0" d="m215.87 106.74l-3.87-6.74-2.08 1.2q-0.22 0.13-0.48 0.19-0.25 0.06-0.5 0.05-0.26-0.01-0.51-0.09-0.25-0.08-0.46-0.22-0.12-0.08-0.24-0.15-0.13-0.08-0.25-0.15-0.13-0.08-0.25-0.14-0.13-0.07-0.26-0.14-0.23-0.12-0.41-0.29-0.19-0.18-0.32-0.39-0.13-0.22-0.2-0.47-0.07-0.24-0.07-0.5v-2.4h-7.82v2.4q0 0.25-0.07 0.5-0.07 0.25-0.2 0.46-0.13 0.22-0.32 0.4-0.18 0.17-0.41 0.29-0.53 0.27-1 0.58-0.22 0.15-0.47 0.24-0.25 0.08-0.52 0.09-0.27 0.01-0.52-0.06-0.26-0.06-0.49-0.2l-2.15-1.2-3.91 6.78 2.08 1.2q0.22 0.13 0.4 0.32 0.18 0.18 0.3 0.41 0.12 0.23 0.17 0.48 0.06 0.25 0.04 0.51 0 0.29 0 0.58 0 0.28 0 0.58 0.02 0.26-0.03 0.51-0.06 0.25-0.17 0.47-0.12 0.23-0.3 0.42-0.18 0.18-0.4 0.31l-2.09 1.21 3.91 6.78 2.08-1.2q0.22-0.13 0.48-0.19 0.25-0.06 0.5-0.05 0.26 0.01 0.51 0.09 0.25 0.08 0.46 0.22 0.12 0.08 0.24 0.15 0.13 0.08 0.25 0.15 0.13 0.08 0.25 0.14 0.13 0.07 0.26 0.14 0.23 0.12 0.41 0.29 0.19 0.18 0.32 0.4 0.13 0.21 0.2 0.46 0.07 0.25 0.07 0.5v2.34h7.82v-2.4q0-0.26 0.07-0.5 0.07-0.25 0.2-0.47 0.13-0.21 0.32-0.39 0.18-0.17 0.41-0.29 0.52-0.27 1-0.58 0.21-0.14 0.46-0.22 0.25-0.08 0.51-0.09 0.25-0.01 0.5 0.05 0.26 0.06 0.48 0.19l2.08 1.2 3.91-6.78-2.08-1.2q-0.22-0.13-0.4-0.32-0.18-0.18-0.3-0.41-0.12-0.23-0.17-0.48-0.06-0.25-0.04-0.51 0-0.29 0-0.58 0-0.29 0-0.58-0.02-0.26 0.04-0.51 0.05-0.25 0.17-0.48 0.12-0.23 0.3-0.41 0.18-0.19 0.4-0.32zm-7.48 3.5c0 2.59-1.56 4.93-3.96 5.92-2.39 0.99-5.15 0.45-6.98-1.39-1.84-1.83-2.38-4.59-1.39-6.98 0.99-2.4 3.33-3.96 5.92-3.96q1.27 0 2.45 0.49 1.18 0.49 2.08 1.39 0.9 0.9 1.39 2.08 0.49 1.18 0.49 2.45z"/>
	</g>
	<g id="freepik--Plant--inject-54">
		<path class="s1" d="m88.84 303.84c-13.07 12.79-15.27 32.59-12.51 49.92 0.07 0.4 0.68 0.29 0.68-0.08 0-3.95-0.12-7.86-0.11-11.76q0.1-0.25 0.2-0.52c3.41-2.48 6.55-5.28 8.49-9.12 2.18-4.29 3-9.14 4.71-13.62 0.16-0.43-0.3-0.3-0.6-0.08-8 5.86-10.48 12.17-12.76 20.6q0.02-1.65 0.11-3.3 0.1-1.65 0.27-3.3 0.17-1.64 0.42-3.28 0.25-1.63 0.58-3.25c1.72-8 5.11-15.93 10.86-21.86 0.22-0.19-0.12-0.58-0.34-0.35z"/>
		<path class="s2" d="m91.29 305.33c2.25 0.08 3.66 3.67 5.41 4.72q0.28 0.23 0.63 0.32 0.34 0.1 0.7 0.04 0.35-0.06 0.65-0.25 0.3-0.2 0.5-0.5c1.74-2.42-0.64-5.41-2.88-7.09 1.6 0.66 2.93 1.82 4.65 2.15q0.34 0.11 0.69 0.07 0.35-0.04 0.65-0.22 0.3-0.19 0.5-0.47 0.2-0.29 0.27-0.64c0.76-3.31-3.39-4.77-6.23-4.84 1.38-1 5.33-3.57 3.23-4.85-2.1-1.28-6.76 2.44-8.27 3.67-2.23 1.8-4.88 4.5-5 7.32-0.11 3.29 2.77 1.24 4.5 0.57z"/>
		<path class="s3" d="m91.29 305.33c2.25 0.08 3.66 3.67 5.41 4.72q0.28 0.23 0.63 0.32 0.34 0.1 0.7 0.04 0.35-0.06 0.65-0.25 0.3-0.2 0.5-0.5c1.74-2.42-0.64-5.41-2.88-7.09 1.6 0.66 2.93 1.82 4.65 2.15q0.34 0.11 0.69 0.07 0.35-0.04 0.65-0.22 0.3-0.19 0.5-0.47 0.2-0.29 0.27-0.64c0.76-3.31-3.39-4.77-6.23-4.84 1.38-1 5.33-3.57 3.23-4.85-2.1-1.28-6.76 2.44-8.27 3.67-2.23 1.8-4.88 4.5-5 7.32-0.11 3.29 2.77 1.24 4.5 0.57z"/>
		<path class="s2" d="m90.64 305.89c2.88-1.31 8.4 0.57 8.87-0.52 0.95-2.21-3.46-3.73-5.85-4 2.2-0.59 6.4-1.54 6.27-3.65-0.16-2.59-6.44-0.36-9.63 2.08-4 3.07-4 6-3.32 6.63 0.91 0.79 3.19-0.33 3.66-0.54z"/>
		<path class="s1" d="m59.07 302.57c13.55 12.29 16.49 32 14.4 49.42-0.06 0.39-0.67 0.31-0.68-0.06-0.15-3.95-0.18-7.86-0.34-11.75q-0.12-0.26-0.22-0.52c-3.51-2.35-6.75-5-8.83-8.79-2.35-4.21-3.39-9-5.23-13.43-0.17-0.42 0.29-0.32 0.6-0.11 8.17 5.56 10.94 11.77 13.54 20.11q-0.08-1.65-0.24-3.3-0.16-1.64-0.4-3.28-0.23-1.63-0.54-3.26-0.31-1.62-0.7-3.23c-2-7.93-5.72-15.72-11.69-21.44-0.22-0.22 0.1-0.57 0.33-0.36z"/>
		<path class="s2" d="m56.68 304.16c-2.25 0.16-3.52 3.8-5.23 4.92q-0.27 0.24-0.61 0.34-0.35 0.11-0.7 0.07-0.36-0.05-0.67-0.23-0.3-0.19-0.51-0.48c-1.83-2.35 0.43-5.43 2.61-7.19-1.58 0.72-2.86 1.93-4.57 2.32q-0.33 0.12-0.68 0.1-0.36-0.03-0.67-0.2-0.3-0.17-0.52-0.45-0.21-0.28-0.28-0.63c-0.89-3.27 3.2-4.9 6-5.07-1.41-0.91-5.46-3.36-3.41-4.72 2.05-1.36 6.85 2.18 8.41 3.35 2.29 1.71 5 4.31 5.25 7.12 0.28 3.29-2.67 1.37-4.42 0.75z"/>
		<path class="s3" d="m56.68 304.16c-2.25 0.16-3.52 3.8-5.23 4.92q-0.27 0.24-0.61 0.34-0.35 0.11-0.7 0.07-0.36-0.05-0.67-0.23-0.3-0.19-0.51-0.48c-1.83-2.35 0.43-5.43 2.61-7.19-1.58 0.72-2.86 1.93-4.57 2.32q-0.33 0.12-0.68 0.1-0.36-0.03-0.67-0.2-0.3-0.17-0.52-0.45-0.21-0.28-0.28-0.63c-0.89-3.27 3.2-4.9 6-5.07-1.41-0.91-5.46-3.36-3.41-4.72 2.05-1.36 6.85 2.18 8.41 3.35 2.29 1.71 5 4.31 5.25 7.12 0.28 3.29-2.67 1.37-4.42 0.75z"/>
		<path class="s2" d="m57.35 304.69c-2.93-1.2-8.37 0.89-8.88-0.18-1-2.18 3.31-3.86 5.68-4.25-2.21-0.51-6.45-1.29-6.4-3.41 0.06-2.59 6.43-0.61 9.7 1.71 4.13 2.92 4.21 5.88 3.57 6.5-0.87 0.85-3.19-0.18-3.67-0.37z"/>
		<path class="s1" d="m72.93 335q0.34 2.46 0.78 4.91 0.43 2.45 0.96 4.88 0.52 2.43 1.14 4.84 0.61 2.41 1.32 4.79 0.06 0.19 0.22 0.31 0.17 0.11 0.37 0.08 0.2-0.04 0.32-0.21 0.11-0.17 0.07-0.37c-0.87-6-2.49-11.86-3.38-17.85q-0.36-2.27-0.6-4.55-0.25-2.29-0.37-4.58-0.13-2.3-0.13-4.6-0.01-2.29 0.1-4.59c0.57-10.09 3.31-20.83 9.89-28.72 0.14-0.19-0.16-0.45-0.31-0.28-13.31 15.4-11.18 34.24-11.16 35.94-1.87-6.36-3.79-13.65-10.85-20.13-0.31-0.28-0.54-0.15-0.49 0.33 1.26 11.8 4.54 18 11.38 24.27q0.29 2.8 0.74 5.53z"/>
		<path class="s2" d="m83.65 291.14c2.37-1.06 5.64 2 8 2.17q0.4 0.09 0.8 0.01 0.4-0.08 0.74-0.32 0.33-0.23 0.55-0.58 0.21-0.35 0.26-0.76c0.59-3.39-3.39-5.3-6.56-5.9 2-0.13 4 0.41 5.92-0.12q0.4-0.06 0.75-0.27 0.34-0.22 0.56-0.56 0.22-0.34 0.28-0.75 0.06-0.4-0.05-0.79c-0.9-3.81-5.9-3.27-8.9-1.89 0.94-1.69 3.73-6.38 0.91-6.65-2.82-0.27-5.79 5.93-6.74 8-1.4 3-2.79 7.12-1.48 10.09 1.54 3.45 3.51-0.1 4.96-1.68z"/>
		<path class="s3" d="m83.65 291.14c2.37-1.06 5.64 2 8 2.17q0.4 0.09 0.8 0.01 0.4-0.08 0.74-0.32 0.33-0.23 0.55-0.58 0.21-0.35 0.26-0.76c0.59-3.39-3.39-5.3-6.56-5.9 2-0.13 4 0.41 5.92-0.12q0.4-0.06 0.75-0.27 0.34-0.22 0.56-0.56 0.22-0.34 0.28-0.75 0.06-0.4-0.05-0.79c-0.9-3.81-5.9-3.27-8.9-1.89 0.94-1.69 3.73-6.38 0.91-6.65-2.82-0.27-5.79 5.93-6.74 8-1.4 3-2.79 7.12-1.48 10.09 1.54 3.45 3.51-0.1 4.96-1.68z"/>
		<path class="s2" d="m83.25 292c2.33-2.8 9-3.63 8.94-5-0.12-2.77-5.47-2.13-8.09-1.23 2-1.73 5.86-4.82 4.67-6.95-1.47-2.6-6.88 2.87-9 7-2.61 5.21-1.09 8.28-0.1 8.56 1.4 0.43 3.2-1.88 3.58-2.38z"/>
		<path class="s2" d="m64.25 338.58l-5.81 44.42h35.37c-0.72-3.93-7.31-44.46-7.31-44.46z"/>
	</g>
	<g id="freepik--Floor--inject-54">
		<path class="s4" d="m43.37 383.14l51.66-0.24 51.66-0.09 103.31-0.17 103.31 0.17 51.66 0.09 51.66 0.24-51.66 0.25-51.66 0.09-103.31 0.16-103.31-0.16-51.66-0.09-51.66-0.25z"/>
	</g>
	<g id="freepik--Shadow--inject-54">
		<path class="s0" d="m250 470.12c-82.43 0-149.06-9.42-149.06-21.08 0-11.66 66.63-21.08 149.06-21.08 82.43 0 149.06 9.42 149.06 21.08 0 11.66-66.63 21.08-149.06 21.08z"/>
	</g>
	<g id="freepik--404-error--inject-54">
		<path class="s1" d="m157.57 227.67l-6.21-24.43-49 12.47-6.48-25.5 39.12-89.32 19.47-4.89 18.9 74.36 15.69-4 6.53 25.64-15.69 4 6.2 24.43zm-33.57-44.8l24.26-6.17-8-31.56z"/>
		<path class="s1" d="m298 146.12q0.03 2.85-0.19 5.69-0.22 2.84-0.68 5.65-0.46 2.8-1.16 5.56-0.71 2.76-1.65 5.45-0.84 2.42-1.91 4.75-1.06 2.33-2.33 4.55-1.28 2.23-2.75 4.32-1.47 2.1-3.13 4.05-1.57 1.83-3.32 3.48-1.75 1.66-3.67 3.12-1.91 1.46-3.97 2.71-2.06 1.25-4.24 2.28-2.22 1.04-4.55 1.83-2.32 0.78-4.72 1.31-2.4 0.52-4.84 0.77-2.44 0.25-4.89 0.23-2.47 0.02-4.93-0.23-2.46-0.25-4.87-0.78-2.41-0.52-4.76-1.3-2.34-0.79-4.58-1.83-2.19-1.03-4.26-2.28-2.06-1.25-3.99-2.71-1.92-1.46-3.68-3.11-1.76-1.66-3.34-3.49-1.65-1.95-3.11-4.04-1.47-2.1-2.73-4.32-1.25-2.23-2.3-4.56-1.04-2.33-1.86-4.75-0.92-2.69-1.61-5.45-0.69-2.76-1.14-5.57-0.45-2.81-0.66-5.65-0.21-2.84-0.18-5.68-0.03-2.85 0.18-5.68 0.21-2.84 0.66-5.65 0.45-2.81 1.14-5.58 0.69-2.76 1.61-5.45 0.82-2.42 1.86-4.75 1.05-2.33 2.31-4.55 1.25-2.22 2.72-4.32 1.46-2.09 3.11-4.04 1.58-1.84 3.34-3.5 1.76-1.66 3.69-3.13 1.92-1.48 3.99-2.74 2.06-1.27 4.25-2.31 2.23-1.06 4.57-1.86 2.34-0.81 4.76-1.34 2.42-0.53 4.88-0.79 2.46-0.26 4.93-0.24 2.46-0.02 4.9 0.24 2.44 0.26 4.84 0.79 2.4 0.53 4.72 1.34 2.32 0.8 4.54 1.86 2.17 1.05 4.23 2.32 2.05 1.26 3.96 2.73 1.92 1.48 3.67 3.14 1.75 1.66 3.32 3.49 1.66 1.95 3.13 4.05 1.47 2.09 2.75 4.31 1.27 2.22 2.33 4.55 1.07 2.33 1.91 4.75 0.94 2.69 1.65 5.45 0.71 2.76 1.17 5.57 0.47 2.81 0.69 5.65 0.22 2.84 0.19 5.69zm-29.62 0q0-12.88-5.15-20.88-5.15-8-13.25-8-8.46 0-13.52 8-5.06 8-5.06 20.88 0 12.88 5.06 20.79 5.06 7.91 13.54 7.91 8.1 0 13.25-7.91 5.15-7.91 5.15-20.79z"/>
		<path class="s1" d="m350.84 223l4-24.88-49.91-8.12 4.21-26 71.5-66.33 19.8 3.21-12.27 75.74 16 2.59-4.23 26.15-16-2.59-4 24.88zm-13-54.47l24.7 4 5.21-32.15z"/>
		<path class="s1" d="m208.68 72.46q-0.73 0.01-1.46-0.06-0.73-0.08-1.45-0.23-0.72-0.16-1.41-0.39-0.7-0.24-1.36-0.55-0.62-0.29-1.22-0.65-0.59-0.35-1.14-0.77-0.56-0.41-1.07-0.87-0.51-0.47-0.97-0.98-0.91-1.02-1.63-2.2-0.72-1.17-1.21-2.45-0.5-1.28-0.75-2.63-0.26-1.35-0.27-2.72 0-0.71 0.06-1.41 0.07-0.7 0.2-1.39 0.14-0.7 0.34-1.37 0.2-0.68 0.47-1.33 0.26-0.64 0.58-1.26 0.31-0.61 0.68-1.19 0.37-0.59 0.8-1.14 0.42-0.54 0.89-1.05 0.47-0.51 0.99-0.96 0.52-0.46 1.08-0.87 0.56-0.4 1.16-0.75 0.6-0.34 1.23-0.63 0.66-0.3 1.35-0.53 0.69-0.22 1.39-0.37 0.71-0.15 1.43-0.23 0.73-0.07 1.45-0.06 0.73-0.01 1.46 0.07 0.73 0.07 1.45 0.23 0.72 0.16 1.41 0.41 0.69 0.24 1.35 0.56 0.62 0.3 1.2 0.67 0.58 0.36 1.13 0.77 0.55 0.42 1.05 0.89 0.5 0.47 0.96 0.98 0.46 0.52 0.87 1.07 0.4 0.56 0.76 1.15 0.36 0.59 0.66 1.21 0.3 0.62 0.54 1.26 0.51 1.29 0.77 2.65 0.26 1.36 0.26 2.75 0 1.39-0.26 2.75-0.26 1.36-0.77 2.65-0.25 0.64-0.57 1.25-0.31 0.61-0.67 1.19-0.37 0.58-0.79 1.12-0.41 0.55-0.88 1.05-0.47 0.5-0.99 0.96-0.51 0.45-1.07 0.86-0.56 0.4-1.16 0.74-0.59 0.35-1.22 0.63-0.66 0.3-1.36 0.52-0.69 0.23-1.4 0.37-0.71 0.15-1.44 0.22-0.72 0.07-1.45 0.06zm-8.33-14.54q0 0.46 0.03 0.91 0.04 0.46 0.11 0.91 0.07 0.45 0.18 0.89 0.11 0.45 0.25 0.88 0.13 0.42 0.3 0.82 0.17 0.4 0.38 0.79 0.2 0.39 0.45 0.75 0.24 0.37 0.51 0.71 0.27 0.33 0.56 0.64 0.3 0.3 0.63 0.57 0.33 0.27 0.69 0.5 0.36 0.24 0.74 0.43 0.41 0.21 0.84 0.36 0.43 0.16 0.88 0.26 0.45 0.1 0.9 0.15 0.46 0.05 0.92 0.04 0.46 0.01 0.92-0.04 0.47-0.05 0.92-0.15 0.45-0.11 0.88-0.27 0.44-0.16 0.85-0.37 0.38-0.2 0.74-0.44 0.36-0.24 0.69-0.52 0.33-0.28 0.63-0.59 0.3-0.31 0.57-0.65 0.27-0.35 0.51-0.71 0.23-0.37 0.44-0.76 0.2-0.39 0.36-0.8 0.17-0.4 0.3-0.82 0.28-0.86 0.43-1.75 0.14-0.89 0.14-1.8 0-0.9-0.14-1.79-0.15-0.89-0.43-1.75-0.14-0.42-0.31-0.82-0.17-0.4-0.38-0.79-0.21-0.38-0.45-0.75-0.24-0.37-0.51-0.71-0.27-0.33-0.57-0.63-0.3-0.3-0.63-0.57-0.33-0.27-0.69-0.5-0.36-0.23-0.74-0.42-0.83-0.4-1.73-0.61-0.89-0.2-1.82-0.2-0.92 0-1.81 0.2-0.9 0.21-1.73 0.61-0.38 0.2-0.74 0.44-0.36 0.23-0.69 0.51-0.33 0.27-0.63 0.58-0.3 0.31-0.57 0.65-0.26 0.34-0.5 0.71-0.23 0.37-0.43 0.75-0.2 0.39-0.37 0.79-0.16 0.4-0.29 0.82-0.14 0.43-0.25 0.87-0.11 0.43-0.18 0.88-0.08 0.44-0.12 0.89-0.04 0.45-0.04 0.9z"/>
		<path class="s1" d="m236.23 72.66q-0.6 0.01-1.19-0.04-0.6-0.05-1.18-0.16-0.59-0.11-1.16-0.29-0.57-0.17-1.12-0.4-0.49-0.21-0.96-0.46-0.47-0.26-0.91-0.56-0.44-0.3-0.85-0.65-0.4-0.34-0.77-0.73-0.36-0.38-0.68-0.79-0.32-0.41-0.6-0.85-0.27-0.44-0.51-0.9-0.23-0.47-0.42-0.95-0.38-1-0.57-2.06-0.19-1.05-0.19-2.13 0-1.07 0.19-2.12 0.19-1.06 0.57-2.06 0.19-0.49 0.42-0.95 0.23-0.47 0.51-0.91 0.28-0.45 0.6-0.86 0.32-0.41 0.68-0.79 0.37-0.39 0.77-0.73 0.41-0.35 0.85-0.65 0.44-0.3 0.91-0.56 0.47-0.25 0.96-0.46 0.55-0.23 1.12-0.4 0.57-0.18 1.16-0.29 0.58-0.11 1.18-0.16 0.59-0.05 1.19-0.04 0.59-0.01 1.18 0.04 0.59 0.05 1.18 0.16 0.58 0.11 1.15 0.29 0.56 0.17 1.11 0.4 0.49 0.21 0.96 0.46 0.46 0.26 0.9 0.56 0.44 0.3 0.84 0.65 0.4 0.34 0.77 0.73 0.36 0.38 0.68 0.79 0.32 0.41 0.6 0.85 0.27 0.44 0.51 0.9 0.23 0.47 0.42 0.95 0.38 1 0.57 2.06 0.19 1.05 0.19 2.13 0 1.07-0.19 2.12-0.19 1.06-0.57 2.06-0.19 0.48-0.42 0.95-0.23 0.46-0.5 0.9-0.28 0.44-0.59 0.85-0.32 0.41-0.67 0.79-0.37 0.39-0.77 0.73-0.41 0.35-0.85 0.65-0.43 0.3-0.9 0.56-0.47 0.25-0.96 0.46-0.55 0.23-1.12 0.41-0.57 0.17-1.15 0.29-0.59 0.11-1.18 0.17-0.59 0.05-1.19 0.04zm-5.54-10.94q0 0.33 0.02 0.65 0.02 0.33 0.08 0.65 0.05 0.32 0.14 0.64 0.08 0.31 0.19 0.62 0.1 0.27 0.22 0.54 0.12 0.26 0.27 0.52 0.15 0.25 0.32 0.48 0.17 0.24 0.36 0.46 0.18 0.21 0.37 0.39 0.2 0.19 0.42 0.36 0.21 0.16 0.44 0.3 0.23 0.14 0.48 0.26 0.52 0.23 1.07 0.35 0.55 0.12 1.12 0.12 0.56 0 1.11-0.12 0.55-0.12 1.07-0.35 0.25-0.11 0.49-0.25 0.24-0.14 0.46-0.31 0.22-0.17 0.42-0.35 0.2-0.19 0.38-0.4 0.19-0.22 0.36-0.46 0.17-0.23 0.32-0.49 0.15-0.25 0.27-0.51 0.13-0.27 0.23-0.54 0.11-0.31 0.19-0.63 0.08-0.32 0.13-0.65 0.06-0.32 0.08-0.65 0.02-0.33 0.02-0.66 0-0.32-0.02-0.65-0.03-0.32-0.08-0.64-0.05-0.32-0.13-0.63-0.08-0.31-0.19-0.62-0.1-0.27-0.23-0.54-0.12-0.26-0.27-0.51-0.15-0.26-0.32-0.49-0.17-0.24-0.36-0.46-0.18-0.21-0.38-0.4-0.2-0.18-0.42-0.35-0.22-0.17-0.46-0.31-0.24-0.14-0.49-0.25-0.26-0.12-0.52-0.21-0.27-0.08-0.54-0.14-0.28-0.06-0.56-0.09-0.28-0.03-0.56-0.03-0.28 0-0.57 0.03-0.28 0.03-0.55 0.09-0.28 0.06-0.55 0.15-0.26 0.1-0.52 0.22-0.25 0.12-0.49 0.26-0.23 0.15-0.45 0.32-0.22 0.16-0.43 0.35-0.2 0.19-0.38 0.4-0.19 0.22-0.36 0.46-0.17 0.23-0.32 0.48-0.15 0.26-0.27 0.52-0.12 0.27-0.22 0.54-0.1 0.3-0.18 0.62-0.08 0.31-0.13 0.63-0.05 0.32-0.07 0.64-0.02 0.32-0.01 0.64z"/>
		<path class="s1" d="m263.61 72.66q-0.57 0.01-1.14-0.05-0.56-0.06-1.12-0.21-0.55-0.14-1.08-0.35-0.53-0.22-1.02-0.5-0.46-0.27-0.87-0.6-0.42-0.32-0.79-0.7-0.37-0.38-0.68-0.81-0.32-0.43-0.57-0.89v12.31h-5.41v-29.77h4.73v3.64q0.28-0.45 0.61-0.87 0.33-0.41 0.71-0.78 0.38-0.37 0.8-0.69 0.42-0.32 0.88-0.59 0.49-0.28 1.02-0.48 0.53-0.21 1.08-0.35 0.55-0.13 1.11-0.19 0.56-0.07 1.13-0.05 0.52-0.01 1.03 0.05 0.51 0.05 1.02 0.16 0.5 0.11 0.99 0.27 0.49 0.17 0.96 0.39 0.44 0.21 0.87 0.47 0.42 0.25 0.81 0.54 0.4 0.3 0.76 0.63 0.36 0.33 0.69 0.7 0.33 0.38 0.63 0.79 0.3 0.41 0.56 0.85 0.26 0.44 0.48 0.89 0.22 0.46 0.39 0.94 0.19 0.51 0.33 1.03 0.14 0.52 0.23 1.05 0.09 0.53 0.14 1.06 0.04 0.54 0.04 1.08 0 0.55-0.04 1.1-0.04 0.55-0.12 1.09-0.09 0.55-0.22 1.08-0.13 0.54-0.3 1.06-0.16 0.48-0.36 0.94-0.2 0.46-0.44 0.9-0.24 0.44-0.52 0.86-0.28 0.42-0.6 0.81-0.3 0.37-0.63 0.7-0.34 0.33-0.71 0.63-0.37 0.29-0.77 0.55-0.4 0.25-0.82 0.46-0.44 0.22-0.9 0.38-0.46 0.17-0.94 0.27-0.48 0.11-0.97 0.16-0.49 0.05-0.98 0.04zm-1.81-4.6q0.29 0 0.58-0.03 0.29-0.03 0.57-0.1 0.28-0.07 0.56-0.17 0.27-0.1 0.53-0.23 0.25-0.13 0.49-0.28 0.24-0.16 0.46-0.33 0.22-0.18 0.42-0.38 0.2-0.2 0.38-0.42 0.19-0.23 0.35-0.47 0.17-0.25 0.31-0.51 0.15-0.26 0.27-0.53 0.12-0.27 0.21-0.55 0.1-0.29 0.18-0.59 0.07-0.3 0.12-0.61 0.05-0.3 0.08-0.61 0.02-0.31 0.02-0.62 0-0.32-0.03-0.63-0.02-0.32-0.08-0.63-0.05-0.31-0.14-0.62-0.08-0.3-0.19-0.6-0.11-0.28-0.24-0.54-0.13-0.27-0.28-0.52-0.16-0.25-0.34-0.49-0.18-0.23-0.38-0.45-0.2-0.21-0.41-0.4-0.22-0.19-0.45-0.36-0.24-0.17-0.49-0.31-0.25-0.14-0.51-0.26-0.27-0.12-0.56-0.22-0.28-0.09-0.57-0.15-0.3-0.07-0.59-0.09-0.3-0.03-0.6-0.03-0.2 0-0.4 0.02-0.2 0.02-0.4 0.05-0.19 0.04-0.39 0.08-0.19 0.05-0.38 0.12-0.2 0.06-0.4 0.14-0.19 0.08-0.38 0.17-0.19 0.1-0.37 0.2-0.18 0.11-0.35 0.23-0.17 0.12-0.33 0.25-0.17 0.13-0.32 0.28-0.16 0.14-0.3 0.29-0.14 0.15-0.28 0.31-0.13 0.16-0.25 0.33-0.12 0.17-0.23 0.34-0.1 0.18-0.19 0.37-0.09 0.19-0.16 0.38v5q0.18 0.44 0.41 0.85 0.23 0.41 0.51 0.79 0.28 0.38 0.6 0.72 0.33 0.34 0.7 0.64 0.34 0.28 0.72 0.5 0.38 0.22 0.8 0.37 0.41 0.14 0.85 0.22 0.43 0.08 0.87 0.08z"/>
		<path class="s1" d="m284.54 72.66q-0.66 0-1.32-0.05-0.67-0.05-1.32-0.16-0.65-0.11-1.3-0.27-0.64-0.16-1.27-0.37-0.59-0.19-1.17-0.44-0.57-0.25-1.11-0.56-0.55-0.3-1.06-0.66-0.51-0.35-0.99-0.76l2-3.39q0.44 0.32 0.9 0.6 0.45 0.29 0.93 0.55 0.47 0.26 0.96 0.5 0.49 0.23 0.99 0.43 0.44 0.17 0.89 0.3 0.45 0.13 0.91 0.22 0.46 0.09 0.92 0.13 0.47 0.05 0.94 0.05 0.33 0.02 0.66-0.01 0.33-0.03 0.65-0.11 0.33-0.07 0.63-0.2 0.31-0.12 0.6-0.28 0.22-0.14 0.4-0.33 0.17-0.19 0.29-0.42 0.13-0.23 0.19-0.48 0.06-0.25 0.05-0.51 0.01-0.27-0.07-0.52-0.07-0.25-0.22-0.48-0.14-0.22-0.35-0.38-0.2-0.17-0.45-0.27-0.43-0.19-0.87-0.36-0.44-0.17-0.88-0.32-0.45-0.15-0.9-0.29-0.45-0.13-0.9-0.25-2.07-0.56-3.52-1.09-0.31-0.1-0.62-0.23-0.3-0.13-0.59-0.28-0.3-0.15-0.58-0.32-0.28-0.17-0.55-0.36-0.21-0.15-0.39-0.32-0.19-0.17-0.35-0.36-0.17-0.2-0.3-0.41-0.14-0.21-0.25-0.44-0.11-0.24-0.19-0.5-0.08-0.26-0.13-0.52-0.05-0.26-0.07-0.53-0.03-0.26-0.02-0.53-0.01-0.38 0.03-0.75 0.04-0.37 0.12-0.74 0.08-0.37 0.2-0.72 0.12-0.36 0.28-0.7 0.15-0.32 0.34-0.62 0.19-0.3 0.41-0.58 0.23-0.28 0.48-0.53 0.25-0.25 0.53-0.47 0.29-0.23 0.61-0.44 0.31-0.21 0.65-0.38 0.33-0.18 0.67-0.32 0.35-0.15 0.71-0.26 0.4-0.12 0.81-0.21 0.4-0.1 0.82-0.16 0.41-0.06 0.83-0.09 0.41-0.02 0.83-0.02 0.57 0 1.13 0.04 0.57 0.04 1.13 0.12 0.56 0.09 1.12 0.22 0.55 0.13 1.09 0.3 0.53 0.18 1.03 0.41 0.51 0.23 0.99 0.51 0.48 0.28 0.93 0.61 0.45 0.33 0.86 0.7l-2.18 3.27q-0.36-0.28-0.73-0.53-0.38-0.25-0.77-0.47-0.39-0.23-0.8-0.42-0.41-0.2-0.83-0.36-0.36-0.14-0.73-0.24-0.37-0.11-0.74-0.18-0.38-0.07-0.76-0.11-0.39-0.04-0.77-0.04-0.3-0.01-0.6 0.02-0.3 0.03-0.59 0.1-0.29 0.08-0.57 0.19-0.28 0.11-0.54 0.26-0.23 0.14-0.41 0.34-0.18 0.2-0.31 0.44-0.12 0.24-0.17 0.51-0.06 0.26-0.04 0.53 0 0.12 0.01 0.24 0.01 0.12 0.04 0.24 0.03 0.12 0.07 0.23 0.04 0.11 0.1 0.22 0.07 0.1 0.15 0.19 0.08 0.09 0.16 0.17 0.09 0.09 0.19 0.15 0.1 0.07 0.21 0.13 0.15 0.08 0.31 0.16 0.15 0.08 0.31 0.15 0.16 0.06 0.32 0.13 0.17 0.06 0.33 0.11 0.78 0.26 2 0.54 2.18 0.57 3.74 1.14 0.33 0.12 0.65 0.25 0.32 0.14 0.63 0.31 0.31 0.16 0.61 0.34 0.3 0.19 0.58 0.39 0.23 0.16 0.44 0.35 0.21 0.18 0.39 0.4 0.19 0.21 0.34 0.44 0.16 0.23 0.29 0.48 0.12 0.27 0.22 0.56 0.09 0.28 0.14 0.58 0.06 0.29 0.09 0.59 0.02 0.3 0.01 0.6 0.03 0.71-0.11 1.4-0.14 0.69-0.44 1.33-0.3 0.64-0.75 1.2-0.44 0.55-1 0.98-0.68 0.47-1.43 0.82-0.76 0.35-1.55 0.58-0.8 0.22-1.63 0.31-0.82 0.09-1.65 0.04z"/>
		<path class="s1" d="m297.67 61.47v-18.18h5.41v18.18zm0 10.79v-6.1h5.41v6.1z"/>
	</g>
	<g id="freepik--Robot--inject-54">
		<path class="s5" d="m235.09 313.85h35.51v2.91h-35.51z"/>
		<path class="s5" d="m235.09 317.63h35.51v2.91h-35.51z"/>
		<path class="s5" d="m235.09 321.42h35.51v2.91h-35.51z"/>
		<path class="s5" d="m235.09 325.21h35.51v2.91h-35.51z"/>
		<path class="s5" d="m235.09 329h35.51v2.91h-35.51z"/>
		<path class="s5" d="m218.46 404.59h67.52v2.91h-67.52z"/>
		<path class="s5" d="m218.46 408.38h67.52v2.91h-67.52z"/>
		<path class="s5" d="m218.46 412.17h67.52v2.91h-67.52z"/>
		<path class="s5" d="m218.46 415.96h67.52v2.91h-67.52z"/>
		<path class="s5" d="m218.46 419.75h67.52v2.91h-67.52z"/>
		<path class="s2" d="m188.83 289.8c0-0.39-14.77-5.36-14.77-5.36l0.87-50.88 19.64-4.22z"/>
		<path class="s6" d="m188.83 289.8c0-0.39-14.77-5.36-14.77-5.36l0.87-50.88 19.64-4.22z"/>
		<path class="s2" d="m324.49 309.77c0.1-0.38 15.72 0.06 15.72 0.06l16.69-48.08-17-10.71z"/>
		<path class="s6" d="m324.49 309.77c0.1-0.38 15.72 0.06 15.72 0.06l16.69-48.08-17-10.71z"/>
		<path class="s2" d="m186 308.54c0 0 5.49-82.3 10.31-109.38 0 0 99.42 7.52 153.09 28 0 0-27.67 96.12-29.1 100.89-0.02 0.04-70.03-13.75-134.3-19.51z"/>
		<path class="s3" d="m274.72 210.15q-2.42 14.86-4.94 29.72l-5.13 29.67-0.27-0.41 33.31 7.87 16.64 4 16.61 4.11-16.7-3.74-16.69-3.81-33.34-7.79-0.34-0.08 0.06-0.34 5.31-29.65q2.67-14.7 5.48-29.55z"/>
		<path class="s3" d="m271.07 215.8q-0.01 0.36-0.14 0.69-0.13 0.34-0.37 0.61-0.25 0.26-0.56 0.43-0.32 0.16-0.68 0.21-0.2 0.02-0.39-0.01-0.2-0.02-0.39-0.08-0.19-0.07-0.36-0.16-0.17-0.1-0.32-0.23-0.15-0.14-0.28-0.31-0.12-0.16-0.2-0.35-0.09-0.19-0.13-0.39-0.05-0.2-0.05-0.41 0-0.21 0.05-0.41 0.04-0.2 0.13-0.39 0.08-0.19 0.2-0.35 0.13-0.17 0.28-0.31 0.43-0.37 0.99-0.45 0.57-0.08 1.08 0.15 0.52 0.24 0.83 0.71 0.3 0.48 0.31 1.05zm0 0q0-0.17-0.04-0.33-0.04-0.17-0.11-0.32-0.07-0.16-0.17-0.29-0.1-0.14-0.23-0.25c-0.47-0.4-1.12-0.49-1.68-0.23-0.55 0.26-0.91 0.81-0.91 1.42 0 0.62 0.36 1.17 0.91 1.43 0.56 0.26 1.21 0.17 1.68-0.23q0.13-0.11 0.23-0.25 0.1-0.14 0.17-0.29 0.07-0.16 0.11-0.32 0.04-0.17 0.04-0.34z"/>
		<path class="s3" d="m269.32 228.05q0 0.36-0.13 0.7-0.13 0.33-0.37 0.6-0.24 0.27-0.56 0.43-0.32 0.16-0.68 0.2-0.41 0.04-0.8-0.09-0.39-0.12-0.69-0.4-0.31-0.28-0.47-0.65-0.16-0.38-0.16-0.79 0-0.21 0.04-0.41 0.04-0.2 0.13-0.39 0.08-0.19 0.2-0.36 0.13-0.16 0.28-0.3 0.15-0.13 0.32-0.23 0.18-0.1 0.37-0.16 0.19-0.06 0.38-0.08 0.2-0.03 0.4-0.01 0.36 0.05 0.67 0.21 0.32 0.17 0.56 0.44 0.24 0.26 0.37 0.6 0.13 0.33 0.14 0.69zm0 0q0-0.17-0.04-0.34-0.03-0.16-0.11-0.32-0.07-0.15-0.17-0.29-0.1-0.14-0.23-0.25-0.12-0.1-0.26-0.18-0.14-0.08-0.3-0.12-0.15-0.05-0.31-0.06-0.16-0.02-0.32 0c-0.38 0.04-0.74 0.23-0.99 0.51-0.26 0.29-0.4 0.66-0.4 1.05 0 0.39 0.14 0.76 0.4 1.05 0.25 0.28 0.61 0.47 0.99 0.51q0.33 0.04 0.65-0.06 0.32-0.1 0.57-0.33 0.25-0.22 0.39-0.53 0.13-0.3 0.13-0.64z"/>
		<path class="s3" d="m267.17 241q0 0.36-0.13 0.7-0.13 0.33-0.37 0.6-0.24 0.27-0.56 0.43-0.32 0.16-0.68 0.2-0.61 0.01-1.12-0.32-0.51-0.33-0.76-0.89-0.24-0.56-0.13-1.16 0.12-0.59 0.54-1.03 0.15-0.13 0.32-0.23 0.18-0.09 0.37-0.15 0.19-0.06 0.38-0.09 0.2-0.02 0.4 0 0.36 0.04 0.68 0.2 0.32 0.17 0.56 0.43 0.24 0.27 0.37 0.61 0.13 0.34 0.13 0.7zm0 0q0-0.17-0.04-0.34-0.03-0.16-0.11-0.32-0.07-0.15-0.17-0.29-0.1-0.14-0.23-0.25-0.12-0.1-0.26-0.18-0.14-0.08-0.3-0.12-0.15-0.05-0.31-0.06-0.16-0.02-0.32 0c-0.38 0.04-0.74 0.23-0.99 0.51-0.26 0.29-0.4 0.66-0.4 1.05 0 0.39 0.14 0.76 0.4 1.05 0.25 0.28 0.61 0.47 0.99 0.51q0.16 0.01 0.32 0 0.16-0.02 0.31-0.07 0.16-0.04 0.3-0.12 0.14-0.08 0.26-0.18 0.13-0.11 0.23-0.25 0.1-0.13 0.18-0.28 0.07-0.16 0.1-0.32 0.04-0.17 0.04-0.34z"/>
		<path class="s3" d="m265 253.93q0 0.36-0.13 0.7-0.13 0.33-0.37 0.6-0.24 0.27-0.56 0.43-0.32 0.16-0.68 0.2c-0.54 0.04-1.07-0.15-1.46-0.51-0.4-0.37-0.62-0.89-0.62-1.42 0-0.54 0.22-1.06 0.62-1.43 0.39-0.36 0.92-0.55 1.46-0.51q0.36 0.04 0.68 0.2 0.32 0.17 0.56 0.43 0.24 0.27 0.37 0.61 0.13 0.34 0.13 0.7zm0 0q0-0.17-0.04-0.34-0.03-0.16-0.11-0.32-0.07-0.15-0.17-0.29-0.1-0.14-0.23-0.25-0.12-0.1-0.26-0.18-0.14-0.08-0.3-0.12-0.15-0.05-0.31-0.06-0.16-0.02-0.32 0c-0.38 0.04-0.74 0.23-0.99 0.51-0.26 0.29-0.4 0.66-0.4 1.05 0 0.39 0.14 0.76 0.4 1.05 0.25 0.28 0.61 0.47 0.99 0.51q0.16 0.01 0.32 0 0.16-0.02 0.31-0.07 0.16-0.04 0.3-0.12 0.14-0.08 0.26-0.18 0.13-0.11 0.23-0.25 0.1-0.13 0.17-0.29 0.07-0.15 0.11-0.32 0.04-0.16 0.04-0.33z"/>
		<path class="s3" d="m272.35 274.56c0 0.8-0.49 1.52-1.24 1.81-0.75 0.29-1.6 0.09-2.14-0.51-0.54-0.59-0.65-1.45-0.29-2.17 0.36-0.72 1.12-1.14 1.92-1.06q0.36 0.04 0.68 0.2 0.32 0.16 0.57 0.43 0.24 0.27 0.37 0.6 0.13 0.34 0.13 0.7zm0 0q0-0.17-0.04-0.34-0.04-0.16-0.11-0.32-0.07-0.15-0.17-0.29-0.1-0.14-0.23-0.25-0.12-0.1-0.27-0.18-0.14-0.07-0.29-0.12-0.16-0.05-0.32-0.06-0.16-0.02-0.32 0c-0.49 0.06-0.93 0.35-1.17 0.78-0.25 0.43-0.28 0.95-0.08 1.4 0.2 0.46 0.6 0.79 1.08 0.91 0.48 0.11 0.99-0.01 1.37-0.33q0.13-0.11 0.23-0.25 0.1-0.14 0.17-0.29 0.07-0.16 0.11-0.32 0.04-0.17 0.04-0.34z"/>
		<path class="s3" d="m284.56 277.54q-0.01 0.57-0.31 1.05-0.31 0.47-0.83 0.71-0.51 0.23-1.08 0.15-0.56-0.08-0.99-0.45-0.31-0.28-0.49-0.66-0.17-0.38-0.17-0.8 0-0.42 0.17-0.8 0.18-0.38 0.49-0.66 0.15-0.13 0.32-0.22 0.18-0.1 0.36-0.16 0.19-0.06 0.39-0.08 0.19-0.03 0.39-0.01 0.36 0.03 0.68 0.2 0.33 0.16 0.57 0.43 0.24 0.26 0.37 0.6 0.13 0.34 0.13 0.7zm0 0q0-0.17-0.04-0.34-0.03-0.16-0.11-0.32-0.07-0.15-0.17-0.29-0.1-0.14-0.23-0.25-0.12-0.1-0.27-0.18-0.14-0.07-0.29-0.12-0.16-0.05-0.32-0.06-0.16-0.02-0.32 0c-0.49 0.06-0.93 0.35-1.17 0.78-0.25 0.43-0.28 0.95-0.08 1.4 0.2 0.46 0.6 0.79 1.08 0.91 0.48 0.11 0.99-0.01 1.37-0.33q0.13-0.11 0.23-0.25 0.1-0.14 0.17-0.29 0.08-0.16 0.11-0.32 0.04-0.17 0.04-0.34z"/>
		<path class="s3" d="m296.77 280.52q0 0.57-0.3 1.05-0.31 0.47-0.83 0.71-0.52 0.24-1.08 0.16-0.56-0.09-0.99-0.46-0.15-0.14-0.28-0.31-0.12-0.16-0.2-0.35-0.09-0.19-0.13-0.39-0.05-0.2-0.05-0.41 0-0.21 0.04-0.41 0.04-0.2 0.13-0.39 0.08-0.19 0.2-0.36 0.13-0.16 0.28-0.3 0.15-0.13 0.32-0.23 0.18-0.09 0.37-0.15 0.19-0.06 0.38-0.09 0.2-0.02 0.4 0 0.36 0.04 0.68 0.2 0.32 0.16 0.56 0.43 0.24 0.27 0.37 0.6 0.13 0.34 0.13 0.7zm0 0q0-0.17-0.03-0.34-0.04-0.16-0.11-0.32-0.07-0.15-0.17-0.29-0.1-0.14-0.23-0.25-0.13-0.1-0.28-0.17-0.14-0.07-0.3-0.11-0.16-0.05-0.32-0.05-0.17-0.01-0.33 0.01c-0.38 0.04-0.74 0.23-0.99 0.51-0.26 0.29-0.4 0.66-0.4 1.05 0 0.39 0.14 0.76 0.4 1.05 0.25 0.28 0.61 0.47 0.99 0.51q0.16 0.02 0.32 0 0.16-0.01 0.32-0.06 0.15-0.05 0.29-0.12 0.15-0.08 0.27-0.18 0.14-0.11 0.24-0.25 0.11-0.14 0.18-0.31 0.08-0.16 0.12-0.33 0.03-0.17 0.03-0.35z"/>
		<path class="s3" d="m309 283.5q-0.01 0.57-0.31 1.05-0.31 0.47-0.83 0.71-0.51 0.23-1.08 0.15-0.56-0.08-0.99-0.45-0.15-0.14-0.28-0.31-0.12-0.16-0.2-0.35-0.09-0.19-0.13-0.39-0.05-0.2-0.05-0.41 0-0.21 0.05-0.41 0.04-0.2 0.13-0.39 0.08-0.19 0.2-0.35 0.13-0.17 0.28-0.31 0.15-0.13 0.32-0.23 0.17-0.09 0.36-0.16 0.19-0.06 0.39-0.08 0.19-0.03 0.39-0.01 0.36 0.05 0.68 0.21 0.31 0.17 0.56 0.43 0.24 0.27 0.37 0.61 0.13 0.33 0.14 0.69zm0 0q0-0.17-0.04-0.34-0.04-0.16-0.11-0.32-0.07-0.15-0.17-0.29-0.1-0.14-0.23-0.25c-0.38-0.32-0.89-0.44-1.37-0.33-0.48 0.12-0.88 0.45-1.08 0.91-0.2 0.45-0.17 0.97 0.08 1.4 0.24 0.43 0.68 0.72 1.17 0.78q0.16 0.02 0.32 0 0.16-0.01 0.32-0.06 0.15-0.05 0.29-0.12 0.15-0.08 0.27-0.18 0.13-0.11 0.23-0.25 0.1-0.14 0.17-0.29 0.07-0.16 0.11-0.32 0.04-0.17 0.04-0.34z"/>
		<path class="s3" d="m321.2 286.61q-0.04 0.36-0.2 0.68-0.15 0.32-0.41 0.56-0.26 0.25-0.59 0.39-0.33 0.14-0.69 0.16-0.2 0-0.39-0.03-0.2-0.04-0.38-0.12-0.19-0.07-0.35-0.18-0.17-0.11-0.31-0.25-0.29-0.3-0.43-0.7-0.14-0.39-0.11-0.81 0.03-0.41 0.23-0.78 0.21-0.37 0.54-0.62 0.16-0.12 0.34-0.2 0.18-0.09 0.37-0.14 0.19-0.04 0.39-0.05 0.2 0 0.39 0.03 0.35 0.07 0.66 0.26 0.3 0.19 0.52 0.47 0.22 0.29 0.33 0.63 0.11 0.34 0.09 0.7zm0 0q0.01-0.17-0.01-0.34-0.03-0.17-0.09-0.32-0.06-0.16-0.15-0.31-0.09-0.14-0.21-0.26c-0.43-0.43-1.08-0.57-1.65-0.36-0.58 0.22-0.98 0.74-1.02 1.35-0.05 0.62 0.26 1.2 0.8 1.5 0.54 0.29 1.2 0.25 1.69-0.11q0.14-0.1 0.25-0.23 0.11-0.13 0.19-0.28 0.09-0.14 0.14-0.31 0.05-0.16 0.06-0.33z"/>
		<path class="s3" d="m262.87 266.86q0 0.36-0.13 0.7-0.13 0.34-0.37 0.61-0.24 0.26-0.56 0.43-0.32 0.16-0.68 0.2-0.2 0.02-0.39-0.01-0.2-0.02-0.39-0.08-0.19-0.06-0.36-0.16-0.18-0.09-0.33-0.22-0.48-0.42-0.63-1.04-0.13-0.62 0.11-1.2 0.26-0.58 0.81-0.91 0.55-0.31 1.18-0.25 0.36 0.04 0.68 0.2 0.32 0.16 0.56 0.43 0.24 0.27 0.37 0.6 0.13 0.34 0.13 0.7zm0 0q0-0.17-0.04-0.33-0.04-0.17-0.11-0.32-0.07-0.16-0.17-0.29-0.1-0.14-0.23-0.25c-0.47-0.4-1.12-0.49-1.68-0.23-0.55 0.26-0.91 0.81-0.91 1.42 0 0.62 0.36 1.17 0.91 1.43 0.56 0.26 1.21 0.17 1.68-0.23q0.13-0.11 0.23-0.25 0.1-0.14 0.17-0.29 0.08-0.16 0.11-0.32 0.04-0.17 0.04-0.34z"/>
		<path class="s6" d="m242.31 288.31c-11.61 10.44-29.43 9.49-39.87-2.12-10.44-11.61-9.49-29.43 2.12-39.87 11.61-10.43 29.43-9.49 39.86 2.12 10.44 11.61 9.5 29.43-2.11 39.87z"/>
		<path class="s4" d="m244.6 275.31c-4.43 11.71-17.47 17.59-29.18 13.16-11.71-4.43-17.6-17.48-13.16-29.19 4.43-11.71 17.47-17.59 29.18-13.16 11.71 4.43 17.6 17.48 13.16 29.19z"/>
		<path class="s2" d="m216.78 258.14l5.29 0.86-0.85 5.29-5.3-0.86z"/>
		<path class="s2" d="m212.34 251.99l5.29 0.85-0.85 5.3-5.29-0.86z"/>
		<path class="s2" d="m233.51 255.42l5.29 0.85-0.85 5.3-5.3-0.86z"/>
		<path class="s2" d="m208.93 273.04l5.29 0.86-0.86 5.29-5.29-0.86z"/>
		<path class="s2" d="m230.11 276.47l5.29 0.86-0.86 5.29-5.29-0.86z"/>
		<path class="s2" d="m215.08 268.6l5.29 0.86-0.85 5.29-5.3-0.86z"/>
		<path class="s2" d="m221.22 264.23l5.29 0.86-0.85 5.29-5.3-0.86z"/>
		<path class="s2" d="m227.36 259.85l5.29 0.85-0.85 5.3-5.29-0.86z"/>
		<path class="s2" d="m225.68 270.31l5.29 0.86-0.86 5.29-5.29-0.86z"/>
		<path class="s2" d="m321.03 297.01c-9.9 12.08-27.66 13.84-39.73 3.95-12.08-9.9-13.84-27.66-3.95-39.73 9.9-12.08 27.66-13.84 39.73-3.95 12.08 9.9 13.84 27.66 3.95 39.73z"/>
		<path class="s6" d="m321.03 297.01c-9.9 12.08-27.66 13.84-39.73 3.95-12.08-9.9-13.84-27.66-3.95-39.73 9.9-12.08 27.66-13.84 39.73-3.95 12.08 9.9 13.84 27.66 3.95 39.73z"/>
		<path class="s6" d="m326.66 285.67q-0.2 0.83-0.44 1.63l-55-11.74q0.19-1.51 0.53-2.95c1.62-7.4 6.15-13.84 12.56-17.87 6.42-4.04 14.19-5.32 21.56-3.57 7.37 1.76 13.73 6.4 17.64 12.88 3.92 6.49 5.06 14.28 3.18 21.62z"/>
		<path class="s4" d="m307.93 300c-11.56 4.83-24.8-0.61-29.62-12.16-4.83-11.55 0.6-24.79 12.16-29.62 11.55-4.82 24.79 0.61 29.62 12.16 4.82 11.55-0.61 24.79-12.16 29.62z"/>
		<path class="s2" d="m299.66 265.55l5.22 1.24-6.18 25.97-5.21-1.24z"/>
		<path class="s2" d="m328.3 285.14l-57.8-13.74c1.94-7.54 6.76-14.03 13.42-18.05 6.67-4.03 14.65-5.27 22.23-3.47 7.58 1.8 14.14 6.5 18.29 13.1 4.14 6.59 5.53 14.55 3.86 22.16z"/>
		<path class="s6" d="m328.3 285.14l-57.8-13.74c1.94-7.54 6.76-14.03 13.42-18.05 6.67-4.03 14.65-5.27 22.23-3.47 7.58 1.8 14.14 6.5 18.29 13.1 4.14 6.59 5.53 14.55 3.86 22.16z"/>
		<path class="s3" d="m250.07 295.92q0.05-0.87 0.24-1.73 0.2-0.85 0.53-1.66 0.34-0.81 0.8-1.56 0.46-0.74 1.04-1.4 0.31-0.35 0.67-0.65 0.35-0.31 0.74-0.57 0.39-0.26 0.8-0.48 0.42-0.21 0.86-0.37 0.44-0.15 0.9-0.25 0.46-0.1 0.93-0.16 0.46-0.05 0.93-0.05 0.47 0 0.94 0.05 0.95 0.09 1.85 0.43 0.89 0.34 1.66 0.91 0.77 0.58 1.35 1.34 0.59 0.76 0.94 1.65 0.33 0.81 0.54 1.66 0.2 0.85 0.28 1.72 0.07 0.87 0.02 1.74-0.06 0.88-0.25 1.73-0.11-0.8-0.29-1.6-0.18-0.79-0.43-1.56-0.25-0.77-0.57-1.52-0.32-0.75-0.71-1.46-0.34-0.64-0.83-1.17-0.49-0.54-1.09-0.94-0.61-0.4-1.29-0.64-0.68-0.24-1.4-0.31-0.73-0.1-1.47-0.04-0.74 0.06-1.45 0.26-0.7 0.21-1.36 0.56-0.65 0.35-1.21 0.83-0.59 0.55-1.13 1.15-0.53 0.61-0.99 1.27-0.46 0.66-0.85 1.37-0.39 0.7-0.7 1.45z"/>
		<path class="s7" d="m193.72 238.34c0.23-3 0.57-6 0.86-9 0.29-3 0.65-6 1-9q0.54-4.5 1.12-9c0.38-3 0.81-6 1.22-9l0.1-0.8 0.81 0.05q9.78 0.61 19.51 1.61 4.86 0.5 9.72 1.12 4.86 0.61 9.68 1.48l-19.52-1.2-19.49-1.27 0.91-0.74c-0.44 3-0.85 6-1.32 9-0.47 3-0.92 6-1.42 8.95-0.5 2.95-1 5.95-1.52 8.93-0.52 2.98-1.05 5.91-1.66 8.87z"/>
		<path class="s7" d="m198.41 261.16q0.27-1.37 0.69-2.7 0.42-1.33 0.99-2.6 0.58-1.28 1.29-2.48 0.71-1.2 1.55-2.31c0.55-0.76 1.18-1.46 1.78-2.18 0.6-0.72 1.33-1.33 2-2 0.67-0.67 1.47-1.18 2.22-1.75 0.75-0.57 1.58-1 2.39-1.52 0.81-0.52 1.71-0.83 2.57-1.22l2.68-0.93 2.78-0.57c0.93-0.14 1.87-0.17 2.81-0.24q1.39-0.02 2.78 0.11 1.38 0.12 2.75 0.39 1.36 0.26 2.69 0.66 1.34 0.4 2.62 0.94-1.33-0.28-2.67-0.46-1.34-0.19-2.69-0.28-1.36-0.09-2.71-0.08-1.36 0-2.71 0.1-1.32 0.12-2.63 0.38-1.3 0.26-2.57 0.65-1.27 0.4-2.49 0.92-1.22 0.53-2.38 1.18-1.17 0.65-2.27 1.4-1.1 0.75-2.13 1.6-1.03 0.85-1.98 1.79-0.94 0.94-1.8 1.96-0.88 1.03-1.67 2.13-0.79 1.1-1.49 2.26-0.7 1.16-1.3 2.38-0.6 1.21-1.1 2.47z"/>
		<path class="s7" d="m276.29 268.78q0.46-1.32 1.06-2.58 0.6-1.25 1.34-2.44 0.74-1.18 1.61-2.27 0.87-1.09 1.85-2.08c0.65-0.67 1.37-1.28 2.07-1.91 0.7-0.63 1.5-1.13 2.26-1.69 0.76-0.56 1.61-1 2.44-1.43 0.83-0.43 1.71-0.8 2.58-1.17 0.87-0.37 1.8-0.59 2.7-0.86l2.79-0.55 2.83-0.18c0.94 0 1.88 0.1 2.82 0.16q1.38 0.17 2.74 0.48 1.36 0.31 2.68 0.76 1.32 0.45 2.58 1.03 1.27 0.58 2.47 1.29-1.28-0.46-2.58-0.83-1.31-0.36-2.63-0.64-1.33-0.28-2.67-0.46-1.35-0.18-2.7-0.27-1.33-0.06-2.65 0.01-1.33 0.08-2.64 0.3-1.31 0.21-2.59 0.56-1.28 0.36-2.52 0.84-1.24 0.48-2.43 1.08-1.19 0.59-2.32 1.29-1.13 0.7-2.2 1.49-1.06 0.8-2.05 1.69-1.02 0.9-1.96 1.88-0.94 0.98-1.8 2.03-0.86 1.06-1.63 2.17-0.77 1.12-1.45 2.3z"/>
		<path class="s2" d="m189.14 359.25c-7.23 0-23.06-1.62-33.25-14.72-13-16.76-8.32-48.92-8.12-50.28l5.66 0.86c0 0.31-4.54 31.09 7 45.9 11.26 14.48 31.69 12.41 31.89 12.38l0.65 5.69c-0.25 0.02-1.65 0.17-3.83 0.17z"/>
		<path class="s8" d="m189.14 359.25c-7.23 0-23.06-1.62-33.25-14.72-13-16.76-8.32-48.92-8.12-50.28l5.66 0.86c0 0.31-4.54 31.09 7 45.9 11.26 14.48 31.69 12.41 31.89 12.38l0.65 5.69c-0.25 0.02-1.65 0.17-3.83 0.17z"/>
		<path class="s2" d="m155.1 299q-0.4 0-0.79-0.01-0.4-0.02-0.8-0.05-0.39-0.03-0.78-0.08-0.4-0.05-0.79-0.11c-9.55-1.55-13.77-7.26-15.64-11.78q-2.8-6.79-1.3-16.29l12.1 2c-0.63 3.89-0.44 7.32 0.52 9.65 0.69 1.66 2 3.66 6.26 4.35 1.94 0.31 4 0.15 6.23-3.16q0.58-0.94 1.06-1.94 0.48-0.99 0.87-2.03 0.38-1.03 0.67-2.1 0.28-1.07 0.46-2.16l12.11 2q-0.3 1.73-0.76 3.42-0.47 1.69-1.1 3.33-0.63 1.63-1.41 3.2-0.79 1.57-1.73 3.05c-3.72 5.71-9.06 8.71-15.18 8.71z"/>
		<path class="s2" d="m201.1 375.63c0-0.26-10.26-1.89-10.26-1.89l-5-33.41 12.39-4.9z"/>
		<path class="s6" d="m201.1 375.63c0-0.26-10.26-1.89-10.26-1.89l-5-33.41 12.39-4.9z"/>
		<path class="s2" d="m302.3 375.69c0-0.26 10.29-1.66 10.29-1.66l5.71-33.29-12.3-5.17z"/>
		<path class="s6" d="m302.3 375.69c0-0.26 10.29-1.66 10.29-1.66l5.71-33.29-12.3-5.17z"/>
		<path class="s2" d="m196.84 328c0 0 82.79-3.53 110.75 1.13 0 0-8.21 80.1-8.65 81.66 0 0-82.36-0.23-95.23 0 0-0.05-6.97-53.32-6.87-82.79z"/>
		<path class="s6" d="m222 349.91c0 0 45.19-1.79 60.46 0.56 0 0-4.49 40.39-4.73 41.18 0 0-45-0.11-52 0 0.01 0-3.08-27.65-3.73-41.74z"/>
		<path class="s6" d="m228.16 391.63h-2.43c0 0-3.08-27.63-3.73-41.73l2.83-0.1z"/>
		<path class="s2" d="m243.07 354.79c-3.91-1.23-8.17 0.01-10.81 3.15-2.63 3.13-3.12 7.55-1.23 11.18 1.89 3.64 5.79 5.78 9.87 5.42 4.08-0.35 7.55-3.13 8.78-7.04 0.4-1.27 0.55-2.6 0.43-3.92-0.11-1.33-0.48-2.61-1.09-3.79-0.62-1.18-1.45-2.23-2.47-3.09-1.01-0.86-2.18-1.51-3.45-1.91zm2.25 11.34c-0.68 2.14-2.59 3.66-4.83 3.85-2.24 0.18-4.37-0.99-5.4-2.99-1.03-1.99-0.77-4.41 0.68-6.13 1.44-1.72 3.78-2.4 5.92-1.73q1.06 0.33 1.92 1.04 0.85 0.71 1.37 1.7 0.51 0.99 0.61 2.09 0.09 1.11-0.24 2.17zm-3.83-6.26c-1.86-0.59-3.89 0-5.14 1.49-1.25 1.5-1.48 3.6-0.58 5.32 0.91 1.73 2.76 2.74 4.7 2.56 1.94-0.17 3.59-1.51 4.16-3.37q0.28-0.91 0.19-1.86-0.09-0.94-0.53-1.79-0.44-0.84-1.16-1.45-0.73-0.61-1.64-0.9zm0 0c-1.86-0.59-3.89 0-5.14 1.49-1.25 1.5-1.48 3.6-0.58 5.32 0.91 1.73 2.76 2.74 4.7 2.56 1.94-0.17 3.59-1.51 4.16-3.37q0.28-0.91 0.19-1.86-0.09-0.94-0.53-1.79-0.44-0.84-1.16-1.45-0.73-0.61-1.64-0.9zm0 0c-1.86-0.59-3.89 0-5.14 1.49-1.25 1.5-1.48 3.6-0.58 5.32 0.91 1.73 2.76 2.74 4.7 2.56 1.94-0.17 3.59-1.51 4.16-3.37q0.28-0.91 0.19-1.86-0.09-0.94-0.53-1.79-0.44-0.84-1.16-1.45-0.73-0.61-1.64-0.9zm3.11 6.03c0.59-1.86 0-3.89-1.49-5.14-1.5-1.25-3.6-1.48-5.32-0.58-1.73 0.91-2.74 2.76-2.56 4.7 0.17 1.94 1.51 3.59 3.37 4.16q0.91 0.29 1.87 0.21 0.95-0.09 1.8-0.53 0.84-0.44 1.46-1.17 0.61-0.74 0.9-1.65zm-3.14-6.03c-1.86-0.59-3.89 0-5.14 1.49-1.25 1.5-1.48 3.6-0.58 5.32 0.91 1.73 2.76 2.74 4.7 2.56 1.94-0.17 3.59-1.51 4.16-3.37q0.28-0.91 0.2-1.85-0.09-0.95-0.52-1.79-0.44-0.84-1.16-1.45-0.73-0.62-1.63-0.91zm0 0c-1.86-0.59-3.89 0-5.14 1.49-1.25 1.5-1.48 3.6-0.58 5.32 0.91 1.73 2.76 2.74 4.7 2.56 1.94-0.17 3.59-1.51 4.16-3.37q0.28-0.91 0.2-1.85-0.09-0.95-0.52-1.79-0.44-0.84-1.16-1.45-0.73-0.62-1.63-0.91zm2.61 5.86c-0.52 1.63-1.96 2.78-3.66 2.93-1.7 0.14-3.32-0.75-4.11-2.26-0.78-1.52-0.58-3.36 0.52-4.66 1.1-1.31 2.87-1.82 4.5-1.31q0.8 0.25 1.44 0.79 0.65 0.55 1.03 1.29 0.39 0.75 0.46 1.58 0.07 0.84-0.18 1.64zm-0.03 0c-0.52 1.63-1.96 2.78-3.66 2.93-1.7 0.14-3.32-0.75-4.11-2.26-0.78-1.52-0.58-3.36 0.52-4.66 1.1-1.31 2.87-1.82 4.5-1.31q0.8 0.25 1.45 0.79 0.65 0.54 1.04 1.28 0.39 0.75 0.47 1.59 0.07 0.84-0.18 1.64zm0.03 0c-0.52 1.63-1.96 2.78-3.66 2.93-1.7 0.14-3.32-0.75-4.11-2.26-0.78-1.52-0.58-3.36 0.52-4.66 1.1-1.31 2.87-1.82 4.5-1.31q0.8 0.25 1.44 0.79 0.65 0.55 1.03 1.29 0.39 0.75 0.46 1.58 0.07 0.84-0.18 1.64zm-0.03 0c-0.52 1.63-1.96 2.78-3.66 2.93-1.7 0.14-3.32-0.75-4.11-2.26-0.78-1.52-0.58-3.36 0.52-4.66 1.1-1.31 2.87-1.82 4.5-1.31q0.8 0.25 1.45 0.79 0.65 0.54 1.04 1.28 0.39 0.75 0.47 1.59 0.07 0.84-0.18 1.64zm0.03 0c-0.52 1.63-1.96 2.78-3.66 2.93-1.7 0.14-3.32-0.75-4.11-2.26-0.78-1.52-0.58-3.36 0.52-4.66 1.1-1.31 2.87-1.82 4.5-1.31q0.8 0.25 1.44 0.79 0.65 0.55 1.03 1.29 0.39 0.75 0.46 1.58 0.07 0.84-0.18 1.64zm-0.03 0c-0.52 1.63-1.96 2.78-3.66 2.93-1.7 0.14-3.32-0.75-4.11-2.26-0.78-1.52-0.58-3.36 0.52-4.66 1.1-1.31 2.87-1.82 4.5-1.31q0.8 0.25 1.45 0.79 0.65 0.54 1.04 1.28 0.39 0.75 0.47 1.59 0.07 0.84-0.18 1.64z"/>
		<path class="s2" d="m238.99 374.31l-3.72-1.18-0.62 2.7 3.3 1.04 1.04-2.56z"/>
		<path class="s2" d="m232.31 370.82l-1.8-3.45-2.35 1.46 1.6 3.08 2.55-1.09z"/>
		<path class="s2" d="m230.05 363.64l1.17-3.71-2.69-0.63-1.05 3.31 2.57 1.03z"/>
		<path class="s2" d="m233.53 356.96l3.46-1.79-1.47-2.35-3.07 1.6 1.08 2.54z"/>
		<path class="s2" d="m240.71 354.7l3.72 1.18 0.62-2.7-3.3-1.04-1.04 2.56z"/>
		<path class="s2" d="m247.39 358.18l1.8 3.46 2.35-1.46-1.6-3.08-2.55 1.08z"/>
		<path class="s2" d="m249.65 365.37l-1.17 3.71 2.7 0.63 1.04-3.31-2.57-1.03z"/>
		<path class="s2" d="m246.17 372.04l-3.45 1.8 1.46 2.35 3.07-1.6-1.08-2.55z"/>
		<path class="s9" d="m259.79 371c-2.31-1.5-5.3-1.46-7.58 0.1-2.27 1.56-3.38 4.33-2.81 7.03 0.57 2.7 2.71 4.79 5.43 5.29 2.71 0.51 5.46-0.67 6.96-2.98q0.74-1.14 0.99-2.47 0.25-1.34-0.03-2.66-0.29-1.33-1.05-2.45-0.77-1.12-1.91-1.86zm-0.59 7.75c-0.83 1.27-2.33 1.92-3.82 1.64-1.49-0.28-2.66-1.43-2.97-2.91-0.32-1.48 0.29-3 1.54-3.86 1.25-0.85 2.89-0.87 4.16-0.04q0.62 0.41 1.04 1.02 0.42 0.62 0.58 1.34 0.15 0.73 0.01 1.46-0.13 0.74-0.54 1.35zm-1.36-4.75c-1.1-0.72-2.52-0.7-3.6 0.04-1.08 0.73-1.61 2.05-1.35 3.34 0.27 1.28 1.29 2.27 2.58 2.52 1.29 0.24 2.59-0.32 3.31-1.42q0.35-0.54 0.47-1.17 0.12-0.63-0.01-1.26-0.14-0.63-0.5-1.17-0.36-0.53-0.9-0.88zm0 0c-1.1-0.72-2.52-0.7-3.6 0.04-1.08 0.73-1.61 2.05-1.35 3.34 0.27 1.28 1.29 2.27 2.58 2.52 1.29 0.24 2.59-0.32 3.31-1.42q0.35-0.54 0.47-1.17 0.12-0.63-0.01-1.26-0.14-0.63-0.5-1.17-0.36-0.53-0.9-0.88zm0 0c-1.1-0.72-2.52-0.7-3.6 0.04-1.08 0.73-1.61 2.05-1.35 3.34 0.27 1.28 1.29 2.27 2.58 2.52 1.29 0.24 2.59-0.32 3.31-1.42q0.35-0.54 0.47-1.17 0.12-0.63-0.01-1.26-0.14-0.63-0.5-1.17-0.36-0.53-0.9-0.88zm0.94 4.48c0.71-1.1 0.69-2.51-0.05-3.59-0.74-1.07-2.06-1.59-3.33-1.32-1.28 0.27-2.27 1.28-2.51 2.56-0.24 1.28 0.32 2.59 1.41 3.3q0.54 0.35 1.17 0.47 0.63 0.11 1.26-0.02 0.63-0.13 1.16-0.49 0.54-0.36 0.89-0.91zm-0.94-4.48c-1.1-0.72-2.52-0.7-3.6 0.04-1.08 0.73-1.61 2.05-1.35 3.34 0.27 1.28 1.29 2.27 2.58 2.52 1.29 0.24 2.59-0.32 3.31-1.42q0.35-0.54 0.47-1.17 0.12-0.63-0.01-1.26-0.14-0.63-0.5-1.17-0.36-0.53-0.9-0.88zm0 0c-1.1-0.72-2.52-0.7-3.6 0.04-1.08 0.73-1.61 2.05-1.35 3.34 0.27 1.28 1.29 2.27 2.58 2.52 1.29 0.24 2.59-0.32 3.31-1.42q0.35-0.54 0.47-1.17 0.12-0.63-0.01-1.26-0.14-0.63-0.5-1.17-0.36-0.53-0.9-0.88zm0.61 4.26c-0.63 0.96-1.77 1.45-2.9 1.24-1.13-0.21-2.02-1.08-2.26-2.2-0.24-1.13 0.23-2.28 1.17-2.93 0.95-0.65 2.2-0.67 3.16-0.04q0.47 0.31 0.8 0.78 0.32 0.46 0.43 1.02 0.12 0.55 0.02 1.11-0.11 0.56-0.42 1.02zm0 0c-0.63 0.96-1.77 1.45-2.9 1.24-1.13-0.21-2.02-1.08-2.26-2.2-0.24-1.13 0.23-2.28 1.17-2.93 0.95-0.65 2.2-0.67 3.16-0.04q0.47 0.31 0.8 0.78 0.32 0.46 0.43 1.02 0.12 0.55 0.02 1.11-0.11 0.56-0.42 1.02zm0 0c-0.63 0.96-1.77 1.45-2.9 1.24-1.13-0.21-2.02-1.08-2.26-2.2-0.24-1.13 0.23-2.28 1.17-2.93 0.95-0.65 2.2-0.67 3.16-0.04q0.47 0.31 0.8 0.78 0.32 0.46 0.43 1.02 0.12 0.55 0.02 1.11-0.11 0.56-0.42 1.02zm0 0c-0.63 0.96-1.77 1.45-2.9 1.24-1.13-0.21-2.02-1.08-2.26-2.2-0.24-1.13 0.23-2.28 1.17-2.93 0.95-0.65 2.2-0.67 3.16-0.04q0.47 0.31 0.8 0.78 0.32 0.46 0.43 1.02 0.12 0.55 0.02 1.11-0.11 0.56-0.42 1.02zm0 0c-0.63 0.96-1.77 1.45-2.9 1.24-1.13-0.21-2.02-1.08-2.26-2.2-0.24-1.13 0.23-2.28 1.17-2.93 0.95-0.65 2.2-0.67 3.16-0.04q0.47 0.31 0.8 0.78 0.32 0.46 0.43 1.02 0.12 0.55 0.02 1.11-0.11 0.56-0.42 1.02zm0 0c-0.63 0.96-1.77 1.45-2.9 1.24-1.13-0.21-2.02-1.08-2.26-2.2-0.24-1.13 0.23-2.28 1.17-2.93 0.95-0.65 2.2-0.67 3.16-0.04q0.47 0.31 0.8 0.78 0.32 0.46 0.43 1.02 0.12 0.55 0.02 1.11-0.11 0.56-0.42 1.02z"/>
		<path class="s9" d="m253.6 382.92l-2.2-1.43-0.89 1.63 1.96 1.27 1.13-1.47z"/>
		<path class="s9" d="m249.9 379.45l-0.54-2.56-1.79 0.52 0.48 2.29 1.85-0.25z"/>
		<path class="s9" d="m249.73 374.39l1.43-2.2-1.63-0.89-1.28 1.95 1.48 1.14z"/>
		<path class="s9" d="m253.2 370.69l2.56-0.55-0.52-1.78-2.29 0.48 0.25 1.85z"/>
		<path class="s9" d="m258.26 370.52l2.2 1.43 0.89-1.64-1.95-1.27-1.14 1.48z"/>
		<path class="s9" d="m261.96 373.98l0.55 2.57 1.78-0.53-0.48-2.28-1.85 0.24z"/>
		<path class="s9" d="m262.13 379.05l-1.43 2.2 1.63 0.89 1.28-1.96-1.48-1.13z"/>
		<path class="s9" d="m258.67 382.75l-2.57 0.54 0.53 1.79 2.28-0.48-0.24-1.85z"/>
		<path class="s2" d="m305.59 401.41l3.19 0.6 9.1-61.63-3.63-0.67-8.66 61.7z"/>
		<path class="s2" d="m277.72 391.65l4.73-41.18 31.8-10.76c0 0-8.66 62.37-8.66 61.7z"/>
		<path class="s8" d="m277.72 391.65l4.73-41.18 31.8-10.76c0 0-8.66 62.37-8.66 61.7z"/>
		<path class="s7" d="m200.64 352.14c-0.52-3.41-0.8-6.85-1-10.29q-0.13-2.59-0.18-5.17-0.08-2.58 0-5.18v-0.45h0.44c6.32-0.34 12.63-0.76 19-1 6.37-0.24 12.64-0.6 19-0.8q-9.46 0.84-18.92 1.52c-6.31 0.46-12.63 0.84-18.94 1.27l0.46-0.47v5.15l0.06 5.15c0 1.72 0 3.44 0.09 5.15z"/>
		<path class="s7" d="m286.88 351.08q3-1.41 6-2.61 3-1.2 6.12-2.32c2.06-0.7 4.13-1.39 6.24-2q0.79-0.23 1.58-0.44 0.79-0.21 1.59-0.4 0.8-0.18 1.61-0.35 0.8-0.16 1.61-0.3l0.53-0.09-0.09 0.51c-0.5 2.67-1 5.33-1.64 8 0.23-2.71 0.56-5.41 0.9-8.1l0.44 0.43q-3.14 0.76-6.26 1.7-3.12 0.93-6.21 1.94z"/>
		<path class="s3" d="m214.4 328.12l0.54 10.3 0.46 10.3 0.79 20.61 0.62 20.61 0.25 10.31 0.17 10.32-0.54-10.3-0.45-10.31-0.8-20.6-0.62-20.62-0.25-10.31-0.17-10.31z"/>
		<path class="s3" d="m211.45 334.33q0.11 0.56-0.09 1.09-0.21 0.53-0.66 0.87-0.47 0.33-1.04 0.36-0.56 0.03-1.06-0.25-0.18-0.11-0.33-0.25-0.16-0.14-0.28-0.31-0.12-0.17-0.2-0.36-0.09-0.19-0.13-0.39-0.04-0.2-0.03-0.41 0-0.21 0.05-0.41 0.04-0.2 0.13-0.39 0.09-0.18 0.21-0.35 0.12-0.16 0.27-0.28 0.15-0.13 0.33-0.23 0.17-0.1 0.36-0.16 0.18-0.06 0.38-0.08 0.36-0.03 0.71 0.06 0.34 0.1 0.63 0.31 0.29 0.22 0.49 0.52 0.19 0.31 0.26 0.66zm0 0c-0.15-0.72-0.78-1.23-1.51-1.24-0.73-0.01-1.37 0.49-1.54 1.2-0.16 0.71 0.19 1.45 0.85 1.76 0.66 0.32 1.45 0.14 1.9-0.44q0.11-0.13 0.18-0.29 0.07-0.15 0.11-0.32 0.04-0.16 0.04-0.33 0-0.17-0.03-0.34z"/>
		<path class="s3" d="m212.16 346.68q0.06 0.35 0 0.71-0.07 0.35-0.25 0.66-0.18 0.3-0.46 0.53-0.28 0.22-0.62 0.34-0.39 0.12-0.8 0.07-0.41-0.05-0.76-0.26-0.35-0.21-0.59-0.55-0.23-0.34-0.31-0.74-0.04-0.2-0.03-0.41 0-0.21 0.05-0.41 0.04-0.2 0.13-0.39 0.09-0.18 0.21-0.35 0.12-0.16 0.27-0.28 0.15-0.13 0.33-0.23 0.17-0.1 0.36-0.16 0.18-0.06 0.38-0.08 0.36-0.03 0.71 0.06 0.34 0.1 0.63 0.31 0.29 0.22 0.49 0.52 0.19 0.31 0.26 0.66zm0 0q-0.06-0.33-0.25-0.6-0.19-0.27-0.48-0.45-0.29-0.16-0.62-0.2-0.33-0.03-0.65 0.07c-0.59 0.18-1.02 0.7-1.1 1.32-0.07 0.61 0.23 1.22 0.77 1.53 0.53 0.32 1.2 0.29 1.71-0.07 0.5-0.37 0.75-0.99 0.62-1.6z"/>
		<path class="s3" d="m212.61 359.79q0.06 0.35 0 0.71-0.07 0.35-0.25 0.66-0.18 0.3-0.46 0.53-0.28 0.22-0.62 0.34-0.19 0.05-0.39 0.07-0.19 0.02-0.39 0-0.19-0.03-0.38-0.09-0.19-0.06-0.36-0.15-0.18-0.11-0.33-0.25-0.16-0.14-0.28-0.31-0.12-0.17-0.2-0.36-0.09-0.19-0.13-0.39-0.04-0.2-0.03-0.41 0-0.21 0.05-0.41 0.04-0.2 0.13-0.39 0.09-0.18 0.21-0.35 0.35-0.45 0.88-0.65 0.54-0.19 1.09-0.06 0.56 0.13 0.96 0.54 0.39 0.41 0.5 0.97zm0 0q-0.06-0.33-0.25-0.6-0.19-0.27-0.48-0.45-0.29-0.16-0.62-0.2-0.33-0.03-0.65 0.07c-0.59 0.18-1.02 0.7-1.1 1.32-0.07 0.61 0.23 1.22 0.77 1.53 0.53 0.32 1.2 0.29 1.71-0.07 0.5-0.37 0.75-0.99 0.62-1.6z"/>
		<path class="s3" d="m213.06 372.9q0.06 0.35 0 0.71-0.07 0.35-0.25 0.66-0.18 0.3-0.46 0.53-0.28 0.22-0.62 0.34-0.39 0.1-0.79 0.05-0.41-0.06-0.75-0.27-0.35-0.21-0.59-0.54-0.24-0.33-0.33-0.72-0.04-0.2-0.03-0.41 0-0.21 0.05-0.41 0.04-0.2 0.13-0.39 0.09-0.18 0.21-0.35 0.35-0.45 0.88-0.65 0.54-0.19 1.09-0.06 0.56 0.13 0.96 0.54 0.39 0.41 0.5 0.97zm0 0q-0.03-0.17-0.1-0.32-0.07-0.16-0.17-0.3-0.1-0.14-0.23-0.25-0.12-0.11-0.27-0.2-0.14-0.08-0.3-0.12-0.15-0.05-0.31-0.06-0.16-0.02-0.32 0-0.17 0.01-0.32 0.06c-0.37 0.12-0.68 0.37-0.88 0.7-0.2 0.33-0.26 0.73-0.19 1.11 0.08 0.38 0.3 0.72 0.61 0.95 0.31 0.23 0.69 0.34 1.08 0.3q0.16-0.02 0.31-0.06 0.16-0.05 0.3-0.12 0.14-0.08 0.27-0.18 0.12-0.11 0.22-0.23 0.1-0.13 0.18-0.29 0.07-0.15 0.11-0.32 0.04-0.16 0.04-0.33 0-0.17-0.03-0.34z"/>
		<path class="s3" d="m213.51 386q0.11 0.56-0.09 1.09-0.21 0.53-0.66 0.87-0.47 0.33-1.04 0.36-0.56 0.03-1.06-0.25-0.18-0.11-0.33-0.24-0.15-0.14-0.28-0.31-0.12-0.17-0.2-0.36-0.09-0.19-0.13-0.39-0.04-0.2-0.04-0.41 0.01-0.21 0.05-0.41 0.05-0.21 0.14-0.39 0.09-0.19 0.21-0.36 0.12-0.16 0.27-0.28 0.15-0.13 0.33-0.23 0.17-0.1 0.36-0.16 0.18-0.06 0.38-0.08 0.36-0.02 0.7 0.08 0.34 0.1 0.63 0.31 0.29 0.21 0.48 0.51 0.2 0.3 0.28 0.65zm0 0q-0.07-0.33-0.26-0.6-0.19-0.27-0.48-0.44-0.28-0.16-0.61-0.2-0.33-0.04-0.65 0.06c-0.37 0.12-0.68 0.37-0.88 0.7-0.2 0.33-0.26 0.73-0.19 1.11 0.08 0.38 0.3 0.72 0.61 0.95 0.31 0.23 0.69 0.34 1.08 0.3q0.34-0.03 0.63-0.19 0.29-0.16 0.5-0.43 0.2-0.27 0.27-0.6 0.07-0.33 0-0.66z"/>
		<path class="s3" d="m214 399.11c0.1 0.5 0 1.02-0.29 1.45-0.28 0.43-0.72 0.72-1.22 0.83-0.5 0.1-1.02 0-1.45-0.29-0.43-0.28-0.72-0.72-0.83-1.22q-0.08-0.4 0-0.8 0.09-0.41 0.34-0.74 0.24-0.33 0.59-0.53 0.36-0.21 0.77-0.25 0.36-0.02 0.7 0.08 0.34 0.1 0.63 0.31 0.29 0.21 0.48 0.51 0.2 0.3 0.28 0.65zm0 0q-0.03-0.17-0.1-0.32-0.07-0.16-0.17-0.29-0.1-0.14-0.23-0.25-0.12-0.12-0.27-0.2-0.14-0.08-0.3-0.12-0.15-0.05-0.31-0.07-0.16-0.01-0.32 0.01-0.17 0.01-0.32 0.06c-0.37 0.12-0.68 0.37-0.88 0.7-0.2 0.33-0.26 0.73-0.19 1.11 0.08 0.38 0.3 0.72 0.61 0.95 0.31 0.23 0.69 0.34 1.08 0.3q0.34-0.03 0.63-0.19 0.29-0.16 0.5-0.43 0.2-0.27 0.27-0.6 0.07-0.33 0-0.66z"/>
		<path class="s2" d="m171.15 433.36l46.87-14.21 1.66 5.48-46.88 14.2z"/>
		<path class="s8" d="m171.15 433.36l46.87-14.21 1.66 5.48-46.88 14.2z"/>
		<path class="s2" d="m190.1 425.84l5.45-1.74 2.58 8.1-5.45 1.74z"/>
		<path class="s2" d="m172.43 446.86l-12.1-52.38-36.51 8.66 17.98 51.05 30.63-7.33z"/>
		<path class="s2" d="m180.53 444.2l-8.1 2.66-12.1-52.38 11.65 2.78 8.55 46.94z"/>
		<path class="s6" d="m180.53 444.2l-8.1 2.66-12.1-52.38 11.65 2.78 8.55 46.94z"/>
		<path class="s2" d="m218.86 428.1c-3.43 0-6.21-2.78-6.21-6.21 0-3.43 2.78-6.21 6.21-6.21 3.43 0 6.21 2.78 6.21 6.21 0 3.43-2.78 6.21-6.21 6.21z"/>
		<path class="s2" d="m281.14 424.49l1.67-5.47 46.85 14.31-1.67 5.47z"/>
		<path class="s8" d="m281.14 424.49l1.67-5.47 46.85 14.31-1.67 5.47z"/>
		<path class="s2" d="m302.66 432.07l2.59-8.1 5.45 1.75-2.6 8.09z"/>
		<path class="s2" d="m328.36 446.82l12.2-52.36 36.5 8.74-18.09 51.01-30.61-7.39z"/>
		<path class="s2" d="m320.26 444.14l8.1 2.68 12.2-52.36-11.65 2.75-8.65 46.93z"/>
		<path class="s6" d="m320.26 444.14l8.1 2.68 12.2-52.36-11.65 2.75-8.65 46.93z"/>
		<path class="s2" d="m275.76 421.74c-0.01 2.52 1.5 4.79 3.82 5.76 2.33 0.97 5 0.44 6.79-1.33 1.78-1.78 2.32-4.45 1.36-6.78-0.96-2.33-3.22-3.85-5.74-3.85q-1.24 0-2.38 0.47-1.14 0.47-2.02 1.34-0.88 0.87-1.35 2.01-0.48 1.14-0.48 2.38z"/>
		<path class="s2" d="m322.66 357.13c0.15-0.14 15.21-14.1 32.92-9.32 18.11 4.88 33.06 32.16 33.21 32.44l5-2.72c-0.66-1.21-16.26-29.73-36.76-35.25-20.86-5.62-37.65 10-38.35 10.7z"/>
		<path class="s8" d="m322.66 357.13c0.15-0.14 15.21-14.1 32.92-9.32 18.11 4.88 33.06 32.16 33.21 32.44l5-2.72c-0.66-1.21-16.26-29.73-36.76-35.25-20.86-5.62-37.65 10-38.35 10.7z"/>
		<path class="s2" d="m382.12 407.71l10.88-5.71q-0.51-0.98-0.93-2-0.41-1.03-0.73-2.09-0.32-1.06-0.53-2.14-0.21-1.09-0.32-2.19c-0.24-4 1.34-5.36 3.07-6.28 3.8-2 6.07-1.21 7.62-0.3 2.17 1.29 4.38 3.91 6.22 7.4l10.85-5.73c-3-5.62-6.62-9.74-10.84-12.23-4.22-2.49-11-4.5-19.57 0-6.67 3.52-10.07 9.86-9.59 17.86q0.15 1.75 0.46 3.48 0.32 1.73 0.81 3.42 0.49 1.69 1.14 3.32 0.65 1.63 1.46 3.19z"/>
		<path class="s4" d="m325 338c2.35-1.62 4.76-3.15 7.17-4.67q3.63-2.28 7.31-4.44 3.67-2.17 7.42-4.24l3.76-2.05c1.27-0.65 2.52-1.33 3.81-2-1.17 0.82-2.38 1.59-3.56 2.38l-3.62 2.29q-3.62 2.29-7.3 4.44-3.68 2.17-7.43 4.24c-2.5 1.37-5.05 2.8-7.56 4.05z"/>
		<path class="s4" d="m318.72 361.42c3.37 1.92 6.56 4.09 9.71 6.31 3.15 2.22 6.21 4.56 9.12 7.12q-1.25-0.73-2.49-1.49-1.23-0.75-2.44-1.54-1.22-0.79-2.41-1.61-1.2-0.82-2.37-1.67c-3.12-2.25-6.21-4.54-9.12-7.12z"/>
		<path class="s4" d="m324.25 358.54c2.6 0.79 5.16 1.69 7.71 2.59 2.55 0.9 5.04 1.87 7.61 2.87 2.57 1 5 2 7.52 3l3.74 1.6c1.23 0.57 2.47 1.11 3.69 1.7-1.3-0.38-2.58-0.83-3.87-1.24l-3.83-1.34c-2.56-0.9-5.09-1.87-7.61-2.84-2.52-0.97-5-2-7.53-3-2.53-1-4.98-2.16-7.43-3.34z"/>
		<path class="s4" d="m331.63 340.22c2.49-0.65 5-1.19 7.51-1.71 2.51-0.52 5-1 7.56-1.45 2.56-0.45 5.05-0.86 7.59-1.22l3.81-0.53c1.28-0.14 2.55-0.31 3.84-0.42-1.25 0.33-2.5 0.6-3.75 0.91l-3.76 0.8c-2.51 0.53-5 1-7.56 1.45-2.56 0.45-5.06 0.86-7.6 1.21-2.54 0.35-5.08 0.74-7.64 0.96z"/>
	</g>
	<g id="freepik--Gears--inject-54">
		<path class="s4" d="m271.62 355.79q0.16-0.76 0.37-1.51 0.21-0.75 0.46-1.49 0.25-0.74 0.54-1.46 0.3-0.72 0.63-1.42 0.32-0.71 0.7-1.4 0.37-0.69 0.78-1.35 0.42-0.66 0.87-1.29 0.46-0.64 0.96-1.24 0.5-0.61 1.07-1.16 0.57-0.55 1.2-1.02 0.63-0.48 1.32-0.87 0.68-0.39 1.41-0.7 0.76-0.28 1.56-0.42 0.79-0.14 1.6-0.13 0.81 0.01 1.6 0.16 0.8 0.15 1.55 0.45 0.75 0.31 1.43 0.77 0.68 0.45 1.26 1.02 0.58 0.58 1.04 1.25 0.46 0.68 0.78 1.43 0.17 0.37 0.31 0.75 0.13 0.38 0.24 0.77 0.1 0.39 0.18 0.79 0.07 0.4 0.11 0.8 0.05 0.41 0.05 0.83 0.01 0.41-0.04 0.83-0.05 0.41-0.14 0.81-0.1 0.41-0.24 0.8-0.08 0.21-0.19 0.41-0.11 0.2-0.25 0.38-0.14 0.18-0.31 0.34-0.16 0.15-0.35 0.28-0.1 0.07-0.21 0.12-0.11 0.06-0.23 0.1-0.11 0.05-0.23 0.07-0.12 0.03-0.24 0.05-0.13 0.02-0.25 0.03-0.13 0-0.26-0.01-0.12-0.01-0.25-0.04-0.12-0.03-0.24-0.07-0.21-0.1-0.4-0.24-0.19-0.14-0.36-0.31-0.16-0.16-0.29-0.36-0.14-0.19-0.24-0.4-0.1-0.18-0.18-0.37-0.08-0.19-0.16-0.38-0.07-0.2-0.14-0.39-0.06-0.2-0.11-0.4-0.19-0.77-0.32-1.56-0.12-0.78-0.19-1.57-0.07-0.8-0.07-1.59 0-0.8 0.06-1.59 0.08-1.58 0.35-3.15 0.27-1.56 0.73-3.07 0.46-1.52 1.1-2.97 0.65-1.45 1.46-2.81 0.42-0.68 0.9-1.31 0.49-0.64 1.03-1.22 0.55-0.58 1.15-1.1 0.61-0.52 1.26-0.98 0.65-0.46 1.36-0.83 0.7-0.38 1.45-0.67 0.74-0.29 1.51-0.48 0.78-0.2 1.57-0.3 0.39-0.07 0.78-0.12 0.39-0.06 0.78-0.09 0.4-0.03 0.79-0.05 0.4-0.01 0.79-0.01 0.2 0 0.4 0 0.19 0 0.39 0.02 0.2 0.01 0.4 0.03 0.19 0.02 0.39 0.05 0.2 0.01 0.39 0.03 0.2 0.02 0.39 0.05 0.2 0.02 0.39 0.06 0.2 0.03 0.39 0.07 0.77 0.15 1.53 0.37 0.75 0.22 1.49 0.49 0.74 0.28 1.45 0.62 0.71 0.34 1.39 0.73 0.67 0.4 1.31 0.84 0.65 0.45 1.26 0.93 0.62 0.48 1.2 1 0.58 0.52 1.13 1.08 0.55 0.55 1.07 1.12 0.52 0.58 1 1.19 0.49 0.61 0.93 1.24 0.45 0.64 0.86 1.3-0.87-1.27-1.88-2.44-1.01-1.17-2.15-2.21-1.13-1.04-2.38-1.95-1.25-0.91-2.59-1.67-0.67-0.36-1.37-0.67-0.69-0.31-1.41-0.56-0.72-0.25-1.46-0.45-0.74-0.19-1.49-0.32-0.37-0.06-0.75-0.1-0.37-0.04-0.75-0.07-0.37-0.03-0.75-0.04-0.37-0.02-0.75-0.02-0.38 0.01-0.76 0.03-0.37 0.02-0.75 0.06-0.37 0.05-0.75 0.1-0.37 0.06-0.74 0.14-0.74 0.11-1.47 0.31-0.73 0.2-1.42 0.48-0.7 0.29-1.36 0.65-0.66 0.36-1.28 0.79-0.61 0.44-1.18 0.93-0.56 0.5-1.08 1.05-0.51 0.55-0.96 1.15-0.45 0.61-0.84 1.25-0.77 1.31-1.38 2.71-0.61 1.39-1.04 2.85-0.43 1.46-0.69 2.96-0.25 1.5-0.32 3.02-0.06 0.75-0.06 1.51-0.01 0.75 0.05 1.51 0.06 0.75 0.17 1.5 0.12 0.74 0.29 1.48c0.24 0.92 0.67 2 1.3 2.24q0.03 0.01 0.06 0.02 0.03 0 0.05 0.01 0.03 0.01 0.06 0.01 0.03 0.01 0.06 0.01 0.04 0.01 0.07 0.01 0.04 0 0.08 0 0.04 0 0.08 0 0.03 0 0.07-0.01 0.07-0.01 0.14-0.02 0.07-0.02 0.14-0.04 0.06-0.03 0.13-0.06 0.06-0.03 0.12-0.07 0.13-0.09 0.25-0.2 0.11-0.11 0.21-0.24 0.09-0.13 0.17-0.27 0.08-0.14 0.13-0.29 0.13-0.34 0.21-0.69 0.08-0.35 0.13-0.71 0.04-0.35 0.04-0.71-0.01-0.36-0.05-0.72-0.04-0.37-0.1-0.73-0.07-0.37-0.16-0.72-0.1-0.36-0.22-0.71-0.12-0.35-0.27-0.69-0.28-0.68-0.69-1.29-0.41-0.62-0.92-1.14-0.51-0.53-1.12-0.95-0.6-0.43-1.27-0.73-0.69-0.29-1.41-0.44-0.73-0.16-1.47-0.18-0.75-0.03-1.48 0.09-0.74 0.11-1.44 0.35-0.7 0.28-1.37 0.64-0.67 0.36-1.28 0.8-0.62 0.44-1.18 0.95-0.56 0.51-1.05 1.09-1.01 1.17-1.88 2.45-0.87 1.28-1.58 2.65-0.72 1.37-1.28 2.81-0.55 1.44-0.94 2.94z"/>
		<path class="s4" d="m179.22 381.7q0.36-0.68 0.8-1.32 0.44-0.63 0.94-1.22 0.51-0.58 1.07-1.11 0.57-0.52 1.19-0.98 0.62-0.48 1.29-0.89 0.66-0.41 1.37-0.75 0.7-0.34 1.44-0.6 0.74-0.26 1.5-0.45 0.77-0.19 1.56-0.28 0.78-0.08 1.57-0.07 0.79 0.02 1.58 0.14 0.78 0.12 1.54 0.34 0.76 0.24 1.48 0.57 0.73 0.33 1.4 0.75 0.68 0.42 1.3 0.92 0.61 0.5 1.16 1.08 0.55 0.57 1.03 1.2 0.49 0.63 0.91 1.3 0.42 0.67 0.77 1.38 0.35 0.71 0.63 1.45 0.29 0.74 0.5 1.51 0.21 0.76 0.34 1.55 0.13 0.79 0.17 1.58 0.04 0.8-0.01 1.59-0.01 0.42-0.1 0.84-0.08 0.42-0.23 0.81-0.14 0.4-0.35 0.77-0.21 0.37-0.48 0.7-0.16 0.17-0.36 0.31-0.19 0.14-0.41 0.24-0.22 0.09-0.45 0.15-0.23 0.05-0.47 0.06-0.22 0-0.44-0.02-0.23-0.02-0.44-0.07-0.22-0.05-0.43-0.13-0.21-0.07-0.41-0.17-0.2-0.11-0.39-0.25-0.18-0.14-0.34-0.31-0.16-0.17-0.29-0.36-0.12-0.19-0.22-0.4-0.09-0.2-0.16-0.4-0.07-0.21-0.11-0.42-0.05-0.21-0.08-0.43-0.02-0.21-0.03-0.43-0.01-0.41 0.03-0.81 0.03-0.41 0.09-0.81 0.07-0.4 0.17-0.79 0.1-0.4 0.24-0.78 0.26-0.75 0.59-1.47 0.32-0.72 0.7-1.42 0.39-0.69 0.83-1.35 0.44-0.65 0.94-1.27 0.48-0.62 1.01-1.21 0.53-0.58 1.1-1.13 0.57-0.54 1.17-1.05 0.61-0.5 1.25-0.96 1.27-0.95 2.69-1.65 1.43-0.7 2.96-1.12 1.53-0.42 3.11-0.55 1.58-0.13 3.16 0.04 0.78 0.09 1.55 0.26 0.77 0.17 1.52 0.42 0.75 0.24 1.47 0.56 0.72 0.31 1.41 0.7 0.68 0.39 1.32 0.84 0.65 0.46 1.24 0.97 0.6 0.51 1.14 1.08 0.54 0.56 1.03 1.18 0.48 0.61 0.91 1.26 0.43 0.65 0.82 1.32 0.38 0.68 0.72 1.38 0.34 0.7 0.63 1.42 0.3 0.72 0.55 1.45 0.25 0.73 0.45 1.47 0.21 0.75 0.37 1.51 0.16 0.75 0.27 1.52-0.29-1.51-0.76-2.97-0.48-1.45-1.12-2.85-0.65-1.39-1.46-2.69-0.81-1.3-1.78-2.49-0.48-0.58-1.01-1.12-0.54-0.54-1.12-1.02-0.59-0.48-1.22-0.9-0.62-0.42-1.29-0.78-0.66-0.35-1.36-0.64-0.7-0.29-1.42-0.5-0.72-0.22-1.46-0.37-0.74-0.14-1.49-0.21-1.5-0.14-3 0-1.5 0.14-2.95 0.56-1.44 0.41-2.79 1.08-1.35 0.67-2.55 1.58-1.22 0.88-2.3 1.93-1.08 1.06-1.99 2.25-0.91 1.2-1.64 2.52-0.73 1.32-1.26 2.73-0.13 0.34-0.22 0.69-0.1 0.35-0.16 0.71-0.07 0.36-0.1 0.72-0.03 0.37-0.03 0.73-0.02 0.32 0.04 0.64 0.06 0.32 0.21 0.61 0.14 0.29 0.36 0.53 0.22 0.24 0.49 0.42 0.14 0.08 0.3 0.13 0.15 0.06 0.31 0.1 0.15 0.03 0.32 0.05 0.16 0.01 0.32 0.01 0.15 0 0.3-0.03 0.14-0.04 0.28-0.1 0.13-0.06 0.26-0.14 0.12-0.09 0.22-0.2 0.21-0.27 0.38-0.58 0.17-0.3 0.28-0.63 0.12-0.32 0.19-0.66 0.06-0.34 0.07-0.69 0.04-0.75-0.01-1.49-0.04-0.75-0.17-1.48-0.13-0.74-0.33-1.46-0.21-0.72-0.49-1.41-0.26-0.7-0.59-1.38-0.33-0.67-0.72-1.31-0.4-0.64-0.85-1.24-0.45-0.6-0.96-1.15-0.51-0.55-1.09-1.04-0.57-0.48-1.2-0.89-0.64-0.41-1.32-0.73-0.68-0.33-1.39-0.56-0.72-0.23-1.45-0.36-0.74-0.13-1.49-0.16-0.75-0.03-1.5 0.03-0.75 0.07-1.48 0.23-1.47 0.34-2.85 0.95-1.38 0.62-2.62 1.49-1.23 0.88-2.27 1.97-1.04 1.1-1.85 2.38z"/>
		<path class="s4" d="m133 140.21q-0.02-1.54-0.21-3.07-0.19-1.53-0.56-3.03-0.36-1.5-0.9-2.95-0.53-1.44-1.23-2.82-0.34-0.68-0.76-1.31-0.42-0.63-0.91-1.2-0.49-0.58-1.05-1.09-0.56-0.51-1.18-0.95-0.63-0.4-1.31-0.69-0.69-0.28-1.42-0.43-0.73-0.16-1.47-0.18-0.74-0.02-1.48 0.09-0.72 0.13-1.41 0.39-0.69 0.26-1.31 0.65-0.63 0.38-1.17 0.88-0.54 0.49-0.98 1.08-0.23 0.29-0.43 0.6-0.2 0.31-0.38 0.63-0.18 0.33-0.33 0.66-0.15 0.34-0.27 0.69-0.13 0.34-0.22 0.69-0.09 0.35-0.13 0.7-0.05 0.36-0.05 0.72 0 0.36 0.04 0.72 0.02 0.16 0.06 0.31 0.04 0.15 0.1 0.3 0.07 0.14 0.15 0.28 0.09 0.13 0.19 0.25 0.05 0.05 0.1 0.1 0.06 0.05 0.12 0.09 0.06 0.04 0.12 0.07 0.06 0.03 0.13 0.06 0.04 0.01 0.07 0.03 0.04 0.01 0.07 0.02 0.04 0.01 0.08 0.02 0.03 0 0.07 0.01 0.03 0 0.06 0 0.03 0 0.06 0 0.03 0 0.06 0 0.03 0 0.06 0c0.68-0.13 1.35-1 1.8-1.86q0.33-0.67 0.62-1.36 0.28-0.69 0.51-1.41 0.22-0.71 0.4-1.43 0.17-0.73 0.29-1.47 0.29-1.49 0.41-3 0.11-1.52 0.03-3.03-0.07-1.52-0.32-3.02-0.26-1.49-0.69-2.95-0.22-0.72-0.52-1.41-0.3-0.69-0.66-1.35-0.37-0.66-0.8-1.28-0.43-0.62-0.92-1.19-0.49-0.57-1.05-1.08-0.56-0.5-1.17-0.94-0.61-0.44-1.27-0.81-0.65-0.36-1.35-0.65-0.34-0.16-0.69-0.3-0.35-0.14-0.71-0.27-0.35-0.12-0.71-0.23-0.36-0.11-0.73-0.2-0.37-0.09-0.74-0.17-0.37-0.08-0.75-0.14-0.38-0.06-0.75-0.11-0.38-0.05-0.76-0.08-0.76-0.05-1.51-0.04-0.76 0.02-1.51 0.09-0.76 0.08-1.5 0.21-0.75 0.14-1.48 0.34-1.49 0.41-2.92 1-1.43 0.58-2.78 1.32-1.35 0.74-2.61 1.64-1.26 0.89-2.41 1.92 0.55-0.55 1.14-1.06 0.59-0.51 1.2-0.99 0.62-0.47 1.26-0.91 0.64-0.44 1.31-0.84 0.66-0.41 1.35-0.77 0.69-0.37 1.4-0.69 0.72-0.32 1.44-0.6 0.73-0.27 1.48-0.5 0.76-0.22 1.53-0.38 0.77-0.16 1.55-0.25 0.78-0.1 1.57-0.12 0.78-0.03 1.57 0 0.39 0.03 0.79 0.07 0.39 0.04 0.78 0.1 0.39 0.06 0.78 0.13 0.38 0.07 0.77 0.15 0.39 0.09 0.77 0.2 0.38 0.11 0.75 0.23 0.38 0.13 0.75 0.27 0.37 0.14 0.73 0.3 0.75 0.29 1.45 0.66 0.71 0.38 1.36 0.84 0.65 0.45 1.25 0.99 0.59 0.53 1.12 1.13 0.53 0.6 0.99 1.25 0.46 0.65 0.85 1.34 0.39 0.7 0.71 1.43 0.32 0.73 0.56 1.49 0.47 1.51 0.74 3.07 0.28 1.55 0.37 3.13 0.09 1.58-0.02 3.16-0.1 1.58-0.4 3.13-0.13 0.78-0.32 1.55-0.19 0.77-0.45 1.53-0.25 0.75-0.56 1.48-0.3 0.73-0.67 1.44-0.1 0.18-0.21 0.36-0.11 0.17-0.22 0.34-0.12 0.17-0.25 0.33-0.12 0.16-0.26 0.32-0.15 0.19-0.32 0.35-0.18 0.16-0.38 0.28-0.2 0.13-0.42 0.22-0.22 0.1-0.45 0.15-0.13 0.01-0.25 0.01-0.13-0.01-0.26-0.02-0.13-0.02-0.25-0.06-0.12-0.03-0.24-0.08-0.11-0.04-0.22-0.1-0.11-0.06-0.21-0.13-0.1-0.06-0.19-0.14-0.09-0.08-0.17-0.17-0.15-0.17-0.28-0.36-0.12-0.2-0.21-0.4-0.1-0.21-0.16-0.43-0.06-0.22-0.09-0.45-0.05-0.41-0.04-0.83 0-0.41 0.06-0.83 0.05-0.41 0.15-0.81 0.1-0.4 0.25-0.79 0.14-0.38 0.31-0.75 0.16-0.37 0.36-0.72 0.2-0.36 0.42-0.7 0.23-0.33 0.48-0.65 0.49-0.65 1.09-1.2 0.61-0.55 1.31-0.97 0.7-0.42 1.47-0.7 0.76-0.28 1.57-0.4 0.8-0.11 1.61-0.07 0.81 0.05 1.59 0.23 0.79 0.19 1.53 0.51 0.74 0.33 1.41 0.78 0.64 0.47 1.22 1.01 0.58 0.55 1.08 1.16 0.51 0.61 0.93 1.28 0.43 0.67 0.77 1.39 0.35 0.7 0.65 1.43 0.3 0.72 0.55 1.46 0.25 0.75 0.45 1.5 0.2 0.76 0.35 1.53 0.14 0.75 0.24 1.51 0.1 0.76 0.16 1.53 0.05 0.76 0.06 1.53 0.01 0.76-0.02 1.53z"/>
		<path class="s4" d="m353.77 192.37q-1.5-0.35-3.03-0.52-1.54-0.18-3.08-0.18-1.54 0-3.08 0.18-1.53 0.17-3.03 0.52-0.74 0.17-1.45 0.44-0.71 0.26-1.38 0.6-0.68 0.35-1.3 0.78-0.63 0.42-1.2 0.92-0.54 0.51-0.98 1.11-0.43 0.6-0.75 1.27-0.32 0.67-0.52 1.39-0.19 0.72-0.25 1.46-0.04 0.74 0.06 1.47 0.09 0.73 0.33 1.43 0.23 0.7 0.59 1.34 0.36 0.64 0.83 1.21 0.23 0.29 0.48 0.57 0.26 0.27 0.53 0.52 0.28 0.25 0.57 0.48 0.3 0.23 0.61 0.43 0.3 0.2 0.62 0.37 0.32 0.16 0.65 0.29 0.34 0.12 0.69 0.21 0.34 0.09 0.7 0.13 0.16 0.02 0.32 0.01 0.16 0 0.31-0.03 0.16-0.03 0.31-0.08 0.15-0.06 0.29-0.13 0.06-0.03 0.12-0.08 0.06-0.04 0.11-0.08 0.06-0.05 0.1-0.11 0.05-0.05 0.09-0.11c0.06-0.07 0.09-0.18 0.15-0.26 0.06-0.08 0-0.16 0.05-0.23 0-0.69-0.68-1.55-1.39-2.19q-0.58-0.49-1.19-0.93-0.61-0.44-1.25-0.84-0.64-0.39-1.31-0.73-0.67-0.35-1.37-0.64-1.38-0.64-2.83-1.1-1.45-0.46-2.94-0.75-1.5-0.28-3.01-0.38-1.52-0.1-3.04-0.02-0.75 0.05-1.49 0.18-0.75 0.12-1.47 0.33-0.73 0.2-1.43 0.47-0.7 0.28-1.37 0.62-0.67 0.35-1.29 0.77-0.62 0.42-1.19 0.91-0.57 0.49-1.08 1.05-0.51 0.55-0.95 1.16-0.24 0.29-0.46 0.6-0.23 0.31-0.44 0.62-0.21 0.32-0.4 0.64-0.2 0.33-0.38 0.66-0.09 0.17-0.18 0.34-0.09 0.16-0.17 0.34-0.08 0.17-0.15 0.35-0.07 0.17-0.14 0.35-0.08 0.17-0.16 0.34-0.07 0.18-0.14 0.35-0.07 0.18-0.13 0.36-0.06 0.18-0.11 0.36-0.23 0.73-0.39 1.47-0.17 0.74-0.27 1.5-0.11 0.75-0.15 1.51-0.04 0.76-0.02 1.52 0.06 1.54 0.29 3.07 0.23 1.52 0.64 3.01 0.41 1.49 0.98 2.92 0.58 1.43 1.31 2.79-0.4-0.66-0.76-1.35-0.37-0.69-0.68-1.4-0.32-0.71-0.6-1.43-0.28-0.73-0.51-1.47-0.24-0.74-0.43-1.5-0.2-0.76-0.34-1.52-0.15-0.77-0.24-1.55-0.1-0.77-0.15-1.55-0.04-0.79-0.01-1.57 0.02-0.79 0.11-1.57 0.09-0.78 0.24-1.55 0.16-0.77 0.37-1.53 0.05-0.19 0.11-0.38 0.06-0.19 0.13-0.37 0.07-0.19 0.14-0.37 0.07-0.19 0.15-0.37 0.07-0.19 0.14-0.37 0.07-0.18 0.15-0.36 0.08-0.18 0.17-0.36 0.09-0.18 0.18-0.35 0.18-0.35 0.37-0.7 0.2-0.34 0.41-0.68 0.21-0.33 0.43-0.65 0.23-0.33 0.47-0.64 0.45-0.66 0.98-1.25 0.53-0.6 1.13-1.13 0.6-0.53 1.26-0.98 0.65-0.46 1.36-0.83 0.71-0.37 1.45-0.66 0.74-0.3 1.5-0.52 0.77-0.22 1.55-0.36 0.79-0.14 1.58-0.2 1.58-0.1 3.16-0.01 1.57 0.1 3.13 0.38 1.55 0.28 3.06 0.76 1.51 0.47 2.95 1.12 0.73 0.31 1.44 0.68 0.7 0.36 1.38 0.78 0.67 0.43 1.31 0.9 0.64 0.47 1.24 0.99 0.15 0.14 0.3 0.29 0.14 0.14 0.28 0.3 0.14 0.15 0.27 0.31 0.13 0.16 0.25 0.33 0.14 0.19 0.25 0.4 0.11 0.2 0.18 0.43 0.07 0.22 0.11 0.45 0.03 0.24 0.03 0.47-0.02 0.13-0.05 0.25-0.03 0.12-0.08 0.24-0.04 0.12-0.1 0.23-0.07 0.11-0.14 0.21-0.07 0.1-0.15 0.19-0.08 0.09-0.17 0.18-0.09 0.08-0.19 0.15-0.1 0.07-0.21 0.13-0.2 0.11-0.42 0.18-0.21 0.08-0.43 0.12-0.23 0.04-0.46 0.05-0.22 0.01-0.45-0.02-0.41-0.05-0.81-0.15-0.41-0.1-0.8-0.25-0.38-0.15-0.75-0.34-0.37-0.19-0.71-0.43-0.34-0.22-0.66-0.47-0.32-0.25-0.62-0.52-0.3-0.28-0.57-0.57-0.28-0.3-0.53-0.62-0.52-0.62-0.9-1.33-0.39-0.71-0.64-1.48-0.24-0.78-0.34-1.58-0.09-0.8-0.03-1.61 0.08-0.8 0.31-1.58 0.23-0.78 0.59-1.5 0.37-0.72 0.85-1.37 0.49-0.64 1.09-1.19 0.61-0.51 1.27-0.94 0.67-0.43 1.38-0.78 0.72-0.34 1.46-0.6 0.75-0.26 1.53-0.42 0.76-0.17 1.54-0.28 0.77-0.12 1.55-0.18 0.78-0.06 1.56-0.08 0.78-0.01 1.56 0.03 0.78 0.03 1.55 0.1 0.77 0.08 1.54 0.19 0.77 0.12 1.53 0.28 0.76 0.16 1.51 0.37z"/>
		<path class="s4" d="m291.86 127.67q-0.25-0.89-0.4-1.81-0.15-0.92-0.2-1.84-0.05-0.93 0.01-1.86 0.05-0.92 0.2-1.84 0.13-0.93 0.36-1.84 0.23-0.91 0.56-1.8 0.32-0.88 0.73-1.72 0.42-0.84 0.92-1.64 0.5-0.8 1.09-1.53 0.6-0.74 1.29-1.38 0.69-0.65 1.46-1.2 0.77-0.55 1.6-0.99 0.85-0.43 1.74-0.75 0.89-0.32 1.82-0.52 0.92-0.2 1.87-0.28 0.94-0.09 1.89-0.05 0.94 0.04 1.88 0.16 0.94 0.13 1.85 0.35 0.92 0.23 1.81 0.54 0.89 0.31 1.75 0.71 0.87 0.38 1.69 0.86 0.82 0.47 1.59 1.03 0.76 0.56 1.46 1.21 0.7 0.64 1.33 1.35 0.34 0.37 0.62 0.79 0.27 0.42 0.48 0.87 0.2 0.46 0.33 0.95 0.12 0.48 0.17 0.98 0 0.28-0.04 0.55-0.05 0.27-0.15 0.53-0.1 0.25-0.25 0.49-0.15 0.23-0.34 0.43-0.18 0.19-0.39 0.35-0.21 0.16-0.43 0.3-0.22 0.13-0.46 0.24-0.24 0.11-0.49 0.19-0.26 0.07-0.52 0.11-0.27 0.03-0.54 0.02-0.27-0.01-0.53-0.07-0.26-0.05-0.51-0.15-0.24-0.1-0.46-0.21-0.23-0.12-0.44-0.26-0.22-0.14-0.42-0.3-0.2-0.16-0.38-0.34-0.34-0.34-0.65-0.71-0.31-0.37-0.59-0.77-0.28-0.39-0.52-0.81-0.24-0.42-0.44-0.86-0.4-0.86-0.73-1.74-0.33-0.89-0.58-1.8-0.25-0.91-0.42-1.84-0.18-0.93-0.27-1.87-0.1-0.93-0.14-1.87-0.04-0.94-0.01-1.88 0.03-0.94 0.12-1.88 0.1-0.93 0.26-1.86 0.29-1.87 0.92-3.65 0.64-1.79 1.59-3.42 0.95-1.63 2.19-3.07 1.24-1.42 2.72-2.6 0.75-0.57 1.54-1.07 0.8-0.5 1.65-0.92 0.84-0.42 1.72-0.75 0.88-0.33 1.79-0.58 0.91-0.24 1.83-0.39 0.93-0.15 1.86-0.21 0.94-0.06 1.87-0.03 0.94 0.03 1.87 0.15 0.92 0.12 1.83 0.31 0.92 0.18 1.81 0.44 0.9 0.25 1.77 0.56 0.88 0.31 1.73 0.69 0.85 0.36 1.68 0.77 0.83 0.42 1.63 0.88 0.8 0.47 1.57 0.98 0.77 0.51 1.51 1.07-1.5-1.05-3.12-1.9-1.61-0.86-3.32-1.51-1.71-0.65-3.49-1.09-1.77-0.43-3.59-0.65-0.91-0.1-1.82-0.11-0.91-0.02-1.81 0.06-0.91 0.08-1.81 0.24-0.89 0.16-1.77 0.41-1.73 0.52-3.34 1.36-1.6 0.84-3.01 1.97-1.42 1.13-2.59 2.5-1.17 1.38-2.06 2.96-0.43 0.79-0.8 1.62-0.37 0.83-0.66 1.68-0.3 0.86-0.52 1.73-0.22 0.88-0.37 1.77-0.31 1.78-0.36 3.59-0.04 1.82 0.18 3.61 0.22 1.8 0.7 3.55 0.48 1.74 1.21 3.4 0.18 0.4 0.4 0.79 0.22 0.38 0.47 0.74 0.25 0.37 0.54 0.71 0.28 0.34 0.59 0.65 0.26 0.31 0.59 0.53 0.33 0.23 0.71 0.36 0.38 0.13 0.78 0.16 0.41 0.03 0.8-0.05 0.19-0.06 0.38-0.14 0.18-0.09 0.35-0.19 0.17-0.11 0.33-0.23 0.16-0.13 0.3-0.27 0.13-0.13 0.23-0.29 0.1-0.16 0.17-0.33 0.07-0.18 0.1-0.36 0.03-0.18 0.03-0.37-0.05-0.42-0.16-0.82-0.11-0.41-0.29-0.79-0.17-0.38-0.41-0.73-0.23-0.35-0.52-0.66-0.59-0.68-1.25-1.29-0.66-0.6-1.38-1.14-0.73-0.53-1.5-0.98-0.78-0.45-1.6-0.82-0.82-0.38-1.68-0.69-0.85-0.3-1.74-0.52-0.88-0.22-1.77-0.35-0.9-0.14-1.81-0.18-0.9-0.05-1.8 0.02-0.9 0.06-1.79 0.24-0.88 0.18-1.74 0.47-0.86 0.29-1.67 0.68-0.81 0.41-1.55 0.92-0.75 0.51-1.42 1.11-0.67 0.61-1.26 1.29-0.59 0.69-1.08 1.45-1.01 1.53-1.7 3.23-0.7 1.7-1.04 3.5-0.34 1.8-0.32 3.63 0.02 1.84 0.4 3.63z"/>
		<path class="s10" d="m177.29 377.43c-3.47-1.11-7.28-0.02-9.63 2.77-2.35 2.79-2.78 6.72-1.1 9.96 1.69 3.23 5.16 5.13 8.79 4.81 3.63-0.33 6.71-2.82 7.79-6.3 0.35-1.12 0.47-2.3 0.37-3.47-0.11-1.17-0.44-2.31-0.98-3.35-0.54-1.05-1.29-1.97-2.18-2.73-0.9-0.76-1.94-1.33-3.06-1.69zm2 10c-0.6 1.89-2.28 3.24-4.25 3.42-1.98 0.17-3.87-0.87-4.79-2.63-0.91-1.76-0.68-3.9 0.59-5.42 1.28-1.52 3.35-2.13 5.24-1.53q0.93 0.3 1.68 0.92 0.75 0.64 1.2 1.51 0.45 0.87 0.54 1.84 0.08 0.98-0.22 1.91zm-3.42-5.51c-1.64-0.51-3.43 0.01-4.53 1.33-1.1 1.31-1.3 3.16-0.51 4.69 0.79 1.52 2.42 2.42 4.14 2.27 1.71-0.15 3.16-1.31 3.68-2.95q0.25-0.81 0.18-1.65-0.08-0.84-0.47-1.6-0.39-0.75-1.03-1.29-0.65-0.54-1.46-0.8zm0 0c-1.64-0.51-3.43 0.01-4.53 1.33-1.1 1.31-1.3 3.16-0.51 4.69 0.79 1.52 2.42 2.42 4.14 2.27 1.71-0.15 3.16-1.31 3.68-2.95q0.25-0.81 0.18-1.65-0.08-0.84-0.47-1.6-0.39-0.75-1.03-1.29-0.65-0.54-1.46-0.8zm0 0c-1.64-0.51-3.43 0.01-4.53 1.33-1.1 1.31-1.3 3.16-0.51 4.69 0.79 1.52 2.42 2.42 4.14 2.27 1.71-0.15 3.16-1.31 3.68-2.95q0.25-0.81 0.18-1.65-0.08-0.84-0.47-1.6-0.39-0.75-1.03-1.29-0.65-0.54-1.46-0.8zm2.79 5.32c0.52-1.64 0-3.43-1.32-4.54-1.31-1.1-3.17-1.31-4.69-0.51-1.53 0.79-2.42 2.42-2.28 4.14 0.15 1.71 1.32 3.16 2.96 3.68q0.8 0.25 1.64 0.18 0.84-0.08 1.58-0.46 0.75-0.39 1.3-1.03 0.54-0.64 0.8-1.44zm-2.78-5.34c-1.64-0.51-3.43 0.01-4.53 1.33-1.1 1.31-1.3 3.16-0.51 4.69 0.79 1.52 2.42 2.42 4.14 2.27 1.71-0.15 3.16-1.31 3.68-2.95q0.25-0.81 0.17-1.65-0.08-0.84-0.47-1.59-0.39-0.74-1.04-1.28-0.65-0.54-1.45-0.8zm0 0c-1.64-0.51-3.43 0.01-4.53 1.33-1.1 1.31-1.3 3.16-0.51 4.69 0.79 1.52 2.42 2.42 4.14 2.27 1.71-0.15 3.16-1.31 3.68-2.95q0.25-0.81 0.17-1.65-0.08-0.84-0.47-1.59-0.39-0.74-1.04-1.28-0.65-0.54-1.45-0.8zm2.28 5.2c-0.45 1.44-1.73 2.46-3.23 2.59-1.5 0.14-2.94-0.65-3.63-1.99-0.7-1.33-0.53-2.96 0.44-4.12 0.97-1.15 2.54-1.61 3.98-1.16q0.71 0.23 1.28 0.7 0.56 0.48 0.91 1.14 0.34 0.65 0.41 1.39 0.06 0.74-0.16 1.45zm0.01-0.02c-0.45 1.44-1.73 2.46-3.23 2.59-1.5 0.14-2.94-0.65-3.63-1.99-0.7-1.33-0.53-2.96 0.44-4.12 0.97-1.15 2.54-1.61 3.98-1.16q0.71 0.23 1.28 0.71 0.57 0.48 0.91 1.14 0.34 0.66 0.4 1.4 0.06 0.74-0.16 1.45zm-0.01 0.02c-0.45 1.44-1.73 2.46-3.23 2.59-1.5 0.14-2.94-0.65-3.63-1.99-0.7-1.33-0.53-2.96 0.44-4.12 0.97-1.15 2.54-1.61 3.98-1.16q0.71 0.23 1.28 0.7 0.56 0.48 0.91 1.14 0.34 0.65 0.41 1.39 0.06 0.74-0.16 1.45zm0.01-0.02c-0.45 1.44-1.73 2.46-3.23 2.59-1.5 0.14-2.94-0.65-3.63-1.99-0.7-1.33-0.53-2.96 0.44-4.12 0.97-1.15 2.54-1.61 3.98-1.16q0.71 0.23 1.28 0.71 0.57 0.48 0.91 1.14 0.34 0.66 0.4 1.4 0.06 0.74-0.16 1.45zm-0.01 0.02c-0.45 1.44-1.73 2.46-3.23 2.59-1.5 0.14-2.94-0.65-3.63-1.99-0.7-1.33-0.53-2.96 0.44-4.12 0.97-1.15 2.54-1.61 3.98-1.16q0.71 0.23 1.28 0.7 0.56 0.48 0.91 1.14 0.34 0.65 0.41 1.39 0.06 0.74-0.16 1.45zm0.01-0.02c-0.45 1.44-1.73 2.46-3.23 2.59-1.5 0.14-2.94-0.65-3.63-1.99-0.7-1.33-0.53-2.96 0.44-4.12 0.97-1.15 2.54-1.61 3.98-1.16q0.71 0.23 1.28 0.71 0.57 0.48 0.91 1.14 0.34 0.66 0.4 1.4 0.06 0.74-0.16 1.45z"/>
		<path class="s10" d="m173.66 394.69l-3.29-1.04-0.55 2.39 2.92 0.92 0.92-2.27z"/>
		<path class="s10" d="m167.75 391.61l-1.59-3.06-2.08 1.3 1.42 2.72 2.25-0.96z"/>
		<path class="s10" d="m165.75 385.26l1.04-3.29-2.39-0.55-0.92 2.92 2.27 0.92z"/>
		<path class="s10" d="m168.83 379.35l3.05-1.59-1.29-2.08-2.72 1.42 0.96 2.25z"/>
		<path class="s10" d="m175.18 377.35l3.29 1.03 0.55-2.38-2.92-0.92-0.92 2.27z"/>
		<path class="s10" d="m181.09 380.43l1.59 3.05 2.08-1.29-1.42-2.72-2.25 0.96z"/>
		<path class="s10" d="m183.09 386.78l-1.04 3.29 2.39 0.55 0.92-2.92-2.27-0.92z"/>
		<path class="s10" d="m180.01 392.69l-3.06 1.59 1.3 2.08 2.72-1.42-0.96-2.25z"/>
		<path class="s1" d="m341.67 353.35c3.3-4.45 3.6-10.45 0.75-15.21-2.85-4.75-8.28-7.32-13.76-6.51-5.48 0.82-9.93 4.85-11.28 10.23-1.35 5.37 0.68 11.03 5.13 14.33 1.44 1.07 3.09 1.85 4.83 2.28 1.75 0.44 3.56 0.53 5.34 0.27 1.78-0.27 3.49-0.88 5.03-1.8 1.54-0.93 2.89-2.15 3.96-3.59zm-5.86-4.35c-1.54 2.08-4.19 3.02-6.7 2.39-2.51-0.63-4.39-2.71-4.77-5.27-0.38-2.56 0.82-5.1 3.05-6.43 2.22-1.33 5.02-1.19 7.1 0.36q1.02 0.76 1.68 1.85 0.65 1.09 0.84 2.35 0.18 1.26-0.13 2.49-0.31 1.24-1.07 2.26z"/>
		<path class="s1" d="m324.96 357.3l-4.23-3.14-1.98 3.17 3.76 2.79 2.45-2.82z"/>
		<path class="s1" d="m317.97 349.9l-0.77-5.21-3.65 0.83 0.69 4.64 3.73-0.26z"/>
		<path class="s1" d="m318.26 339.72l3.14-4.23-3.17-1.99-2.79 3.76 2.82 2.46z"/>
		<path class="s1" d="m325.66 332.73l5.21-0.77-0.83-3.65-4.64 0.69 0.26 3.73z"/>
		<path class="s1" d="m335.84 333.01l4.23 3.14 1.98-3.16-3.76-2.8-2.45 2.82z"/>
		<path class="s1" d="m342.83 340.42l0.77 5.21 3.65-0.84-0.69-4.63-3.73 0.26z"/>
		<path class="s1" d="m342.54 350.59l-3.14 4.23 3.17 1.99 2.79-3.76-2.82-2.46z"/>
		<path class="s1" d="m335.14 357.59l-5.21 0.77 0.83 3.64 4.64-0.68-0.26-3.73z"/>
		<path class="s1" d="m325.77 345.84l2.91 3.67 4.63-0.69 1.72-4.35-2.91-3.67-4.63 0.69zm5.51-1.87c0.31 0.24 0.52 0.59 0.58 0.97 0.06 0.39-0.04 0.79-0.28 1.1-0.23 0.32-0.58 0.53-0.97 0.58-0.39 0.06-0.78-0.04-1.1-0.27q-0.24-0.18-0.39-0.43-0.15-0.26-0.19-0.55-0.04-0.29 0.03-0.58 0.07-0.28 0.25-0.52 0.18-0.23 0.43-0.38 0.26-0.15 0.55-0.19 0.29-0.03 0.57 0.04 0.29 0.08 0.52 0.26z"/>
		<path class="s1" d="m353.18 82.67c-3.02-0.95-6.32 0.01-8.36 2.44-2.04 2.43-2.41 5.84-0.95 8.66 1.46 2.81 4.48 4.46 7.63 4.19 3.16-0.28 5.84-2.43 6.8-5.45q0.47-1.49 0.33-3.04-0.14-1.55-0.85-2.94-0.73-1.38-1.92-2.39-1.19-1-2.68-1.47zm1.74 8.77c-0.52 1.66-1.99 2.84-3.73 2.99-1.73 0.15-3.39-0.76-4.19-2.3-0.8-1.54-0.59-3.42 0.53-4.75 1.12-1.33 2.93-1.86 4.59-1.33q0.81 0.26 1.47 0.81 0.65 0.55 1.04 1.31 0.4 0.75 0.47 1.6 0.07 0.86-0.18 1.67zm-2.98-4.84c-1.43-0.45-3 0.01-3.97 1.16-0.96 1.15-1.14 2.77-0.45 4.11 0.7 1.33 2.13 2.11 3.63 1.98 1.49-0.13 2.77-1.15 3.22-2.58q0.22-0.71 0.16-1.44-0.06-0.74-0.4-1.4-0.35-0.66-0.91-1.13-0.57-0.48-1.28-0.7zm0 0c-1.43-0.45-3 0.01-3.97 1.16-0.96 1.15-1.14 2.77-0.45 4.11 0.7 1.33 2.13 2.11 3.63 1.98 1.49-0.13 2.77-1.15 3.22-2.58q0.22-0.71 0.16-1.44-0.06-0.74-0.4-1.4-0.35-0.66-0.91-1.13-0.57-0.48-1.28-0.7zm0 0c-1.43-0.45-3 0.01-3.97 1.16-0.96 1.15-1.14 2.77-0.45 4.11 0.7 1.33 2.13 2.11 3.63 1.98 1.49-0.13 2.77-1.15 3.22-2.58q0.22-0.71 0.16-1.44-0.06-0.74-0.4-1.4-0.35-0.66-0.91-1.13-0.57-0.48-1.28-0.7zm2.43 4.67c0.45-1.44 0-3-1.16-3.97-1.15-0.97-2.77-1.14-4.11-0.45-1.33 0.7-2.12 2.13-1.98 3.63 0.13 1.5 1.15 2.77 2.59 3.22q0.71 0.22 1.44 0.16 0.74-0.07 1.39-0.41 0.66-0.34 1.13-0.91 0.48-0.57 0.7-1.27zm-2.43-4.67c-1.43-0.45-3 0.01-3.97 1.16-0.96 1.15-1.14 2.77-0.45 4.11 0.7 1.33 2.13 2.11 3.63 1.98 1.49-0.13 2.77-1.15 3.22-2.58q0.22-0.71 0.16-1.44-0.06-0.74-0.4-1.4-0.35-0.66-0.91-1.13-0.57-0.48-1.28-0.7zm0 0c-1.43-0.45-3 0.01-3.97 1.16-0.96 1.15-1.14 2.77-0.45 4.11 0.7 1.33 2.13 2.11 3.63 1.98 1.49-0.13 2.77-1.15 3.22-2.58q0.22-0.71 0.16-1.44-0.06-0.74-0.4-1.4-0.35-0.66-0.91-1.13-0.57-0.48-1.28-0.7zm2 4.53c-0.4 1.26-1.52 2.16-2.83 2.27-1.32 0.12-2.58-0.57-3.19-1.75-0.61-1.17-0.45-2.6 0.4-3.61 0.85-1.01 2.23-1.41 3.49-1.01q0.62 0.2 1.12 0.61 0.49 0.42 0.79 1 0.3 0.58 0.36 1.22 0.05 0.65-0.14 1.27zm0 0c-0.4 1.26-1.52 2.16-2.83 2.27-1.32 0.12-2.58-0.57-3.19-1.75-0.61-1.17-0.45-2.6 0.4-3.61 0.85-1.01 2.23-1.41 3.49-1.01q0.62 0.2 1.12 0.61 0.49 0.42 0.79 1 0.3 0.58 0.36 1.22 0.05 0.65-0.14 1.27zm0 0c-0.4 1.26-1.52 2.16-2.83 2.27-1.32 0.12-2.58-0.57-3.19-1.75-0.61-1.17-0.45-2.6 0.4-3.61 0.85-1.01 2.23-1.41 3.49-1.01q0.62 0.2 1.12 0.61 0.49 0.42 0.79 1 0.3 0.58 0.36 1.22 0.05 0.65-0.14 1.27zm0 0c-0.4 1.26-1.52 2.16-2.83 2.27-1.32 0.12-2.58-0.57-3.19-1.75-0.61-1.17-0.45-2.6 0.4-3.61 0.85-1.01 2.23-1.41 3.49-1.01q0.62 0.2 1.12 0.61 0.49 0.42 0.79 1 0.3 0.58 0.36 1.22 0.05 0.65-0.14 1.27zm0 0c-0.4 1.26-1.52 2.16-2.83 2.27-1.32 0.12-2.58-0.57-3.19-1.75-0.61-1.17-0.45-2.6 0.4-3.61 0.85-1.01 2.23-1.41 3.49-1.01q0.62 0.2 1.12 0.61 0.49 0.42 0.79 1 0.3 0.58 0.36 1.22 0.05 0.65-0.14 1.27zm0 0c-0.4 1.26-1.52 2.16-2.83 2.27-1.32 0.12-2.58-0.57-3.19-1.75-0.61-1.17-0.45-2.6 0.4-3.61 0.85-1.01 2.23-1.41 3.49-1.01q0.62 0.2 1.12 0.61 0.49 0.42 0.79 1 0.3 0.58 0.36 1.22 0.05 0.65-0.14 1.27z"/>
		<path class="s1" d="m350 97.77l-2.87-0.9-0.49 2.08 2.56 0.81 0.8-1.99z"/>
		<path class="s1" d="m344.83 95.08l-1.39-2.68-1.81 1.14 1.23 2.38 1.97-0.84z"/>
		<path class="s1" d="m343.08 89.52l0.91-2.88-2.09-0.48-0.8 2.56 1.98 0.8z"/>
		<path class="s1" d="m345.78 84.35l2.67-1.39-1.13-1.82-2.38 1.24 0.84 1.97z"/>
		<path class="s1" d="m351.34 82.6l2.87 0.9 0.49-2.08-2.56-0.81-0.8 1.99z"/>
		<path class="s1" d="m356.51 85.29l1.39 2.68 1.82-1.14-1.24-2.38-1.97 0.84z"/>
		<path class="s1" d="m358.26 90.85l-0.91 2.88 2.09 0.48 0.8-2.56-1.98-0.8z"/>
		<path class="s1" d="m355.56 96.02l-2.67 1.4 1.13 1.81 2.38-1.24-0.84-1.97z"/>
		<path class="s4" d="m314.98 225.53c-3.02-0.95-6.32 0.01-8.36 2.44-2.04 2.43-2.41 5.84-0.95 8.66 1.46 2.81 4.48 4.46 7.63 4.19 3.16-0.28 5.84-2.43 6.8-5.45q0.47-1.49 0.33-3.04-0.13-1.55-0.85-2.93-0.72-1.39-1.9-2.39-1.2-1-2.68-1.48zm1.74 8.78c-0.52 1.66-1.99 2.84-3.72 2.99-1.74 0.16-3.39-0.75-4.2-2.29-0.8-1.54-0.6-3.42 0.52-4.75 1.12-1.33 2.93-1.86 4.59-1.34q0.81 0.26 1.47 0.81 0.65 0.55 1.04 1.31 0.4 0.75 0.47 1.6 0.07 0.86-0.18 1.67zm-2.99-4.84c-1.44-0.45-3 0-3.97 1.16-0.97 1.15-1.14 2.77-0.45 4.11 0.7 1.33 2.13 2.12 3.63 1.98 1.5-0.13 2.77-1.15 3.22-2.59q0.22-0.71 0.16-1.44-0.07-0.74-0.41-1.39-0.34-0.66-0.91-1.13-0.57-0.48-1.27-0.7zm0 0c-1.44-0.45-3 0-3.97 1.16-0.97 1.15-1.14 2.77-0.45 4.11 0.7 1.33 2.13 2.12 3.63 1.98 1.5-0.13 2.77-1.15 3.22-2.59q0.22-0.71 0.16-1.44-0.07-0.74-0.41-1.39-0.34-0.66-0.91-1.13-0.57-0.48-1.27-0.7zm0 0c-1.44-0.45-3 0-3.97 1.16-0.97 1.15-1.14 2.77-0.45 4.11 0.7 1.33 2.13 2.12 3.63 1.98 1.5-0.13 2.77-1.15 3.22-2.59q0.22-0.71 0.16-1.44-0.07-0.74-0.41-1.39-0.34-0.66-0.91-1.13-0.57-0.48-1.27-0.7zm2.44 4.66c0.45-1.43-0.01-3-1.16-3.97-1.15-0.96-2.77-1.14-4.11-0.45-1.33 0.7-2.11 2.13-1.98 3.63 0.13 1.49 1.15 2.77 2.58 3.22q0.71 0.22 1.44 0.16 0.74-0.07 1.39-0.41 0.66-0.34 1.13-0.91 0.47-0.57 0.71-1.27zm-2.44-4.66c-1.44-0.45-3 0-3.97 1.16-0.97 1.15-1.14 2.77-0.45 4.11 0.7 1.33 2.13 2.12 3.63 1.98 1.5-0.13 2.77-1.15 3.22-2.59q0.22-0.71 0.16-1.44-0.07-0.74-0.41-1.39-0.34-0.66-0.91-1.13-0.57-0.48-1.27-0.7zm0 0c-1.44-0.45-3 0-3.97 1.16-0.97 1.15-1.14 2.77-0.45 4.11 0.7 1.33 2.13 2.12 3.63 1.98 1.5-0.13 2.77-1.15 3.22-2.59q0.22-0.71 0.16-1.44-0.07-0.74-0.41-1.39-0.34-0.66-0.91-1.13-0.57-0.48-1.27-0.7zm2 4.53c-0.4 1.26-1.52 2.16-2.83 2.27-1.32 0.12-2.58-0.57-3.19-1.75-0.61-1.17-0.45-2.6 0.4-3.61 0.85-1.01 2.23-1.41 3.49-1.01q0.62 0.2 1.12 0.61 0.49 0.42 0.79 1 0.3 0.58 0.35 1.22 0.05 0.65-0.13 1.27zm0 0c-0.4 1.26-1.52 2.16-2.83 2.27-1.32 0.12-2.58-0.57-3.19-1.75-0.61-1.17-0.45-2.6 0.4-3.61 0.85-1.01 2.23-1.41 3.49-1.01q0.62 0.2 1.12 0.61 0.49 0.42 0.79 1 0.3 0.58 0.35 1.22 0.05 0.65-0.13 1.27zm0 0c-0.4 1.26-1.52 2.16-2.83 2.27-1.32 0.12-2.58-0.57-3.19-1.75-0.61-1.17-0.45-2.6 0.4-3.61 0.85-1.01 2.23-1.41 3.49-1.01q0.62 0.2 1.12 0.61 0.49 0.42 0.79 1 0.3 0.58 0.35 1.22 0.05 0.65-0.13 1.27zm0 0c-0.4 1.26-1.52 2.16-2.83 2.27-1.32 0.12-2.58-0.57-3.19-1.75-0.61-1.17-0.45-2.6 0.4-3.61 0.85-1.01 2.23-1.41 3.49-1.01q0.62 0.2 1.12 0.61 0.49 0.42 0.79 1 0.3 0.58 0.35 1.22 0.05 0.65-0.13 1.27zm0 0c-0.4 1.26-1.52 2.16-2.83 2.27-1.32 0.12-2.58-0.57-3.19-1.75-0.61-1.17-0.45-2.6 0.4-3.61 0.85-1.01 2.23-1.41 3.49-1.01q0.62 0.2 1.12 0.61 0.49 0.42 0.79 1 0.3 0.58 0.35 1.22 0.05 0.65-0.13 1.27zm0 0c-0.4 1.26-1.52 2.16-2.83 2.27-1.32 0.12-2.58-0.57-3.19-1.75-0.61-1.17-0.45-2.6 0.4-3.61 0.85-1.01 2.23-1.41 3.49-1.01q0.62 0.2 1.12 0.61 0.49 0.42 0.79 1 0.3 0.58 0.35 1.22 0.05 0.65-0.13 1.27z"/>
		<path class="s4" d="m311.79 240.64l-2.88-0.91-0.48 2.09 2.56 0.8 0.8-1.98z"/>
		<path class="s4" d="m306.62 237.94l-1.39-2.67-1.82 1.13 1.24 2.38 1.97-0.84z"/>
		<path class="s4" d="m304.87 232.38l0.9-2.87-2.08-0.48-0.81 2.55 1.99 0.8z"/>
		<path class="s4" d="m307.56 227.21l2.68-1.39-1.14-1.82-2.38 1.24 0.84 1.97z"/>
		<path class="s4" d="m313.12 225.46l2.88 0.91 0.48-2.09-2.56-0.8-0.8 1.98z"/>
		<path class="s4" d="m318.29 228.16l1.39 2.67 1.82-1.13-1.24-2.38-1.97 0.84z"/>
		<path class="s4" d="m320.04 233.72l-0.91 2.87 2.09 0.49 0.81-2.56-1.99-0.8z"/>
		<path class="s4" d="m317.35 238.89l-2.68 1.39 1.14 1.82 2.38-1.24-0.84-1.97z"/>
		<path class="s1" d="m95 117c1.13-4.63-0.65-9.49-4.5-12.3-3.85-2.82-9.01-3.03-13.08-0.56-4.08 2.48-6.26 7.17-5.53 11.88 0.73 4.71 4.23 8.52 8.86 9.65 1.5 0.37 3.07 0.43 4.6 0.19 1.53-0.23 3-0.77 4.32-1.58 1.32-0.8 2.47-1.86 3.39-3.11 0.91-1.25 1.57-2.67 1.94-4.17zm-6.11-1.49c-0.53 2.17-2.32 3.8-4.52 4.14-2.21 0.33-4.4-0.7-5.55-2.61-1.15-1.91-1.04-4.33 0.29-6.12 1.33-1.8 3.62-2.61 5.78-2.06q1.06 0.26 1.94 0.91 0.87 0.65 1.44 1.58 0.56 0.93 0.73 2.01 0.17 1.08-0.09 2.14z"/>
		<path class="s1" d="m83.09 125.72l-4.41-1.07-0.51 3.18 3.91 0.95 1.01-3.06z"/>
		<path class="s1" d="m75.06 122.19l-2.36-3.87-2.61 1.88 2.1 3.45 2.87-1.46z"/>
		<path class="s1" d="m71.88 114.02l1.07-4.4-3.17-0.52-0.96 3.92 3.06 1z"/>
		<path class="s1" d="m75.41 106l3.87-2.36-1.88-2.61-3.44 2.1 1.45 2.87z"/>
		<path class="s1" d="m83.58 102.82l4.41 1.07 0.51-3.18-3.92-0.95-1 3.06z"/>
		<path class="s1" d="m91.61 106.35l2.35 3.87 2.62-1.88-2.1-3.45-2.87 1.46z"/>
		<path class="s1" d="m94.79 114.52l-1.08 4.4 3.18 0.52 0.96-3.92-3.06-1z"/>
		<path class="s1" d="m91.26 122.54l-3.88 2.36 1.89 2.61 3.44-2.09-1.45-2.88z"/>
		<path class="s1" d="m79.89 116.37l3.54 1.93 3.44-2.1-0.09-4-3.54-1.94-3.44 2.09zm3.75-3.37c0.5 0.12 0.88 0.54 0.96 1.05 0.08 0.51-0.16 1.02-0.6 1.29-0.44 0.27-1.01 0.24-1.42-0.06-0.42-0.31-0.61-0.84-0.49-1.34q0.06-0.25 0.21-0.45 0.15-0.21 0.37-0.34 0.22-0.13 0.47-0.17 0.25-0.04 0.5 0.02z"/>
	</g>
	<g id="freepik--speech-bubble--inject-54">
		<path class="s7" d="m361.59 238.94q-1.01-1.5-1.79-3.13-0.78-1.62-1.31-3.35-0.54-1.72-0.81-3.51-0.28-1.78-0.29-3.59c0-17.19 18.88-31.13 42.16-31.13 23.28 0 42.14 13.94 42.14 31.13 0 17.19-18.86 31.14-42.14 31.14-11.29 0-21.52-3.27-29.08-8.61l-14.47 3.69z"/>
		<path class="s4" d="m361.59 238.94c-1.31-1.88-2.35-3.94-3.08-6.12-0.72-2.18-1.14-4.45-1.22-6.74-0.08-2.3 0.16-4.59 0.73-6.81 0.57-2.23 1.46-4.36 2.63-6.33q0.88-1.48 1.91-2.87 1.03-1.38 2.2-2.65 1.17-1.26 2.46-2.4 1.29-1.14 2.7-2.14 1.39-1.01 2.86-1.91 1.47-0.9 3.01-1.69 1.54-0.78 3.13-1.44 1.59-0.66 3.23-1.19 1.64-0.53 3.3-0.97 1.67-0.43 3.36-0.76 1.68-0.33 3.39-0.56 1.7-0.23 3.42-0.36 1.72-0.12 3.44-0.13 1.72-0.01 3.44 0.08 1.72 0.08 3.43 0.27 1.71 0.19 3.41 0.48c1.13 0.23 2.27 0.38 3.38 0.68l3.33 0.9 3.25 1.14c1.08 0.39 2.11 0.92 3.17 1.37q1.57 0.73 3.07 1.59 1.5 0.86 2.92 1.85 1.42 0.98 2.76 2.08 1.33 1.1 2.57 2.31 1.25 1.21 2.34 2.57 1.09 1.35 2.01 2.83 0.92 1.48 1.66 3.05 0.74 1.58 1.28 3.23 0.52 1.67 0.8 3.39 0.27 1.73 0.29 3.48 0.02 1.75-0.22 3.48-0.24 1.73-0.73 3.41-0.52 1.66-1.23 3.25-0.71 1.59-1.61 3.08-0.9 1.49-1.97 2.86-1.07 1.37-2.3 2.6-1.22 1.23-2.54 2.35-1.32 1.13-2.73 2.13-1.41 1.01-2.9 1.89-1.49 0.88-3.05 1.63-1.55 0.75-3.16 1.39-1.6 0.64-3.24 1.17-1.65 0.52-3.32 0.94-1.68 0.41-3.38 0.7-1.69 0.3-3.4 0.5-1.71 0.2-3.43 0.3-1.72 0.1-3.44 0.09-1.72 0-3.44-0.11-1.72-0.1-3.42-0.32-1.71-0.21-3.4-0.53-1.69-0.32-3.36-0.75-1.66-0.43-3.3-0.96-1.64-0.53-3.23-1.18-1.59-0.65-3.13-1.41-1.54-0.77-3.02-1.65-1.47-0.89-2.88-1.88h0.18l-14.52 3.54-0.22 0.05 0.1-0.2zm0 0l-5.54 12.68-0.13-0.15 14.49-3.8h0.1l0.09 0.06q2.83 1.88 5.89 3.36 3.07 1.48 6.3 2.53 3.24 1.05 6.58 1.65 3.35 0.59 6.75 0.73 1.7 0.09 3.39 0.08 1.7-0.01 3.4-0.12 1.69-0.11 3.38-0.32 1.68-0.22 3.35-0.53 1.67-0.29 3.31-0.69 1.65-0.4 3.26-0.92 1.62-0.51 3.19-1.14 1.57-0.63 3.1-1.36 1.52-0.73 2.98-1.6 1.45-0.86 2.83-1.84 1.38-0.98 2.66-2.08 1.29-1.1 2.48-2.3 1.19-1.19 2.22-2.52 1.03-1.33 1.9-2.77 0.86-1.44 1.54-2.98 0.69-1.53 1.18-3.14 0.47-1.61 0.69-3.27 0.23-1.66 0.21-3.34-0.02-1.67-0.29-3.33-0.26-1.65-0.77-3.25-0.52-1.6-1.23-3.12-0.7-1.53-1.59-2.95-0.88-1.43-1.93-2.74-1.05-1.31-2.25-2.49-1.2-1.18-2.5-2.26-1.29-1.08-2.67-2.05-1.39-0.96-2.85-1.81-1.45-0.84-2.98-1.56c-1-0.44-2-1-3.11-1.35l-3.19-1.14-3.27-0.89c-1.09-0.29-2.21-0.45-3.32-0.68q-1.67-0.29-3.36-0.48-1.68-0.19-3.38-0.28-1.69-0.09-3.39-0.09-1.7 0.01-3.39 0.11-1.69 0.11-3.38 0.33-1.68 0.22-3.35 0.54-1.66 0.31-3.31 0.73-1.64 0.42-3.26 0.94-1.62 0.51-3.19 1.14-1.58 0.63-3.1 1.39-1.52 0.75-2.98 1.62-1.46 0.87-2.84 1.85-1.39 0.97-2.67 2.08-1.29 1.11-2.45 2.35-1.16 1.23-2.2 2.58-1.03 1.35-1.92 2.79-0.88 1.46-1.55 3.02-0.67 1.57-1.12 3.21-0.44 1.64-0.65 3.33-0.22 1.69-0.19 3.39 0.05 1.71 0.33 3.39 0.28 1.69 0.79 3.32 0.51 1.62 1.24 3.17 0.73 1.54 1.67 2.97z"/>
		<path class="s1" d="m377.86 230.46v2.32h-9.43v-13.59h9.26v2.32h-6.62v3.27h5.72v2.14h-5.72v3.54z"/>
		<path class="s1" d="m379.93 232.78v-13.59h6q0.22 0 0.45 0.02 0.22 0.03 0.44 0.07 0.22 0.05 0.43 0.13 0.21 0.07 0.41 0.17 0.19 0.09 0.38 0.2 0.18 0.11 0.35 0.24 0.17 0.12 0.33 0.26 0.16 0.14 0.31 0.3 0.14 0.16 0.27 0.33 0.13 0.17 0.24 0.36 0.12 0.18 0.21 0.37 0.1 0.19 0.18 0.39 0.19 0.49 0.26 1 0.08 0.52 0.03 1.04-0.04 0.52-0.2 1.02-0.16 0.49-0.43 0.94-0.15 0.26-0.35 0.49-0.19 0.24-0.42 0.43-0.23 0.2-0.48 0.36-0.26 0.16-0.54 0.28l3.1 5.11h-3l-2.78-4.56h-2.6v4.56zm2.64-6.87h3.31q0.09 0 0.18-0.01 0.08-0.01 0.17-0.03 0.09-0.03 0.17-0.06 0.08-0.03 0.16-0.07 0.08-0.04 0.15-0.1 0.08-0.05 0.15-0.11 0.07-0.06 0.13-0.12 0.06-0.07 0.12-0.14 0.06-0.08 0.11-0.16 0.05-0.09 0.1-0.18 0.04-0.08 0.08-0.17 0.04-0.1 0.07-0.19 0.03-0.1 0.06-0.21 0.02-0.11 0.04-0.21 0.02-0.11 0.02-0.22 0.01-0.11 0.01-0.22 0-0.11-0.01-0.22-0.01-0.12-0.03-0.23-0.01-0.11-0.04-0.22-0.03-0.1-0.07-0.21-0.04-0.1-0.08-0.19-0.04-0.09-0.09-0.18-0.06-0.09-0.11-0.17-0.06-0.08-0.13-0.16-0.06-0.07-0.13-0.14-0.07-0.06-0.14-0.12-0.08-0.06-0.16-0.11-0.08-0.05-0.16-0.09-0.08-0.04-0.16-0.07-0.08-0.03-0.17-0.05-0.09-0.02-0.17-0.03-0.09-0.01-0.18-0.01h-3.2z"/>
		<path class="s1" d="m392.65 232.78v-13.59h6q0.23 0 0.45 0.02 0.22 0.02 0.44 0.07 0.22 0.05 0.43 0.13 0.22 0.07 0.42 0.17 0.19 0.09 0.37 0.2 0.18 0.11 0.36 0.24 0.17 0.12 0.33 0.26 0.15 0.15 0.3 0.3 0.15 0.16 0.28 0.33 0.13 0.17 0.24 0.35 0.11 0.18 0.21 0.38 0.09 0.19 0.17 0.39 0.08 0.19 0.14 0.4 0.06 0.2 0.1 0.4 0.05 0.21 0.07 0.42 0.02 0.21 0.02 0.42 0 0.32-0.04 0.63-0.04 0.31-0.12 0.62-0.08 0.3-0.21 0.59-0.13 0.29-0.29 0.56-0.15 0.26-0.35 0.49-0.19 0.23-0.42 0.43-0.23 0.2-0.48 0.36-0.26 0.16-0.54 0.28l3.1 5.11h-3l-2.77-4.56h-2.6v4.56zm2.65-6.87h3.31q0.09 0 0.18-0.01 0.08-0.01 0.17-0.03 0.09-0.03 0.17-0.06 0.08-0.03 0.16-0.07 0.08-0.04 0.15-0.1 0.08-0.05 0.14-0.11 0.07-0.06 0.13-0.12 0.07-0.07 0.12-0.14 0.06-0.08 0.11-0.16 0.06-0.09 0.1-0.17 0.05-0.09 0.08-0.18 0.04-0.1 0.07-0.19 0.03-0.1 0.06-0.21 0.03-0.11 0.04-0.21 0.02-0.11 0.03-0.22 0.01-0.11 0.01-0.22 0-0.11-0.01-0.22-0.01-0.12-0.03-0.23-0.01-0.11-0.04-0.22-0.03-0.1-0.07-0.21-0.04-0.1-0.08-0.19-0.05-0.09-0.1-0.18-0.05-0.09-0.11-0.17-0.06-0.08-0.13-0.16-0.06-0.07-0.13-0.14-0.07-0.06-0.14-0.12-0.08-0.06-0.16-0.11-0.08-0.05-0.16-0.09-0.08-0.04-0.16-0.07-0.08-0.03-0.17-0.05-0.09-0.02-0.17-0.03-0.09-0.01-0.18-0.01h-3.19z"/>
		<path class="s1" d="m411.18 232.87q-0.35 0.01-0.7-0.03-0.35-0.03-0.69-0.11-0.34-0.07-0.67-0.18-0.33-0.11-0.65-0.26-0.3-0.14-0.58-0.31-0.28-0.17-0.54-0.36-0.26-0.2-0.5-0.42-0.24-0.22-0.46-0.46-0.22-0.24-0.41-0.5-0.2-0.26-0.37-0.54-0.17-0.28-0.31-0.57-0.15-0.29-0.26-0.6-0.12-0.3-0.21-0.62-0.09-0.31-0.15-0.63-0.06-0.32-0.09-0.65-0.03-0.32-0.03-0.65 0-0.33 0.03-0.67 0.03-0.33 0.1-0.66 0.06-0.32 0.16-0.64 0.09-0.32 0.22-0.63 0.12-0.3 0.27-0.6 0.15-0.29 0.32-0.56 0.18-0.28 0.38-0.54 0.2-0.26 0.42-0.5 0.22-0.24 0.47-0.46 0.25-0.21 0.52-0.4 0.26-0.19 0.55-0.36 0.28-0.16 0.58-0.3 0.31-0.14 0.64-0.25 0.32-0.11 0.66-0.18 0.33-0.07 0.68-0.1 0.34-0.03 0.68-0.03 0.35 0 0.69 0.03 0.35 0.04 0.69 0.11 0.34 0.08 0.67 0.19 0.33 0.12 0.64 0.27 0.29 0.14 0.57 0.32 0.28 0.17 0.54 0.37 0.26 0.2 0.5 0.42 0.24 0.22 0.46 0.47 0.22 0.24 0.41 0.51 0.19 0.26 0.36 0.54 0.17 0.28 0.31 0.57 0.14 0.29 0.26 0.6 0.24 0.61 0.37 1.26 0.12 0.64 0.12 1.3 0 0.66-0.12 1.3-0.13 0.65-0.37 1.26-0.12 0.3-0.26 0.59-0.14 0.29-0.31 0.56-0.17 0.27-0.36 0.53-0.19 0.26-0.41 0.5-0.22 0.24-0.47 0.45-0.25 0.22-0.51 0.41-0.27 0.19-0.55 0.35-0.28 0.16-0.58 0.3-0.32 0.14-0.65 0.25-0.33 0.11-0.67 0.18-0.35 0.07-0.69 0.11-0.35 0.03-0.7 0.02zm-3.94-6.87q0 0.22 0.02 0.43 0.01 0.22 0.05 0.43 0.03 0.22 0.08 0.43 0.05 0.21 0.11 0.42 0.06 0.2 0.14 0.39 0.09 0.19 0.18 0.37 0.1 0.18 0.22 0.36 0.11 0.17 0.24 0.33 0.13 0.15 0.27 0.3 0.14 0.14 0.3 0.26 0.16 0.13 0.32 0.24 0.17 0.11 0.35 0.2 0.2 0.1 0.4 0.17 0.21 0.07 0.42 0.12 0.21 0.05 0.43 0.07 0.21 0.02 0.43 0.02 0.22 0 0.44-0.02 0.22-0.02 0.43-0.07 0.21-0.05 0.42-0.12 0.2-0.08 0.4-0.18 0.18-0.1 0.35-0.21 0.17-0.12 0.33-0.25 0.16-0.13 0.3-0.28 0.14-0.15 0.27-0.31 0.13-0.16 0.24-0.34 0.11-0.17 0.2-0.36 0.1-0.18 0.18-0.37 0.08-0.19 0.14-0.39 0.06-0.2 0.11-0.41 0.05-0.2 0.08-0.41 0.04-0.21 0.05-0.42 0.02-0.21 0.02-0.42 0-0.22-0.02-0.43-0.01-0.22-0.05-0.43-0.03-0.22-0.09-0.43-0.05-0.21-0.12-0.41-0.06-0.2-0.14-0.39-0.09-0.19-0.18-0.37-0.1-0.18-0.22-0.36-0.11-0.17-0.24-0.33-0.13-0.16-0.27-0.3-0.14-0.14-0.3-0.27-0.16-0.12-0.33-0.23-0.17-0.11-0.35-0.2-0.39-0.19-0.82-0.28-0.42-0.1-0.85-0.1-0.44 0-0.86 0.1-0.43 0.09-0.82 0.28-0.18 0.09-0.35 0.2-0.17 0.11-0.33 0.23-0.16 0.13-0.3 0.27-0.14 0.14-0.27 0.3-0.13 0.16-0.24 0.34-0.11 0.17-0.2 0.35-0.1 0.18-0.17 0.37-0.08 0.19-0.14 0.39-0.07 0.21-0.12 0.42-0.05 0.21-0.08 0.43-0.04 0.22-0.05 0.43-0.01 0.22-0.01 0.44z"/>
		<path class="s1" d="m419.85 232.78v-13.59h6q0.22 0 0.45 0.02 0.22 0.03 0.44 0.07 0.22 0.05 0.43 0.13 0.21 0.07 0.41 0.17 0.19 0.09 0.38 0.2 0.18 0.11 0.35 0.24 0.17 0.12 0.33 0.26 0.16 0.14 0.31 0.3 0.14 0.16 0.27 0.33 0.13 0.17 0.24 0.36 0.12 0.18 0.21 0.37 0.1 0.19 0.18 0.39 0.19 0.49 0.26 1 0.08 0.52 0.03 1.04-0.04 0.52-0.2 1.02-0.16 0.49-0.43 0.94-0.15 0.26-0.35 0.49-0.19 0.24-0.42 0.43-0.23 0.2-0.48 0.36-0.26 0.16-0.54 0.28l3.1 5.11h-3l-2.78-4.56h-2.6v4.56zm2.64-6.87h3.31q0.09 0 0.18-0.01 0.08-0.01 0.17-0.03 0.09-0.03 0.17-0.06 0.08-0.03 0.16-0.07 0.08-0.04 0.15-0.1 0.08-0.05 0.15-0.11 0.07-0.06 0.13-0.12 0.06-0.07 0.12-0.14 0.06-0.08 0.11-0.16 0.05-0.09 0.1-0.18 0.04-0.08 0.08-0.17 0.04-0.1 0.07-0.19 0.03-0.1 0.06-0.21 0.02-0.11 0.04-0.21 0.02-0.11 0.02-0.22 0.01-0.11 0.01-0.22 0-0.11-0.01-0.22-0.01-0.12-0.03-0.23-0.01-0.11-0.04-0.22-0.03-0.1-0.07-0.21-0.04-0.1-0.08-0.19-0.04-0.09-0.09-0.18-0.06-0.09-0.11-0.17-0.06-0.08-0.13-0.16-0.06-0.07-0.13-0.14-0.07-0.06-0.14-0.12-0.08-0.06-0.16-0.11-0.08-0.05-0.16-0.09-0.08-0.04-0.16-0.07-0.08-0.03-0.17-0.05-0.09-0.02-0.17-0.03-0.09-0.01-0.18-0.01h-3.2z"/>
	</g>
</svg>