<svg viewBox="0 0 18 18" id="icon" fill="currentColor" xmlns="http://www.w3.org/2000/svg">
    <path d="M8.18182 6.54546H11.4546C11.6715 6.54546 11.8797 6.45925 12.0331 6.30582C12.1865 6.15238 12.2727 5.94427 12.2727 5.72727C12.2727 5.51028 12.1865 5.30217 12.0331 5.14873C11.8797 4.99529 11.6715 4.90909 11.4546 4.90909H9.81819V4.09091C9.81819 3.87391 9.73199 3.66581 9.57855 3.51237C9.42511 3.35893 9.217 3.27273 9 3.27273C8.78301 3.27273 8.5749 3.35893 8.42146 3.51237C8.26802 3.66581 8.18182 3.87391 8.18182 4.09091V4.90909C7.53084 4.90909 6.90651 5.1677 6.4462 5.62801C5.98588 6.08833 5.72728 6.71265 5.72728 7.36364C5.72728 8.01462 5.98588 8.63895 6.4462 9.09926C6.90651 9.55958 7.53084 9.81818 8.18182 9.81818H9.81819C10.0352 9.81818 10.2433 9.90438 10.3967 10.0578C10.5502 10.2113 10.6364 10.4194 10.6364 10.6364C10.6364 10.8534 10.5502 11.0615 10.3967 11.2149C10.2433 11.3683 10.0352 11.4545 9.81819 11.4545H6.54546C6.32846 11.4545 6.12036 11.5407 5.96692 11.6942C5.81348 11.8476 5.72728 12.0557 5.72728 12.2727C5.72728 12.4897 5.81348 12.6978 5.96692 12.8513C6.12036 13.0047 6.32846 13.0909 6.54546 13.0909H8.18182V13.9091C8.18182 14.1261 8.26802 14.3342 8.42146 14.4876C8.5749 14.6411 8.78301 14.7273 9 14.7273C9.217 14.7273 9.42511 14.6411 9.57855 14.4876C9.73199 14.3342 9.81819 14.1261 9.81819 13.9091V13.0909C10.4692 13.0909 11.0935 12.8323 11.5538 12.372C12.0141 11.9117 12.2727 11.2874 12.2727 10.6364C12.2727 9.98538 12.0141 9.36106 11.5538 8.90074C11.0935 8.44042 10.4692 8.18182 9.81819 8.18182H8.18182C7.96483 8.18182 7.75672 8.09562 7.60328 7.94218C7.44984 7.78874 7.36364 7.58063 7.36364 7.36364C7.36364 7.14664 7.44984 6.93853 7.60328 6.7851C7.75672 6.63166 7.96483 6.54546 8.18182 6.54546ZM9 0C7.21997 0 5.47992 0.527841 3.99987 1.51677C2.51983 2.50571 1.36628 3.91131 0.685088 5.55585C0.00389959 7.20039 -0.17433 9.00998 0.172937 10.7558C0.520204 12.5016 1.37737 14.1053 2.63604 15.364C3.89472 16.6226 5.49836 17.4798 7.24419 17.8271C8.99002 18.1743 10.7996 17.9961 12.4442 17.3149C14.0887 16.6337 15.4943 15.4802 16.4832 14.0001C17.4722 12.5201 18 10.78 18 9C18 6.61305 17.0518 4.32387 15.364 2.63604C13.6761 0.948212 11.387 0 9 0ZM9 16.3636C7.54362 16.3636 6.11993 15.9318 4.90899 15.1226C3.69804 14.3135 2.75423 13.1635 2.19689 11.8179C1.63956 10.4724 1.49373 8.99183 1.77786 7.56343C2.06199 6.13502 2.7633 4.82295 3.79313 3.79312C4.82295 2.7633 6.13503 2.06198 7.56343 1.77785C8.99184 1.49373 10.4724 1.63955 11.8179 2.19689C13.1635 2.75422 14.3135 3.69804 15.1226 4.90898C15.9318 6.11993 16.3636 7.54361 16.3636 9C16.3636 10.953 15.5878 12.8259 14.2069 14.2069C12.8259 15.5878 10.953 16.3636 9 16.3636Z"
          fill="currentColor"/>
</svg>
