<svg viewBox="0 0 18 18" id="icon" fill="currentColor" xmlns="http://www.w3.org/2000/svg">
    <path d="M10.8 6.3H7.2C6.96131 6.3 6.73239 6.39482 6.5636 6.5636C6.39482 6.73239 6.3 6.96131 6.3 7.2V10.8C6.3 11.0387 6.39482 11.2676 6.5636 11.4364C6.73239 11.6052 6.96131 11.7 7.2 11.7H10.8C11.0387 11.7 11.2676 11.6052 11.4364 11.4364C11.6052 11.2676 11.7 11.0387 11.7 10.8V7.2C11.7 6.96131 11.6052 6.73239 11.4364 6.5636C11.2676 6.39482 11.0387 6.3 10.8 6.3ZM9.9 9.9H8.1V8.1H9.9V9.9ZM17.1 9.9C17.3387 9.9 17.5676 9.80518 17.7364 9.6364C17.9052 9.46761 18 9.23869 18 9C18 8.7613 17.9052 8.53239 17.7364 8.3636C17.5676 8.19482 17.3387 8.1 17.1 8.1H15.3V6.3H17.1C17.3387 6.3 17.5676 6.20518 17.7364 6.0364C17.9052 5.86761 18 5.63869 18 5.4C18 5.1613 17.9052 4.93239 17.7364 4.7636C17.5676 4.59482 17.3387 4.5 17.1 4.5H15.138C15.0036 4.12254 14.7869 3.77972 14.5036 3.49641C14.2203 3.2131 13.8775 2.99639 13.5 2.862V0.9C13.5 0.661305 13.4052 0.432387 13.2364 0.263604C13.0676 0.0948211 12.8387 0 12.6 0C12.3613 0 12.1324 0.0948211 11.9636 0.263604C11.7948 0.432387 11.7 0.661305 11.7 0.9V2.7H9.9V0.9C9.9 0.661305 9.80518 0.432387 9.6364 0.263604C9.46761 0.0948211 9.23869 0 9 0C8.7613 0 8.53239 0.0948211 8.3636 0.263604C8.19482 0.432387 8.1 0.661305 8.1 0.9V2.7H6.3V0.9C6.3 0.661305 6.20518 0.432387 6.0364 0.263604C5.86761 0.0948211 5.63869 0 5.4 0C5.1613 0 4.93239 0.0948211 4.7636 0.263604C4.59482 0.432387 4.5 0.661305 4.5 0.9V2.862C4.12254 2.99639 3.77972 3.2131 3.49641 3.49641C3.2131 3.77972 2.99639 4.12254 2.862 4.5H0.9C0.661305 4.5 0.432387 4.59482 0.263604 4.7636C0.0948211 4.93239 0 5.1613 0 5.4C0 5.63869 0.0948211 5.86761 0.263604 6.0364C0.432387 6.20518 0.661305 6.3 0.9 6.3H2.7V8.1H0.9C0.661305 8.1 0.432387 8.19482 0.263604 8.3636C0.0948211 8.53239 0 8.7613 0 9C0 9.23869 0.0948211 9.46761 0.263604 9.6364C0.432387 9.80518 0.661305 9.9 0.9 9.9H2.7V11.7H0.9C0.661305 11.7 0.432387 11.7948 0.263604 11.9636C0.0948211 12.1324 0 12.3613 0 12.6C0 12.8387 0.0948211 13.0676 0.263604 13.2364C0.432387 13.4052 0.661305 13.5 0.9 13.5H2.862C2.99639 13.8775 3.2131 14.2203 3.49641 14.5036C3.77972 14.7869 4.12254 15.0036 4.5 15.138V17.1C4.5 17.3387 4.59482 17.5676 4.7636 17.7364C4.93239 17.9052 5.1613 18 5.4 18C5.63869 18 5.86761 17.9052 6.0364 17.7364C6.20518 17.5676 6.3 17.3387 6.3 17.1V15.3H8.1V17.1C8.1 17.3387 8.19482 17.5676 8.3636 17.7364C8.53239 17.9052 8.7613 18 9 18C9.23869 18 9.46761 17.9052 9.6364 17.7364C9.80518 17.5676 9.9 17.3387 9.9 17.1V15.3H11.7V17.1C11.7 17.3387 11.7948 17.5676 11.9636 17.7364C12.1324 17.9052 12.3613 18 12.6 18C12.8387 18 13.0676 17.9052 13.2364 17.7364C13.4052 17.5676 13.5 17.3387 13.5 17.1V15.138C13.8775 15.0036 14.2203 14.7869 14.5036 14.5036C14.7869 14.2203 15.0036 13.8775 15.138 13.5H17.1C17.3387 13.5 17.5676 13.4052 17.7364 13.2364C17.9052 13.0676 18 12.8387 18 12.6C18 12.3613 17.9052 12.1324 17.7364 11.9636C17.5676 11.7948 17.3387 11.7 17.1 11.7H15.3V9.9H17.1ZM13.5 12.6C13.5 12.8387 13.4052 13.0676 13.2364 13.2364C13.0676 13.4052 12.8387 13.5 12.6 13.5H5.4C5.1613 13.5 4.93239 13.4052 4.7636 13.2364C4.59482 13.0676 4.5 12.8387 4.5 12.6V5.4C4.5 5.1613 4.59482 4.93239 4.7636 4.7636C4.93239 4.59482 5.1613 4.5 5.4 4.5H12.6C12.8387 4.5 13.0676 4.59482 13.2364 4.7636C13.4052 4.93239 13.5 5.1613 13.5 5.4V12.6Z"
          fill="currentColor"/>
</svg>
