<svg viewBox="0 0 18 18" id="icon" fill="currentColor" xmlns="http://www.w3.org/2000/svg">
    <path d="M18 11.5743V11.5293C17.9891 11.3555 17.959 11.1834 17.91 11.0163L16.434 2.25925C16.3286 1.622 15.9982 1.04367 15.5028 0.629202C15.0074 0.21473 14.3799 -0.00842115 13.734 0.000243141H4.22101C3.58288 0.00230972 2.9661 0.230329 2.48009 0.643854C1.99407 1.05738 1.67023 1.62968 1.566 2.25925L0.108 10.9983C0.0590765 11.1654 0.0288911 11.3375 0.018 11.5113V11.5563C-1.67638e-08 11.6193 0 11.7003 0 11.7003V15.3003C0 16.0164 0.284464 16.7031 0.790813 17.2095C1.29716 17.7158 1.98392 18.0003 2.7 18.0003H15.3C16.0161 18.0003 16.7029 17.7158 17.2092 17.2095C17.7156 16.7031 18 16.0164 18 15.3003V11.7003C18 11.7003 18 11.6193 18 11.5743ZM3.339 2.54725C3.37544 2.33593 3.48612 2.14457 3.65112 2.00762C3.81612 1.87067 4.0246 1.79713 4.23901 1.80025H13.779C13.9934 1.79713 14.2019 1.87067 14.3669 2.00762C14.5319 2.14457 14.6426 2.33593 14.679 2.54725L15.759 9.04526C15.6079 9.01535 15.4541 9.00028 15.3 9.00026H2.7C2.55192 9.00143 2.40427 9.01649 2.259 9.04526L3.339 2.54725ZM16.2 15.3003C16.2 15.539 16.1052 15.7679 15.9364 15.9367C15.7676 16.1054 15.5387 16.2003 15.3 16.2003H2.7C2.46131 16.2003 2.23239 16.1054 2.06361 15.9367C1.89482 15.7679 1.8 15.539 1.8 15.3003V11.7723L1.872 11.3583C1.93952 11.1939 2.05418 11.0532 2.20153 10.9539C2.34888 10.8546 2.52232 10.8011 2.7 10.8003H15.3C15.4777 10.8011 15.6512 10.8546 15.7985 10.9539C15.9458 11.0532 16.0605 11.1939 16.128 11.3583L16.2 11.7723V15.3003ZM13.5 12.6003C13.322 12.6003 13.148 12.653 13 12.7519C12.852 12.8508 12.7366 12.9914 12.6685 13.1558C12.6004 13.3203 12.5826 13.5013 12.6173 13.6758C12.652 13.8504 12.7378 14.0108 12.8636 14.1367C12.9895 14.2625 13.1499 14.3482 13.3244 14.383C13.499 14.4177 13.68 14.3999 13.8444 14.3318C14.0089 14.2636 14.1495 14.1483 14.2483 14.0003C14.3472 13.8523 14.4 13.6783 14.4 13.5003C14.4 13.2616 14.3052 13.0326 14.1364 12.8639C13.9676 12.6951 13.7387 12.6003 13.5 12.6003Z"
          fill="currentColor"/>
</svg>
