<svg viewBox="0 0 16 18" id="icon" fill="currentColor" xmlns="http://www.w3.org/2000/svg">
    <path d="M4.70222 10.161C4.61891 10.2447 4.55278 10.3442 4.50765 10.4539C4.46252 10.5636 4.43929 10.6812 4.43929 10.8C4.43929 10.9188 4.46252 11.0364 4.50765 11.1461C4.55278 11.2558 4.61891 11.3553 4.70222 11.439L7.36889 14.139C7.45152 14.2234 7.54983 14.2903 7.65815 14.336C7.76647 14.3817 7.88266 14.4052 8 14.4052C8.11734 14.4052 8.23353 14.3817 8.34185 14.336C8.45017 14.2903 8.54848 14.2234 8.63111 14.139L11.2978 11.439C11.4652 11.2695 11.5592 11.0397 11.5592 10.8C11.5592 10.5603 11.4652 10.3305 11.2978 10.161C11.1304 9.99153 10.9034 9.89632 10.6667 9.89632C10.43 9.89632 10.2029 9.99153 10.0356 10.161L8.88889 11.331V0.9C8.88889 0.661305 8.79524 0.432387 8.62854 0.263604C8.46184 0.0948211 8.23575 0 8 0C7.76425 0 7.53816 0.0948211 7.37146 0.263604C7.20476 0.432387 7.11111 0.661305 7.11111 0.9V11.331L5.96444 10.161C5.88181 10.0766 5.7835 10.0097 5.67518 9.964C5.56686 9.91831 5.45068 9.89478 5.33333 9.89478C5.21599 9.89478 5.09981 9.91831 4.99149 9.964C4.88317 10.0097 4.78486 10.0766 4.70222 10.161ZM13.3333 6.3H11.5556C11.3198 6.3 11.0937 6.39482 10.927 6.5636C10.7603 6.73239 10.6667 6.9613 10.6667 7.2C10.6667 7.43869 10.7603 7.66761 10.927 7.8364C11.0937 8.00518 11.3198 8.1 11.5556 8.1H13.3333C13.5691 8.1 13.7952 8.19482 13.9619 8.3636C14.1286 8.53239 14.2222 8.7613 14.2222 9V15.3C14.2222 15.5387 14.1286 15.7676 13.9619 15.9364C13.7952 16.1052 13.5691 16.2 13.3333 16.2H2.66667C2.43092 16.2 2.20483 16.1052 2.03813 15.9364C1.87143 15.7676 1.77778 15.5387 1.77778 15.3V9C1.77778 8.7613 1.87143 8.53239 2.03813 8.3636C2.20483 8.19482 2.43092 8.1 2.66667 8.1H4.44444C4.68019 8.1 4.90628 8.00518 5.07298 7.8364C5.23968 7.66761 5.33333 7.43869 5.33333 7.2C5.33333 6.9613 5.23968 6.73239 5.07298 6.5636C4.90628 6.39482 4.68019 6.3 4.44444 6.3H2.66667C1.95942 6.3 1.28115 6.58446 0.781049 7.09081C0.280952 7.59716 0 8.28392 0 9V15.3C0 16.0161 0.280952 16.7028 0.781049 17.2092C1.28115 17.7155 1.95942 18 2.66667 18H13.3333C14.0406 18 14.7189 17.7155 15.219 17.2092C15.719 16.7028 16 16.0161 16 15.3V9C16 8.28392 15.719 7.59716 15.219 7.09081C14.7189 6.58446 14.0406 6.3 13.3333 6.3Z"
          fill="currentColor"/>
</svg>
