<svg viewBox="0 0 18 15" id="icon" fill="currentColor" xmlns="http://www.w3.org/2000/svg">
    <path d="M17.8037 6.14168C17.7267 6.04499 17.6295 5.96711 17.5192 5.91376C17.4089 5.8604 17.2882 5.83292 17.1661 5.83334H15.5312V5.00001C15.5312 4.33697 15.2728 3.70109 14.8129 3.23225C14.3531 2.76341 13.7293 2.50002 13.0789 2.50002H7.94544L7.68386 1.66668C7.51429 1.17771 7.19974 0.754604 6.78379 0.455985C6.36784 0.157367 5.87109 -0.00198075 5.36235 1.85863e-05H2.4523C1.80191 1.85863e-05 1.17816 0.26341 0.718261 0.732251C0.258366 1.20109 0 1.83698 0 2.50002V12.5C0 13.163 0.258366 13.7989 0.718261 14.2678C1.17816 14.7366 1.80191 15 2.4523 15H14.2233C14.7802 14.9983 15.3199 14.8035 15.7537 14.4476C16.1875 14.0917 16.4896 13.5959 16.6102 13.0417L17.9835 6.85001C18.0084 6.72578 18.0051 6.5974 17.9739 6.47465C17.9428 6.3519 17.8845 6.23802 17.8037 6.14168ZM3.57218 12.6833C3.53065 12.8713 3.4265 13.0388 3.27747 13.1573C3.12843 13.2758 2.94371 13.338 2.75475 13.3333H2.4523C2.2355 13.3333 2.02758 13.2455 1.87428 13.0893C1.72099 12.933 1.63486 12.721 1.63486 12.5V2.50002C1.63486 2.279 1.72099 2.06704 1.87428 1.91076C2.02758 1.75448 2.2355 1.66668 2.4523 1.66668H5.36235C5.54061 1.6572 5.71701 1.70746 5.86461 1.80978C6.01222 1.9121 6.12291 2.06087 6.17979 2.23335L6.6212 3.60001C6.67366 3.75897 6.77193 3.89809 6.90319 3.99919C7.03445 4.10029 7.19257 4.15866 7.35689 4.16668H13.0789C13.2957 4.16668 13.5036 4.25448 13.6569 4.41076C13.8102 4.56704 13.8963 4.779 13.8963 5.00001V5.83334H5.72202C5.53307 5.82864 5.34834 5.89083 5.19931 6.00934C5.05027 6.12786 4.94612 6.29536 4.90459 6.48334L3.57218 12.6833ZM15.0162 12.6833C14.9747 12.8713 14.8706 13.0388 14.7215 13.1573C14.5725 13.2758 14.3878 13.338 14.1988 13.3333H5.07625C5.11847 13.2405 5.1487 13.1424 5.16617 13.0417L6.37597 7.50001H16.1852L15.0162 12.6833Z"
          fill="currentColor"/>
</svg>
