<svg viewBox="0 0 17 18" id="icon" fill="currentColor" xmlns="http://www.w3.org/2000/svg">
    <path d="M7.0832 15.955C7.08318 15.8351 7.05635 15.7166 7.00461 15.608C6.95287 15.4994 6.87749 15.4033 6.78381 15.3265C6.69012 15.2498 6.58043 15.1942 6.4625 15.1638C6.34457 15.1334 6.2213 15.1289 6.10141 15.1507C5.01328 15.3472 3.63942 15.3767 3.27414 14.3671C2.95562 13.5851 2.42802 12.9025 1.74727 12.3917C1.6987 12.3657 1.65241 12.3358 1.60887 12.3022C1.54929 12.1476 1.44347 12.0143 1.30536 11.92C1.16726 11.8258 1.00336 11.7749 0.835283 11.7742H0.831227C0.611453 11.7741 0.400598 11.8597 0.244814 12.0123C0.0890305 12.1648 0.00100757 12.3719 1.16544e-05 12.5882C-0.0032384 13.2552 0.674127 13.6825 0.948927 13.8271C1.27297 14.1475 1.5334 14.5246 1.71683 14.939C2.01961 15.7762 2.89952 17.0462 5.42889 16.8825C5.42972 16.9113 5.43051 16.9384 5.43092 16.9632L5.43457 17.182C5.43457 17.399 5.52214 17.607 5.67802 17.7604C5.83391 17.9138 6.04533 18 6.26578 18C6.48623 18 6.69766 17.9138 6.85354 17.7604C7.00942 17.607 7.097 17.399 7.097 17.182L7.09294 16.9216C7.08888 16.7666 7.0832 16.5422 7.0832 15.955ZM15.9498 3.58256C15.9762 3.48032 16.0021 3.36689 16.0249 3.23908C16.1593 2.32754 16.0421 1.39719 15.6856 0.545538C15.6406 0.43451 15.5714 0.33451 15.483 0.252546C15.3946 0.170583 15.2891 0.108641 15.1738 0.0710628C14.8778 -0.0271907 13.7853 -0.2205 11.6959 1.09351C9.95909 0.691318 8.15114 0.691318 6.41434 1.09351C4.33345 -0.201253 3.24654 -0.0255548 2.9535 0.0671038C2.83536 0.10316 2.72691 0.164774 2.6361 0.24743C2.5453 0.330086 2.47444 0.431689 2.42872 0.544793C2.06489 1.4128 1.94897 2.36212 2.09347 3.29023C2.11377 3.39487 2.13568 3.49153 2.15841 3.58019C1.46981 4.48276 1.10303 5.58368 1.11493 6.71225C1.11269 6.96404 1.12447 7.21577 1.15024 7.4663C1.42787 11.231 3.92151 12.3613 5.65901 12.7495C5.62289 12.8518 5.59002 12.9612 5.56079 13.077C5.50871 13.2875 5.54356 13.5097 5.65771 13.6949C5.77186 13.8801 5.95599 14.0132 6.16972 14.065C6.38345 14.1168 6.60933 14.0831 6.79785 13.9713C6.98636 13.8594 7.12211 13.6786 7.17533 13.4684C7.22822 13.1959 7.36378 12.9455 7.56416 12.7503C7.68531 12.6459 7.77303 12.5092 7.81664 12.3566C7.86025 12.2041 7.85788 12.0424 7.8098 11.8911C7.76173 11.7399 7.67003 11.6057 7.54586 11.5048C7.42169 11.4039 7.2704 11.3407 7.1104 11.3229C4.23929 11.0002 2.99287 9.8491 2.80536 7.31614C2.78459 7.11552 2.77524 6.91391 2.77736 6.71226C2.76402 5.90792 3.03406 5.12384 3.5416 4.49322C3.5926 4.42747 3.64692 4.36428 3.70436 4.3039C3.80612 4.19184 3.87455 4.05436 3.90211 3.90654C3.92968 3.75872 3.91533 3.60629 3.86063 3.46597C3.80455 3.31835 3.76137 3.1663 3.73156 3.01145C3.66384 2.57116 3.68606 2.12199 3.7969 1.69025C4.51933 1.89104 5.19925 2.21787 5.80428 2.65518C5.90433 2.72076 6.01755 2.7644 6.13624 2.78315C6.25494 2.80189 6.37635 2.7953 6.49223 2.76382C8.1722 2.31517 9.94337 2.31545 11.6232 2.76464C11.7397 2.79609 11.8618 2.8023 11.9809 2.78286C12.1001 2.76341 12.2136 2.71878 12.3136 2.65202C12.9158 2.21288 13.5928 1.88313 14.3129 1.67829C14.4232 2.09967 14.4479 2.53834 14.3855 2.96913C14.3554 3.13889 14.3084 3.30531 14.2451 3.46599C14.1904 3.6063 14.176 3.75874 14.2036 3.90655C14.2312 4.05437 14.2996 4.19186 14.4014 4.30392C14.4655 4.375 14.5296 4.45169 14.5872 4.52358C15.0912 5.14353 15.3567 5.91859 15.3369 6.71225C15.3384 6.9246 15.328 7.13687 15.3057 7.34808C15.1226 9.84749 13.8713 10.9994 10.9868 11.3229C10.8268 11.3408 10.6755 11.4041 10.5513 11.5051C10.4272 11.6061 10.3355 11.7404 10.2875 11.8917C10.2394 12.043 10.2371 12.2048 10.2808 12.3573C10.3245 12.5099 10.4123 12.6467 10.5335 12.7511C10.7401 12.9515 10.876 13.2119 10.9211 13.494C10.9772 13.7129 11.0031 13.9384 10.9978 14.1642V16.0733C10.9897 16.6029 10.9897 16.9999 10.9897 17.182C10.9897 17.3989 11.0772 17.607 11.2331 17.7604C11.389 17.9138 11.6004 18 11.8209 18C12.0413 18 12.2527 17.9138 12.4086 17.7604C12.5645 17.607 12.6521 17.3989 12.6521 17.182C12.6521 17.0047 12.6521 16.6157 12.6602 16.0861V14.1642C12.6669 13.8025 12.6236 13.4416 12.5315 13.0914C12.5052 12.9764 12.473 12.8629 12.4349 12.7511C13.6994 12.5444 14.8484 11.9028 15.6772 10.9406C16.506 9.97845 16.961 8.75804 16.9612 7.49666C16.9886 7.23608 17.0013 6.97421 16.9993 6.71225C17.0178 5.58245 16.648 4.47963 15.9498 3.58256Z"
          fill="currentColor"/>
</svg>
