<svg viewBox="0 0 15 18" id="icon" fill="currentColor" xmlns="http://www.w3.org/2000/svg">
    <path d="M8.4375 10.8H4.6875C4.43886 10.8 4.2004 10.8948 4.02459 11.0636C3.84877 11.2324 3.75 11.4613 3.75 11.7C3.75 11.9387 3.84877 12.1676 4.02459 12.3364C4.2004 12.5052 4.43886 12.6 4.6875 12.6H8.4375C8.68614 12.6 8.9246 12.5052 9.10041 12.3364C9.27623 12.1676 9.375 11.9387 9.375 11.7C9.375 11.4613 9.27623 11.2324 9.10041 11.0636C8.9246 10.8948 8.68614 10.8 8.4375 10.8ZM12.1875 1.8H11.0812C10.8878 1.27481 10.5299 0.819898 10.0566 0.497645C9.58331 0.175391 9.01776 0.00156556 8.4375 0H6.5625C5.98224 0.00156556 5.41669 0.175391 4.94338 0.497645C4.47007 0.819898 4.11217 1.27481 3.91875 1.8H2.8125C2.06658 1.8 1.35121 2.08446 0.823762 2.59081C0.296316 3.09716 0 3.78392 0 4.5V15.3C0 16.0161 0.296316 16.7028 0.823762 17.2092C1.35121 17.7155 2.06658 18 2.8125 18H12.1875C12.9334 18 13.6488 17.7155 14.1762 17.2092C14.7037 16.7028 15 16.0161 15 15.3V4.5C15 3.78392 14.7037 3.09716 14.1762 2.59081C13.6488 2.08446 12.9334 1.8 12.1875 1.8ZM5.625 2.7C5.625 2.46131 5.72377 2.23239 5.89959 2.0636C6.0754 1.89482 6.31386 1.8 6.5625 1.8H8.4375C8.68614 1.8 8.9246 1.89482 9.10041 2.0636C9.27623 2.23239 9.375 2.46131 9.375 2.7V3.6H5.625V2.7ZM13.125 15.3C13.125 15.5387 13.0262 15.7676 12.8504 15.9364C12.6746 16.1052 12.4361 16.2 12.1875 16.2H2.8125C2.56386 16.2 2.3254 16.1052 2.14959 15.9364C1.97377 15.7676 1.875 15.5387 1.875 15.3V4.5C1.875 4.2613 1.97377 4.03239 2.14959 3.8636C2.3254 3.69482 2.56386 3.6 2.8125 3.6H3.75V4.5C3.75 4.73869 3.84877 4.96761 4.02459 5.1364C4.2004 5.30518 4.43886 5.4 4.6875 5.4H10.3125C10.5611 5.4 10.7996 5.30518 10.9754 5.1364C11.1512 4.96761 11.25 4.73869 11.25 4.5V3.6H12.1875C12.4361 3.6 12.6746 3.69482 12.8504 3.8636C13.0262 4.03239 13.125 4.2613 13.125 4.5V15.3ZM10.3125 7.2H4.6875C4.43886 7.2 4.2004 7.29482 4.02459 7.4636C3.84877 7.63239 3.75 7.8613 3.75 8.1C3.75 8.33869 3.84877 8.56761 4.02459 8.7364C4.2004 8.90518 4.43886 9 4.6875 9H10.3125C10.5611 9 10.7996 8.90518 10.9754 8.7364C11.1512 8.56761 11.25 8.33869 11.25 8.1C11.25 7.8613 11.1512 7.63239 10.9754 7.4636C10.7996 7.29482 10.5611 7.2 10.3125 7.2Z"
          fill="currentColor"/>
</svg>
