<svg viewBox="0 0 18 18" id="icon" fill="currentColor" xmlns="http://www.w3.org/2000/svg">
    <path d="M1.5 9C1.5 9.23869 1.59877 9.46761 1.77459 9.6364C1.9504 9.80518 2.18886 9.9 2.4375 9.9H9.55313L7.39687 11.961C7.309 12.0447 7.23926 12.1442 7.19166 12.2539C7.14407 12.3636 7.11956 12.4812 7.11956 12.6C7.11956 12.7188 7.14407 12.8364 7.19166 12.9461C7.23926 13.0558 7.309 13.1553 7.39687 13.239C7.48403 13.3234 7.58772 13.3903 7.70196 13.436C7.8162 13.4817 7.93874 13.5052 8.0625 13.5052C8.18626 13.5052 8.3088 13.4817 8.42304 13.436C8.53728 13.3903 8.64097 13.3234 8.72813 13.239L12.4781 9.639C12.5635 9.55341 12.6304 9.45248 12.675 9.342C12.7688 9.12288 12.7688 8.87712 12.675 8.658C12.6304 8.54752 12.5635 8.44659 12.4781 8.361L8.72813 4.761C8.64071 4.67709 8.53694 4.61052 8.42273 4.56511C8.30853 4.51969 8.18612 4.49632 8.0625 4.49632C7.93888 4.49632 7.81647 4.51969 7.70227 4.56511C7.58806 4.61052 7.48429 4.67709 7.39687 4.761C7.30946 4.84491 7.24013 4.94454 7.19282 5.05418C7.14551 5.16382 7.12116 5.28133 7.12116 5.4C7.12116 5.51867 7.14551 5.63618 7.19282 5.74582C7.24013 5.85546 7.30946 5.95509 7.39687 6.039L9.55313 8.1H2.4375C2.18886 8.1 1.9504 8.19482 1.77459 8.3636C1.59877 8.53239 1.5 8.7613 1.5 9ZM13.6875 0H4.3125C3.56658 0 2.85121 0.284464 2.32376 0.790812C1.79632 1.29716 1.5 1.98392 1.5 2.7V5.4C1.5 5.63869 1.59877 5.86761 1.77459 6.0364C1.9504 6.20518 2.18886 6.3 2.4375 6.3C2.68614 6.3 2.9246 6.20518 3.10041 6.0364C3.27623 5.86761 3.375 5.63869 3.375 5.4V2.7C3.375 2.46131 3.47377 2.23239 3.64959 2.0636C3.8254 1.89482 4.06386 1.8 4.3125 1.8H13.6875C13.9361 1.8 14.1746 1.89482 14.3504 2.0636C14.5262 2.23239 14.625 2.46131 14.625 2.7V15.3C14.625 15.5387 14.5262 15.7676 14.3504 15.9364C14.1746 16.1052 13.9361 16.2 13.6875 16.2H4.3125C4.06386 16.2 3.8254 16.1052 3.64959 15.9364C3.47377 15.7676 3.375 15.5387 3.375 15.3V12.6C3.375 12.3613 3.27623 12.1324 3.10041 11.9636C2.9246 11.7948 2.68614 11.7 2.4375 11.7C2.18886 11.7 1.9504 11.7948 1.77459 11.9636C1.59877 12.1324 1.5 12.3613 1.5 12.6V15.3C1.5 16.0161 1.79632 16.7028 2.32376 17.2092C2.85121 17.7155 3.56658 18 4.3125 18H13.6875C14.4334 18 15.1488 17.7155 15.6762 17.2092C16.2037 16.7028 16.5 16.0161 16.5 15.3V2.7C16.5 1.98392 16.2037 1.29716 15.6762 0.790812C15.1488 0.284464 14.4334 0 13.6875 0Z"
          fill="currentColor"/>
</svg>
