<svg viewBox="0 0 18 18" id="icon" fill="currentColor" xmlns="http://www.w3.org/2000/svg">
    <path d="M17.7599 4.91285L13.1281 0.239463C13.051 0.162937 12.9595 0.102393 12.8589 0.0613035C12.7583 0.0202135 12.6506 -0.000614459 12.5419 1.38008e-05C12.3253 0.000925872 12.1178 0.0869221 11.964 0.239463L0.240087 11.9229C0.0863126 12.0776 0 12.2869 0 12.505C0 12.7232 0.0863126 12.9324 0.240087 13.0872L4.91314 17.7605C4.99029 17.8371 5.08178 17.8976 5.18237 17.9387C5.28297 17.9798 5.39068 18.0006 5.49934 18C5.71593 17.9991 5.92349 17.9131 6.07728 17.7605L8.4138 15.4238L15.4234 8.41376L17.7599 6.07707C17.9137 5.92237 18 5.71309 18 5.49496C18 5.27682 17.9137 5.06755 17.7599 4.91285ZM14.8372 6.66331L14.251 6.07707C14.0963 5.92328 13.887 5.83697 13.6689 5.83697C13.4508 5.83697 13.2416 5.92328 13.0869 6.07707C13.0095 6.15383 12.9481 6.24515 12.9061 6.34577C12.8642 6.44638 12.8426 6.55431 12.8426 6.66331C12.8426 6.77231 12.8642 6.88023 12.9061 6.98085C12.9481 7.08146 13.0095 7.17279 13.0869 7.24954L13.6731 7.83578L12.5007 9L10.7503 7.24954C10.5924 7.11427 10.3892 7.04359 10.1814 7.05162C9.97364 7.05964 9.77653 7.14579 9.62949 7.29284C9.48245 7.43989 9.39631 7.63701 9.38828 7.84482C9.38026 8.05263 9.45094 8.25581 9.5862 8.41376L11.3365 10.1642L10.1641 11.3367L9.5862 10.7505C9.43073 10.595 9.21987 10.5076 9 10.5076C8.78013 10.5076 8.56927 10.595 8.4138 10.7505C8.25834 10.9059 8.17099 11.1168 8.17099 11.3367C8.17099 11.5566 8.25834 11.7675 8.4138 11.9229L9 12.5009L7.83586 13.6734L6.07728 11.9229C5.92258 11.7691 5.71333 11.6828 5.49521 11.6828C5.27709 11.6828 5.06783 11.7691 4.91314 11.9229C4.75937 12.0776 4.67305 12.2869 4.67305 12.505C4.67305 12.7232 4.75937 12.9324 4.91314 13.0872L6.66347 14.8376L5.49934 16.0101L1.99042 12.5009L12.5007 1.98992L16.0096 5.49909L14.8372 6.66331Z"
          fill="currentColor"/>
</svg>
