<svg viewBox="0 0 18 18" id="icon" fill="currentColor" xmlns="http://www.w3.org/2000/svg">
    <path d="M17.1 8.10132C16.8613 8.10132 16.6324 8.19614 16.4636 8.36492C16.2948 8.53371 16.2 8.76263 16.2 9.00132C16.2107 10.687 15.6333 12.3237 14.5671 13.6295C13.5009 14.9353 12.0128 15.8284 10.359 16.1551C8.70516 16.4817 6.9892 16.2214 5.50666 15.419C4.02411 14.6166 2.86777 13.3224 2.23679 11.7591C1.60582 10.1959 1.53971 8.4616 2.04986 6.85489C2.56001 5.24817 3.61447 3.86964 5.03163 2.95672C6.4488 2.0438 8.13996 1.65364 9.81384 1.85344C11.4877 2.05324 13.0395 2.83049 14.202 4.05132H12.042C11.8033 4.05132 11.5744 4.14614 11.4056 4.31492C11.2368 4.48371 11.142 4.71262 11.142 4.95132C11.142 5.19001 11.2368 5.41893 11.4056 5.58771C11.5744 5.7565 11.8033 5.85132 12.042 5.85132H16.119C16.3577 5.85132 16.5866 5.7565 16.7554 5.58771C16.9242 5.41893 17.019 5.19001 17.019 4.95132V0.901318C17.019 0.662623 16.9242 0.433705 16.7554 0.264922C16.5866 0.0961392 16.3577 0.00131809 16.119 0.00131809C15.8803 0.00131809 15.6514 0.0961392 15.4826 0.264922C15.3138 0.433705 15.219 0.662623 15.219 0.901318V2.49432C13.7202 1.06157 11.7727 0.190275 9.70562 0.0277143C7.63856 -0.134847 5.57877 0.421298 3.87443 1.60214C2.17009 2.78298 0.925751 4.51609 0.351748 6.50849C-0.222254 8.5009 -0.0907083 10.6304 0.72415 12.537C1.53901 14.4436 2.98719 16.0104 4.82391 16.9725C6.66063 17.9346 8.7732 18.233 10.8045 17.8173C12.8359 17.4015 14.6614 16.2971 15.9724 14.6908C17.2835 13.0845 17.9997 11.0748 18 9.00132C18 8.76263 17.9052 8.53371 17.7364 8.36492C17.5676 8.19614 17.3387 8.10132 17.1 8.10132Z"
          fill="currentColor"/>
</svg>
