<svg viewBox="0 0 18 18" id="icon" fill="currentColor" xmlns="http://www.w3.org/2000/svg">
    <path d="M9 9.89951C8.72599 9.89631 8.45759 9.97712 8.2309 10.1311C8.00422 10.285 7.83014 10.5047 7.7321 10.7606C7.63406 11.0165 7.61676 11.2963 7.68254 11.5623C7.74832 11.8283 7.89401 12.0678 8.1 12.2485V13.4995C8.1 13.7382 8.19483 13.9671 8.36361 14.1359C8.53239 14.3047 8.76131 14.3995 9 14.3995C9.23869 14.3995 9.46761 14.3047 9.63639 14.1359C9.80517 13.9671 9.89999 13.7382 9.89999 13.4995V12.2485C10.106 12.0678 10.2517 11.8283 10.3175 11.5623C10.3832 11.2963 10.3659 11.0165 10.2679 10.7606C10.1699 10.5047 9.99578 10.285 9.7691 10.1311C9.54241 9.97712 9.274 9.89631 9 9.89951ZM13.5 6.29953H6.30001V4.49954C6.2987 3.96511 6.45602 3.44232 6.75205 2.99736C7.04807 2.55241 7.46948 2.20532 7.96292 2.00004C8.45635 1.79476 8.99961 1.74054 9.52388 1.84424C10.0482 1.94794 10.5299 2.20489 10.908 2.58255C11.2463 2.92821 11.4884 3.35639 11.61 3.82455C11.6395 3.93919 11.6914 4.04689 11.7625 4.1415C11.8337 4.23611 11.9228 4.31577 12.0248 4.37595C12.1267 4.43612 12.2395 4.47562 12.3568 4.49219C12.474 4.50877 12.5933 4.50209 12.708 4.47254C12.8226 4.44299 12.9303 4.39116 13.0249 4.31999C13.1195 4.24882 13.1992 4.15971 13.2594 4.05775C13.3195 3.95579 13.359 3.84298 13.3756 3.72576C13.3922 3.60853 13.3855 3.48919 13.356 3.37455C13.1509 2.59587 12.7443 1.885 12.177 1.31356C11.5471 0.685693 10.7454 0.258529 9.87296 0.0860061C9.00052 -0.0865166 8.09653 0.00333886 7.27512 0.344226C6.45372 0.685113 5.75174 1.26175 5.25783 2.00131C4.76391 2.74088 4.50021 3.61021 4.50003 4.49954V6.29953C3.78395 6.29953 3.09719 6.58399 2.59085 7.09034C2.0845 7.59668 1.80004 8.28343 1.80004 8.99952V15.2995C1.80004 16.0156 2.0845 16.7023 2.59085 17.2087C3.09719 17.715 3.78395 17.9995 4.50003 17.9995H13.5C14.2161 17.9995 14.9028 17.715 15.4092 17.2087C15.9155 16.7023 16.2 16.0156 16.2 15.2995V8.99952C16.2 8.28343 15.9155 7.59668 15.4092 7.09034C14.9028 6.58399 14.2161 6.29953 13.5 6.29953ZM14.4 15.2995C14.4 15.5382 14.3051 15.7671 14.1364 15.9359C13.9676 16.1047 13.7387 16.1995 13.5 16.1995H4.50003C4.26133 16.1995 4.03241 16.1047 3.86363 15.9359C3.69485 15.7671 3.60003 15.5382 3.60003 15.2995V8.99952C3.60003 8.76082 3.69485 8.5319 3.86363 8.36312C4.03241 8.19434 4.26133 8.09952 4.50003 8.09952H13.5C13.7387 8.09952 13.9676 8.19434 14.1364 8.36312C14.3051 8.5319 14.4 8.76082 14.4 8.99952V15.2995Z"
          fill="currentColor"/>
</svg>
