<svg viewBox="0 0 18 18" id="icon" fill="currentColor" xmlns="http://www.w3.org/2000/svg">
    <path d="M5.25 13.05C5.06458 13.05 4.88332 13.1028 4.72915 13.2017C4.57498 13.3006 4.45482 13.4411 4.38386 13.6056C4.31291 13.77 4.29434 13.951 4.33051 14.1256C4.36669 14.3002 4.45598 14.4605 4.58709 14.5864C4.7182 14.7123 4.88525 14.798 5.0671 14.8327C5.24896 14.8674 5.43746 14.8496 5.60877 14.7815C5.78007 14.7134 5.92649 14.598 6.0295 14.45C6.13252 14.302 6.1875 14.128 6.1875 13.95C6.1875 13.7113 6.08873 13.4824 5.91291 13.3136C5.7371 13.1448 5.49864 13.05 5.25 13.05ZM9 0C5.25 0 1.5 1.233 1.5 3.6V14.4C1.5 16.767 5.25 18 9 18C12.75 18 16.5 16.767 16.5 14.4V3.6C16.5 1.233 12.75 0 9 0ZM14.625 14.4C14.625 15.039 12.4875 16.2 9 16.2C5.5125 16.2 3.375 15.039 3.375 14.4V11.457C5.13007 12.258 7.0574 12.6496 9 12.6C10.9426 12.6496 12.8699 12.258 14.625 11.457V14.4ZM14.625 9C14.625 9.639 12.4875 10.8 9 10.8C5.5125 10.8 3.375 9.639 3.375 9V6.057C5.13007 6.85796 7.0574 7.2496 9 7.2C10.9426 7.2496 12.8699 6.85796 14.625 6.057V9ZM9 5.4C5.5125 5.4 3.375 4.239 3.375 3.6C3.375 2.961 5.5125 1.8 9 1.8C12.4875 1.8 14.625 2.961 14.625 3.6C14.625 4.239 12.4875 5.4 9 5.4ZM5.25 7.65C5.06458 7.65 4.88332 7.70278 4.72915 7.80168C4.57498 7.90057 4.45482 8.04113 4.38386 8.20558C4.31291 8.37004 4.29434 8.551 4.33051 8.72558C4.36669 8.90016 4.45598 9.06053 4.58709 9.1864C4.7182 9.31226 4.88525 9.39798 5.0671 9.43271C5.24896 9.46743 5.43746 9.44961 5.60877 9.38149C5.78007 9.31337 5.92649 9.19802 6.0295 9.05001C6.13252 8.90201 6.1875 8.728 6.1875 8.55C6.1875 8.31131 6.08873 8.08239 5.91291 7.9136C5.7371 7.74482 5.49864 7.65 5.25 7.65Z"
          fill="currentColor"/>
</svg>
