<svg viewBox="0 0 18 18" id="icon" fill="currentColor" xmlns="http://www.w3.org/2000/svg">
    <g clip-path="url(#clip0_297_866)">
        <path d="M16.3972 9.594C16.2529 9.42975 16.1734 9.21861 16.1734 8.99999C16.1734 8.78137 16.2529 8.57022 16.3972 8.40598L17.5492 7.10996C17.6762 6.96836 17.755 6.79019 17.7744 6.60101C17.7938 6.41183 17.7528 6.22136 17.6572 6.05694L15.8572 2.9429C15.7626 2.77866 15.6186 2.64848 15.4457 2.57091C15.2728 2.49333 15.0798 2.47233 14.8942 2.51089L13.2022 2.85289C12.9869 2.89738 12.7627 2.86152 12.5721 2.75209C12.3814 2.64266 12.2374 2.46722 12.1672 2.25889L11.6182 0.61186C11.5578 0.433098 11.4427 0.277833 11.2893 0.168011C11.1359 0.0581886 10.9518 -0.000636363 10.7631 -0.00014931H7.16309C6.96683 -0.0103933 6.77261 0.0438851 6.61009 0.154396C6.44758 0.264906 6.3257 0.425574 6.26308 0.61186L5.75907 2.25889C5.68887 2.46722 5.54484 2.64266 5.35417 2.75209C5.16349 2.86152 4.93935 2.89738 4.72405 2.85289L2.98703 2.51089C2.81112 2.48603 2.63179 2.51379 2.47163 2.59067C2.31147 2.66754 2.17765 2.7901 2.08701 2.9429L0.286987 6.05694C0.189029 6.21953 0.144984 6.40893 0.161149 6.59805C0.177314 6.78718 0.25286 6.96635 0.376988 7.10996L1.52001 8.40598C1.66429 8.57022 1.74387 8.78137 1.74387 8.99999C1.74387 9.21861 1.66429 9.42975 1.52001 9.594L0.376988 10.89C0.25286 11.0336 0.177314 11.2128 0.161149 11.4019C0.144984 11.591 0.189029 11.7804 0.286987 11.943L2.08701 15.0571C2.1816 15.2213 2.32562 15.3515 2.49855 15.4291C2.67147 15.5066 2.86447 15.5276 3.05003 15.4891L4.74205 15.1471C4.95735 15.1026 5.18149 15.1384 5.37217 15.2479C5.56284 15.3573 5.70687 15.5328 5.77707 15.7411L6.32608 17.3881C6.3887 17.5744 6.51058 17.7351 6.67309 17.8456C6.83561 17.9561 7.02983 18.0104 7.22609 18.0001H10.8261C11.0148 18.0006 11.1989 17.9418 11.3523 17.832C11.5057 17.7221 11.6208 17.5669 11.6812 17.3881L12.2302 15.7411C12.3004 15.5328 12.4444 15.3573 12.6351 15.2479C12.8257 15.1384 13.0499 15.1026 13.2652 15.1471L14.9572 15.4891C15.1428 15.5276 15.3358 15.5066 15.5087 15.4291C15.6816 15.3515 15.8256 15.2213 15.9202 15.0571L17.7203 11.943C17.8158 11.7786 17.8568 11.5881 17.8374 11.399C17.818 11.2098 17.7392 11.0316 17.6122 10.89L16.3972 9.594ZM15.0562 10.8L15.7762 11.61L14.6242 13.6081L13.5622 13.3921C12.914 13.2596 12.2397 13.3697 11.6673 13.7015C11.0949 14.0333 10.6643 14.5637 10.4571 15.1921L10.1151 16.2001H7.8111L7.4871 15.1741C7.27996 14.5457 6.84933 14.0153 6.27694 13.6835C5.70455 13.3517 5.03026 13.2416 4.38205 13.3741L3.32003 13.5901L2.15002 11.601L2.87003 10.791C3.31279 10.296 3.55758 9.65514 3.55758 8.99099C3.55758 8.32684 3.31279 7.68599 2.87003 7.19096L2.15002 6.38095L3.30203 4.40092L4.36405 4.61692C5.01226 4.74942 5.68655 4.63931 6.25894 4.30749C6.83133 3.97568 7.26196 3.44525 7.46909 2.81689L7.8111 1.79988H10.1151L10.4571 2.82589C10.6643 3.45425 11.0949 3.98468 11.6673 4.31649C12.2397 4.64831 12.914 4.75842 13.5622 4.62592L14.6242 4.40992L15.7762 6.40795L15.0562 7.21796C14.6184 7.71185 14.3767 8.34899 14.3767 9.00899C14.3767 9.66898 14.6184 10.3061 15.0562 10.8ZM8.96312 5.39993C8.25109 5.39993 7.55506 5.61107 6.96303 6.00665C6.37101 6.40223 5.90958 6.96448 5.6371 7.62231C5.36462 8.28013 5.29333 9.00398 5.43224 9.70232C5.57115 10.4007 5.91402 11.0421 6.4175 11.5456C6.92097 12.0491 7.56244 12.392 8.26078 12.5309C8.95912 12.6698 9.68297 12.5985 10.3408 12.326C10.9986 12.0535 11.5609 11.5921 11.9565 11.0001C12.352 10.408 12.5632 9.71201 12.5632 8.99999C12.5632 8.04519 12.1839 7.12951 11.5087 6.45436C10.8336 5.77922 9.91791 5.39993 8.96312 5.39993ZM8.96312 10.8C8.60711 10.8 8.25909 10.6944 7.96308 10.4967C7.66706 10.2989 7.43635 10.0177 7.30011 9.68883C7.16387 9.35992 7.12822 8.99799 7.19768 8.64882C7.26713 8.29965 7.43857 7.97891 7.69031 7.72718C7.94204 7.47544 8.26278 7.304 8.61195 7.23455C8.96112 7.16509 9.32305 7.20074 9.65196 7.33698C9.98087 7.47322 10.262 7.70393 10.4598 7.99995C10.6576 8.29596 10.7631 8.64398 10.7631 8.99999C10.7631 9.47738 10.5735 9.93523 10.2359 10.2728C9.89836 10.6104 9.44052 10.8 8.96312 10.8Z"
              fill="currentColor"/>
    </g>
    <defs>
        <clipPath id="clip0_297_866">
            <rect width="18" height="18" fill="currentColor"/>
        </clipPath>
    </defs>
</svg>
