<svg viewBox="0 0 18 18" id="icon" fill="currentColor" xmlns="http://www.w3.org/2000/svg">
    <path d="M13.5 0H4.5C3.30653 0 2.16193 0.474106 1.31802 1.31802C0.474106 2.16193 0 3.30653 0 4.5V13.5C0 14.6935 0.474106 15.8381 1.31802 16.682C2.16193 17.5259 3.30653 18 4.5 18H13.5C14.6935 18 15.8381 17.5259 16.682 16.682C17.5259 15.8381 18 14.6935 18 13.5V4.5C18 3.30653 17.5259 2.16193 16.682 1.31802C15.8381 0.474106 14.6935 0 13.5 0ZM16.2 13.5C16.2 14.2161 15.9155 14.9028 15.4092 15.4092C14.9028 15.9155 14.2161 16.2 13.5 16.2H4.5C3.78392 16.2 3.09716 15.9155 2.59081 15.4092C2.08446 14.9028 1.8 14.2161 1.8 13.5V4.5C1.8 3.78392 2.08446 3.09716 2.59081 2.59081C3.09716 2.08446 3.78392 1.8 4.5 1.8H13.5C14.2161 1.8 14.9028 2.08446 15.4092 2.59081C15.9155 3.09716 16.2 3.78392 16.2 4.5V13.5Z"
          fill="currentColor"/>
</svg>
