<?xml version="1.0" encoding="UTF-8"?>
<svg id="_Слой_1" data-name="Слой 1" xmlns="http://www.w3.org/2000/svg" xmlns:xlink="http://www.w3.org/1999/xlink" viewBox="0 0 115.64 30">
  <defs>
    <style>
      .cls-1 {
        fill: url(#_Безымянный_градиент_3);
      }

      .cls-1, .cls-2, .cls-3, .cls-4, .cls-5, .cls-6 {
        stroke-width: 0px;
      }

      .cls-2 {
        fill: url(#_Безымянный_градиент_4);
      }

      .cls-3 {
        fill: url(#_Безымянный_градиент_2);
      }

      .cls-4 {
        fill: url(#_Безымянный_градиент);
      }

      .cls-5 {
        fill: none;
      }

      .cls-7 {
        clip-path: url(#clippath-1);
      }

      .cls-8 {
        clip-path: url(#clippath);
      }

      .cls-6 {
        fill: #f2f5f8;
      }
    </style>
    <clipPath id="clippath">
      <rect class="cls-5" width="30" height="30"/>
    </clipPath>
    <clipPath id="clippath-1">
      <rect class="cls-5" width="30" height="30"/>
    </clipPath>
    <linearGradient id="_Безымянный_градиент" data-name="Безымянный градиент" x1="11.6" y1="8.21" x2="10.62" y2="20.72" gradientTransform="translate(0 31.19) scale(1 -1)" gradientUnits="userSpaceOnUse">
      <stop offset="0" stop-color="#3384ff"/>
      <stop offset=".14" stop-color="#3280f8"/>
      <stop offset=".34" stop-color="#3178e4"/>
      <stop offset=".58" stop-color="#2f6ac4"/>
      <stop offset=".85" stop-color="#2d5698"/>
      <stop offset="1" stop-color="#2c4a7c"/>
    </linearGradient>
    <linearGradient id="_Безымянный_градиент_2" data-name="Безымянный градиент 2" x1="3.57" y1="13.09" x2="16.02" y2="26.27" gradientTransform="translate(0 31.19) scale(1 -1)" gradientUnits="userSpaceOnUse">
      <stop offset="0" stop-color="#2c4a7c"/>
      <stop offset=".15" stop-color="#2d5698"/>
      <stop offset=".42" stop-color="#2f6ac4"/>
      <stop offset=".66" stop-color="#3178e4"/>
      <stop offset=".86" stop-color="#3280f8"/>
      <stop offset="1" stop-color="#3384ff"/>
    </linearGradient>
    <linearGradient id="_Безымянный_градиент_3" data-name="Безымянный градиент 3" x1="18.4" y1="24.17" x2="19.38" y2="11.66" gradientTransform="translate(0 31.19) scale(1 -1)" gradientUnits="userSpaceOnUse">
      <stop offset="0" stop-color="#3384ff"/>
      <stop offset=".14" stop-color="#3280f8"/>
      <stop offset=".34" stop-color="#3178e4"/>
      <stop offset=".58" stop-color="#2f6ac4"/>
      <stop offset=".85" stop-color="#2d5698"/>
      <stop offset="1" stop-color="#2c4a7c"/>
    </linearGradient>
    <linearGradient id="_Безымянный_градиент_4" data-name="Безымянный градиент 4" x1="-29.09" y1="7.8" x2="-29.05" y2="7.8" gradientTransform="translate(0 31.19) scale(1 -1)" gradientUnits="userSpaceOnUse">
      <stop offset="0" stop-color="#2c4a7c"/>
      <stop offset=".15" stop-color="#2d5698"/>
      <stop offset=".42" stop-color="#2f6ac4"/>
      <stop offset=".66" stop-color="#3178e4"/>
      <stop offset=".86" stop-color="#3280f8"/>
      <stop offset="1" stop-color="#3384ff"/>
    </linearGradient>
  </defs>
  <g class="cls-8">
    <g class="cls-7">
      <g>
        <path class="cls-4" d="m7.6,20.32l2.24-2.24,10.03-10.04c1.84-1.84,1.84-4.82,0-6.66-1.84-1.84-4.82-1.84-6.66,0L1.38,13.22c-1.84,1.84-1.84,4.82,0,6.66l3.33,3.33,1.87,1.87c-.47-.47-.93-2.81,1.02-4.76h0Z"/>
        <path class="cls-3" d="m19.88,1.38c-1.84-1.84-4.82-1.84-6.66,0L1.38,13.22c6.57-6.57,15.33-2.01,18.5-5.18,1.84-1.84,1.84-4.82,0-6.66Z"/>
        <path class="cls-1" d="m22.4,9.68l-2.24,2.24-10.03,10.03c-1.84,1.84-1.84,4.82,0,6.66,1.84,1.84,4.82,1.84,6.66,0l11.84-11.84c1.84-1.84,1.84-4.82,0-6.66l-3.33-3.33-1.87-1.87c.47.47.93,2.81-1.02,4.76Z"/>
        <path class="cls-2" d="m10.12,28.62c1.84,1.84,4.82,1.84,6.66,0l11.84-11.84c-6.57,6.57-15.33,2.01-18.5,5.18-1.84,1.84-1.84,4.82,0,6.66Z"/>
      </g>
    </g>
  </g>
  <g>
    <path class="cls-6" d="m41.38,12.35c.48-.48,1.05-.85,1.7-1.12.66-.26,1.38-.4,2.16-.4.83,0,1.6.17,2.32.5s1.35.83,1.91,1.49l2.52-2.3c-.8-.98-1.79-1.72-2.98-2.22-1.18-.5-2.5-.76-3.96-.76-1.3,0-2.5.21-3.61.64-1.11.42-2.08,1.03-2.9,1.81-.82.78-1.46,1.7-1.92,2.76-.46,1.06-.68,2.22-.68,3.48s.23,2.42.68,3.48c.46,1.06,1.09,1.98,1.91,2.76.82.78,1.78,1.39,2.89,1.81,1.11.42,2.32.64,3.61.64,1.47,0,2.8-.26,3.98-.77,1.18-.51,2.18-1.26,2.98-2.23l-2.52-2.3c-.56.66-1.2,1.16-1.91,1.5s-1.48.52-2.32.52c-.78,0-1.5-.13-2.16-.4-.66-.26-1.22-.64-1.7-1.12-.48-.48-.85-1.05-1.12-1.7s-.4-1.38-.4-2.18.13-1.53.4-2.18c.26-.66.64-1.22,1.12-1.7Z"/>
    <path class="cls-6" d="m63.27,12.38c-1.07-.57-2.3-.85-3.67-.85s-2.57.28-3.64.85-1.9,1.35-2.51,2.35c-.61,1-.91,2.15-.91,3.44s.3,2.42.91,3.42c.61,1,1.44,1.79,2.51,2.36s2.28.86,3.64.86,2.6-.29,3.67-.86c1.07-.58,1.91-1.36,2.52-2.35s.91-2.14.91-3.43-.3-2.44-.91-3.44-1.45-1.78-2.52-2.35Zm-.8,7.72c-.3.54-.69.96-1.18,1.24-.49.28-1.05.42-1.69.42s-1.16-.14-1.66-.42c-.5-.28-.89-.69-1.19-1.24-.3-.54-.44-1.18-.44-1.92s.15-1.39.44-1.92c.3-.53.69-.93,1.19-1.21s1.06-.42,1.68-.42,1.18.14,1.67.42.88.68,1.18,1.21c.3.53.44,1.17.44,1.92s-.15,1.38-.44,1.92Z"/>
    <path class="cls-6" d="m80.11,12.36c-.97-.55-2.07-.83-3.3-.83-1.07,0-2.02.24-2.83.72-.38.23-.73.51-1.03.85v-6.27h-3.74v17.81h3.58v-1.49c.33.4.7.72,1.14.97.82.47,1.79.71,2.89.71,1.23,0,2.33-.28,3.3-.83.97-.55,1.74-1.32,2.3-2.32.57-.99.85-2.16.85-3.5s-.28-2.51-.85-3.5c-.57-.99-1.34-1.76-2.3-2.32Zm-1.08,7.74c-.3.54-.69.96-1.18,1.24-.49.28-1.04.42-1.67.42s-1.18-.14-1.68-.42c-.5-.28-.89-.69-1.19-1.24-.3-.54-.44-1.18-.44-1.92s.15-1.39.44-1.92c.29-.53.69-.93,1.19-1.21s1.06-.42,1.68-.42,1.18.14,1.67.42.88.68,1.18,1.21c.3.53.44,1.17.44,1.92s-.15,1.38-.44,1.92Z"/>
    <path class="cls-6" d="m90.99,11.53c-1.02,0-2.03.13-3.02.4s-1.84.65-2.54,1.16l1.32,2.62c.48-.37,1.05-.66,1.72-.88.66-.22,1.34-.32,2.03-.32,1.01,0,1.76.22,2.24.67.49.45.73,1.07.73,1.87v.02h-2.95c-1.33,0-2.4.16-3.22.48-.82.32-1.41.77-1.79,1.36s-.56,1.25-.56,2,.2,1.4.59,1.99c.39.59.95,1.06,1.67,1.4.72.34,1.58.52,2.57.52,1.14,0,2.06-.22,2.78-.66.49-.3.87-.69,1.15-1.16v1.63h3.5v-7.37c0-1.97-.54-3.42-1.63-4.34-1.09-.93-2.62-1.39-4.58-1.39Zm1.4,10.34c-.5.29-1.08.43-1.72.43s-1.15-.14-1.52-.42c-.38-.28-.56-.66-.56-1.14,0-.43.16-.79.49-1.08s.93-.43,1.81-.43h2.57v1.32c-.21.59-.56,1.03-1.07,1.32Z"/>
    <rect class="cls-6" x="100.59" y="6.83" width="3.74" height="17.81"/>
    <path class="cls-6" d="m114.65,21.37c-.42.32-.93.48-1.54.48-.48,0-.86-.15-1.14-.46-.28-.3-.42-.73-.42-1.27v-5.52h3.19v-2.88h-3.19v-2.86h-3.77v2.86h-1.99v2.88h1.99v5.59c0,1.54.42,2.69,1.27,3.47s2.03,1.16,3.55,1.16c.58,0,1.13-.07,1.67-.2s.99-.34,1.36-.61l-.98-2.64Z"/>
  </g>
</svg>