<svg viewBox="0 0 18 15" fill="none" xmlns="http://www.w3.org/2000/svg">
<path d="M15.4286 15C16.1106 15 16.7646 14.7366 17.2468 14.2678C17.7291 13.7989 18 13.163 18 12.5V8.75C18 8.08696 17.7291 7.45107 17.2468 6.98223C16.7646 6.51339 16.1106 6.25 15.4286 6.25H2.57143C1.88944 6.25 1.23539 6.51339 0.753154 6.98223C0.270918 7.45107 0 8.08696 0 8.75V12.5C0 13.163 0.270918 13.7989 0.753154 14.2678C1.23539 14.7366 1.88944 15 2.57143 15H15.4286ZM0 5.955V2.5C0 1.83696 0.270918 1.20107 0.753154 0.732233C1.23539 0.263392 1.88944 0 2.57143 0H7.182C7.69319 0.000216629 8.18339 0.197741 8.54486 0.549167L10.3637 2.31667C10.4837 2.43417 10.6474 2.5 10.818 2.5H15.4286C16.1106 2.5 16.7646 2.76339 17.2468 3.23223C17.7291 3.70107 18 4.33696 18 5V5.955C17.2936 5.33886 16.3776 4.99869 15.4286 5H2.57143C1.62239 4.99869 0.706431 5.33886 0 5.955Z" fill="#FCD34D"/>
</svg>
